<svg width="28" height="29" viewBox="0 0 28 29" fill="none" xmlns="http://www.w3.org/2000/svg">
<path d="M17 12.5V9.63043C17 7.90154 15.6569 6.5 14 6.5C12.3431 6.5 11 7.90154 11 9.63043V12.2" stroke="#AFB0B1" stroke-width="1.5"/>
<path fill-rule="evenodd" clip-rule="evenodd" d="M8 11.5C6.89543 11.5 6 12.3954 6 13.5V21.5C6 22.6046 6.89543 23.5 8 23.5H20C21.1046 23.5 22 22.6046 22 21.5V13.5C22 12.3954 21.1046 11.5 20 11.5H8ZM16.0001 16.5C16.0001 17.2403 15.5979 17.8866 15.0001 18.2324V21.5H13.0001V18.2324C12.4023 17.8866 12.0001 17.2403 12.0001 16.5C12.0001 15.3954 12.8955 14.5 14.0001 14.5C15.1046 14.5 16.0001 15.3954 16.0001 16.5Z" fill="#AFB0B1"/>
</svg>
