<svg width="35" height="40" viewBox="0 0 35 40" fill="none" xmlns="http://www.w3.org/2000/svg">
<path fill-rule="evenodd" clip-rule="evenodd" d="M15.308 39.051C10.6112 35.5838 0 26.5403 0 15.6044C0 11.4659 1.84375 7.49679 5.12565 4.57039C8.40754 1.644 12.8589 0 17.5002 0C22.1415 0 26.5926 1.64403 29.8745 4.57042C33.1563 7.49681 35 11.4658 35 15.6044C35 26.5402 24.3892 35.5838 19.6924 39.051C19.0177 39.5491 18.68 39.7981 18.1775 39.9257C17.787 40.0248 17.2127 40.0248 16.8222 39.9257C16.3202 39.7982 15.9833 39.5496 15.3098 39.0524L15.308 39.051ZM17.5 23.0769C21.8932 23.0769 25.4546 19.6329 25.4546 15.3846C25.4546 11.1362 21.8932 7.69224 17.5 7.69224C13.1068 7.69224 9.54547 11.1362 9.54547 15.3846C9.54547 19.6329 13.1068 23.0769 17.5 23.0769Z" fill="#232527"/>
</svg>
