<svg width="578" height="34" viewBox="0 0 578 34" fill="none" xmlns="http://www.w3.org/2000/svg">
<g clip-path="url(#clip0_87_264)">
<path d="M22.8333 18.0003V20.5003C22.8333 21.789 21.7887 22.8337 20.5 22.8337H13.5C12.2113 22.8337 11.1667 21.789 11.1667 20.5003V13.5003C11.1667 12.2117 12.2113 11.167 13.5 11.167H16" stroke="#D9DDE3" stroke-width="1.5" stroke-linecap="round"/>
<path d="M19.5387 11.1665L22.8385 11.1665M22.8385 11.1665L22.8385 14.4663M22.8385 11.1665L18.7137 15.2913" stroke="#D9DDE3" stroke-width="1.5" stroke-linecap="round" stroke-linejoin="round"/>
</g>
<g clip-path="url(#clip1_87_264)">
<path d="M55.8132 18.4561L56.6777 17.5916C57.0682 17.2011 57.0682 16.5679 56.6777 16.1774L55.8132 15.313" stroke="#D9DDE3" stroke-width="1.5" stroke-linecap="round" stroke-linejoin="round"/>
<path d="M56.5992 16.8848L51.8845 16.8848" stroke="#D9DDE3" stroke-width="1.5" stroke-linecap="round"/>
<path d="M44.8125 20.3628V13.6685M54.2418 20.3628C54.2418 21.1022 53.5382 21.7016 52.6703 21.7016H49.5272M54.2418 13.6685C54.2418 12.9291 53.5382 12.3296 52.6703 12.3296H49.5272M45.5123 22.0991L47.0839 22.9916C48.1282 23.5848 49.5272 22.947 49.5272 21.8776V12.1536C49.5272 11.0843 48.1282 10.4465 47.0839 11.0396L45.5123 11.9322C45.0751 12.1805 44.8125 12.5985 44.8125 13.0462V20.9851C44.8125 21.4327 45.0751 21.8508 45.5123 22.0991Z" stroke="#D9DDE3" stroke-width="1.5" stroke-linecap="round"/>
</g>
<g clip-path="url(#clip2_87_264)">
<path d="M89.8 16.3889H80.2M89.8 16.3889C90.4627 16.3889 91 16.9361 91 17.6111V20.0556C91 21.4056 89.9255 22.5 88.6 22.5H81.4C80.0745 22.5 79 21.4056 79 20.0556V17.6111C79 16.9361 79.5373 16.3889 80.2 16.3889M89.8 16.3889V15.1667C89.8 14.4917 89.2627 13.9444 88.6 13.9444M80.2 16.3889V15.1667C80.2 14.4917 80.7373 13.9444 81.4 13.9444M88.6 13.9444H81.4M88.6 13.9444V12.7222C88.6 12.0472 88.0627 11.5 87.4 11.5H82.6C81.9373 11.5 81.4 12.0472 81.4 12.7222V13.9444M83.8 18.2222H86.2" stroke="#D9DDE3" stroke-width="1.5" stroke-linecap="round"/>
</g>
<g clip-path="url(#clip3_87_264)">
<path d="M119 20C118.854 20 118.723 19.9707 118.578 19.912C118.17 19.7507 117.908 19.34 117.908 18.9V11.1C117.908 10.4987 118.403 10 119 10C119.597 10 120.092 10.4987 120.092 11.1V16.2453L121.14 15.1893C121.562 14.764 122.261 14.764 122.683 15.1893C123.106 15.6147 123.106 16.3187 122.683 16.744L119.772 19.6773C119.568 19.8827 119.277 20 119 20Z" fill="white"/>
<path d="M119 20C118.723 20 118.447 19.8972 118.228 19.6772L115.317 16.7439C114.894 16.3186 114.894 15.6146 115.317 15.1892C115.739 14.7639 116.438 14.7639 116.86 15.1892L119.772 18.1226C120.194 18.5479 120.194 19.252 119.772 19.6773C119.553 19.8973 119.277 20 119 20Z" fill="white"/>
<path d="M112 23C112 22.4477 112.448 22 113 22H125C125.552 22 126 22.4477 126 23C126 23.5523 125.552 24 125 24H113C112.448 24 112 23.5523 112 23Z" fill="white"/>
</g>
<g clip-path="url(#clip4_87_264)">
<path d="M158 12.0001L148 22M158 21.9999L148 12" stroke="#D9DDE3" stroke-width="1.5" stroke-linecap="round" stroke-linejoin="round"/>
</g>
<g clip-path="url(#clip5_87_264)">
<path d="M181.666 19.664C181.666 19.664 183.688 23 187 23C189.971 23 192.44 20.8366 192.917 18M181.666 19.664H184.378M181.666 19.664V22.664M193 14.336C193 14.336 191.002 11 187 11C184.007 11 181.555 13.1634 181.082 16M193 14.336V11.336M193 14.336H190.336" stroke="#D9DDE3" stroke-width="1.5" stroke-linecap="round" stroke-linejoin="round"/>
</g>
<g clip-path="url(#clip6_87_264)">
<path d="M215.375 16.375C215.375 17.7011 215.902 18.9729 216.839 19.9105C217.777 20.8482 219.049 21.375 220.375 21.375C221.701 21.375 222.973 20.8482 223.911 19.9105C224.848 18.9729 225.375 17.7011 225.375 16.375C225.375 15.0489 224.848 13.7771 223.911 12.8395C222.973 11.9018 221.701 11.375 220.375 11.375C219.049 11.375 217.777 11.9018 216.839 12.8395C215.902 13.7771 215.375 15.0489 215.375 16.375Z" stroke="#D9DDE3" stroke-width="1.5" stroke-linecap="round" stroke-linejoin="round"/>
<path d="M226.625 22.625L223.906 19.9062" stroke="#D9DDE3" stroke-width="1.5" stroke-linecap="round" stroke-linejoin="round"/>
</g>
<g clip-path="url(#clip7_87_264)">
<path d="M249 14L255 20L261 14" stroke="#D9DDE3" stroke-width="1.5" stroke-linecap="round" stroke-linejoin="round"/>
</g>
<g clip-path="url(#clip8_87_264)">
<path d="M283 20L289 14L295 20" stroke="#D9DDE3" stroke-width="1.5" stroke-linecap="round" stroke-linejoin="round"/>
</g>
<g clip-path="url(#clip9_87_264)">
<path d="M326 11L320 17L326 23" stroke="#D9DDE3" stroke-width="1.5" stroke-linecap="round" stroke-linejoin="round"/>
</g>
<g clip-path="url(#clip10_87_264)">
<path d="M354 23L360 17L354 11" stroke="#D9DDE3" stroke-width="1.5" stroke-linecap="round" stroke-linejoin="round"/>
</g>
<g clip-path="url(#clip11_87_264)">
<path d="M397.952 10.368C397.888 10.224 397.776 10.104 397.624 10.04C397.552 10.016 397.48 10 397.4 10H394.199C393.871 10 393.599 10.272 393.599 10.6C393.599 10.928 393.871 11.2 394.199 11.2H395.951L392.174 14.976C391.942 15.208 391.942 15.592 392.174 15.824C392.294 15.944 392.446 16 392.598 16C392.75 16 392.902 15.944 393.022 15.824L396.8 12.048V13.8C396.8 14.128 397.072 14.4 397.4 14.4C397.728 14.4 398 14.128 398 13.8V10.6C398 10.52 397.984 10.448 397.952 10.368Z" fill="white"/>
<path d="M388.978 18.1741L385.2 21.9513V20.1987C385.2 19.8706 384.928 19.5985 384.6 19.5985C384.272 19.5985 384 19.8706 384 20.1987V23.3998C384 23.4798 384.016 23.5519 384.048 23.6319C384.112 23.7759 384.224 23.896 384.376 23.96C384.44 23.984 384.52 24 384.6 24H387.801C388.129 24 388.401 23.7279 388.401 23.3998C388.401 23.0717 388.129 22.7996 387.801 22.7996H386.049L389.826 19.0223C390.058 18.7903 390.058 18.4061 389.826 18.1741C389.594 17.942 389.21 17.942 388.978 18.1741Z" fill="white"/>
</g>
<g clip-path="url(#clip12_87_264)">
<path d="M423.952 18.368C423.888 18.224 423.776 18.104 423.624 18.04C423.552 18.016 423.48 18 423.4 18H420.199C419.871 18 419.599 18.272 419.599 18.6C419.599 18.928 419.871 19.2 420.199 19.2H421.951L418.174 22.976C417.942 23.208 417.942 23.592 418.174 23.824C418.294 23.944 418.446 24 418.598 24C418.75 24 418.902 23.944 419.022 23.824L422.8 20.048V21.8C422.8 22.128 423.072 22.4 423.4 22.4C423.728 22.4 424 22.128 424 21.8V18.6C424 18.52 423.984 18.448 423.952 18.368Z" fill="white"/>
<path d="M430.978 10.1741L427.2 13.9513V12.1987C427.2 11.8706 426.928 11.5985 426.6 11.5985C426.272 11.5985 426 11.8706 426 12.1987V15.3998C426 15.4798 426.016 15.5519 426.048 15.6319C426.112 15.7759 426.224 15.896 426.376 15.96C426.44 15.984 426.52 16 426.6 16H429.801C430.129 16 430.401 15.7279 430.401 15.3998C430.401 15.0717 430.129 14.7996 429.801 14.7996H428.049L431.826 11.0223C432.058 10.7903 432.058 10.4061 431.826 10.1741C431.594 9.94198 431.21 9.94198 430.978 10.1741Z" fill="white"/>
</g>
<g clip-path="url(#clip13_87_264)">
<path d="M462.18 11.6291V10.5289C462.18 10.2398 461.952 10 461.678 10C461.403 10 461.175 10.2398 461.175 10.5289V11.5867H456.824V10.5289C456.824 10.2398 456.596 10 456.322 10C456.047 10 455.819 10.2398 455.819 10.5289V11.6291C454.012 11.8054 453.135 12.9408 453.001 14.6262C452.987 14.8307 453.148 15 453.336 15H464.664C464.858 15 465.018 14.8237 464.998 14.6262C464.864 12.9408 463.987 11.8054 462.18 11.6291Z" fill="white"/>
<path d="M464.333 16H453.667C453.3 16 453 16.2961 453 16.6579V20.7105C453 22.6842 454 24 456.333 24H461.667C464 24 465 22.6842 465 20.7105V16.6579C465 16.2961 464.7 16 464.333 16ZM457.14 21.5066C457.107 21.5329 457.073 21.5658 457.04 21.5855C457 21.6118 456.96 21.6316 456.92 21.6447C456.88 21.6645 456.84 21.6776 456.8 21.6842C456.753 21.6908 456.713 21.6974 456.667 21.6974C456.58 21.6974 456.493 21.6776 456.413 21.6447C456.327 21.6118 456.26 21.5658 456.193 21.5066C456.073 21.3816 456 21.2105 456 21.0395C456 20.8684 456.073 20.6974 456.193 20.5724C456.26 20.5132 456.327 20.4671 456.413 20.4342C456.533 20.3816 456.667 20.3684 456.8 20.3947C456.84 20.4013 456.88 20.4145 456.92 20.4342C456.96 20.4474 457 20.4671 457.04 20.4934C457.073 20.5197 457.107 20.5461 457.14 20.5724C457.26 20.6974 457.333 20.8684 457.333 21.0395C457.333 21.2105 457.26 21.3816 457.14 21.5066ZM457.14 19.2039C457.013 19.3224 456.84 19.3947 456.667 19.3947C456.493 19.3947 456.32 19.3224 456.193 19.2039C456.073 19.0789 456 18.9079 456 18.7368C456 18.5658 456.073 18.3947 456.193 18.2697C456.38 18.0855 456.673 18.0263 456.92 18.1316C457.007 18.1645 457.08 18.2105 457.14 18.2697C457.26 18.3947 457.333 18.5658 457.333 18.7368C457.333 18.9079 457.26 19.0789 457.14 19.2039ZM459.473 21.5066C459.347 21.625 459.173 21.6974 459 21.6974C458.827 21.6974 458.653 21.625 458.527 21.5066C458.407 21.3816 458.333 21.2105 458.333 21.0395C458.333 20.8684 458.407 20.6974 458.527 20.5724C458.773 20.3289 459.227 20.3289 459.473 20.5724C459.593 20.6974 459.667 20.8684 459.667 21.0395C459.667 21.2105 459.593 21.3816 459.473 21.5066ZM459.473 19.2039C459.44 19.2303 459.407 19.2566 459.373 19.2829C459.333 19.3092 459.293 19.3289 459.253 19.3421C459.213 19.3618 459.173 19.375 459.133 19.3816C459.087 19.3882 459.047 19.3947 459 19.3947C458.827 19.3947 458.653 19.3224 458.527 19.2039C458.407 19.0789 458.333 18.9079 458.333 18.7368C458.333 18.5658 458.407 18.3947 458.527 18.2697C458.587 18.2105 458.66 18.1645 458.747 18.1316C458.993 18.0263 459.287 18.0855 459.473 18.2697C459.593 18.3947 459.667 18.5658 459.667 18.7368C459.667 18.9079 459.593 19.0789 459.473 19.2039ZM461.807 21.5066C461.68 21.625 461.507 21.6974 461.333 21.6974C461.16 21.6974 460.987 21.625 460.86 21.5066C460.74 21.3816 460.667 21.2105 460.667 21.0395C460.667 20.8684 460.74 20.6974 460.86 20.5724C461.107 20.3289 461.56 20.3289 461.807 20.5724C461.927 20.6974 462 20.8684 462 21.0395C462 21.2105 461.927 21.3816 461.807 21.5066ZM461.807 19.2039C461.773 19.2303 461.74 19.2566 461.707 19.2829C461.667 19.3092 461.627 19.3289 461.587 19.3421C461.547 19.3618 461.507 19.375 461.467 19.3816C461.42 19.3882 461.373 19.3947 461.333 19.3947C461.16 19.3947 460.987 19.3224 460.86 19.2039C460.74 19.0789 460.667 18.9079 460.667 18.7368C460.667 18.5658 460.74 18.3947 460.86 18.2697C460.927 18.2105 460.993 18.1645 461.08 18.1316C461.2 18.0789 461.333 18.0658 461.467 18.0921C461.507 18.0987 461.547 18.1118 461.587 18.1316C461.627 18.1447 461.667 18.1645 461.707 18.1908C461.74 18.2171 461.773 18.2434 461.807 18.2697C461.927 18.3947 462 18.5658 462 18.7368C462 18.9079 461.927 19.0789 461.807 19.2039Z" fill="white"/>
</g>
<g clip-path="url(#clip14_87_264)">
<path d="M493 10C489.143 10 486 13.143 486 17C486 20.857 489.143 24 493 24C496.857 24 500 20.857 500 17C500 13.143 496.857 10 493 10ZM496.045 19.499C495.947 19.667 495.772 19.758 495.59 19.758C495.499 19.758 495.408 19.737 495.324 19.681L493.154 18.386C492.615 18.064 492.216 17.357 492.216 16.734V13.864C492.216 13.577 492.454 13.339 492.741 13.339C493.028 13.339 493.266 13.577 493.266 13.864V16.734C493.266 16.986 493.476 17.357 493.693 17.483L495.863 18.778C496.115 18.925 496.199 19.247 496.045 19.499Z" fill="white"/>
</g>
<g clip-path="url(#clip15_87_264)">
<path d="M527 11.4118C528.379 11.4118 530.571 12.4 530.571 15.0471C530.571 16.5718 529.343 18.3435 527 20.2141C524.657 18.3435 523.429 16.5647 523.429 15.0471C523.429 12.4 525.621 11.4118 527 11.4118ZM527 10C524.664 10 522 11.7365 522 15.0471C522 17.2494 523.664 19.5718 527 22C530.336 19.5718 532 17.2494 532 15.0471C532 11.7365 529.336 10 527 10Z" fill="white"/>
<path d="M527 13C526.214 13 525.571 13.66 525.571 14.4667C525.571 15.2733 526.214 15.9333 527 15.9333C527.379 15.9333 527.742 15.7788 528.01 15.5038C528.278 15.2287 528.429 14.8557 528.429 14.4667C528.429 14.0777 528.278 13.7046 528.01 13.4296C527.742 13.1545 527.379 13 527 13ZM522 23.2667C522 22.8617 522.328 22.5333 522.733 22.5333H531.267C531.672 22.5333 532 22.8617 532 23.2667C532 23.6717 531.672 24 531.267 24H522.733C522.328 24 522 23.6717 522 23.2667Z" fill="white"/>
</g>
<g clip-path="url(#clip16_87_264)">
<path d="M563.545 14.7403C564.602 14.7403 565.448 13.9049 565.448 12.8701C565.448 11.8353 564.602 11 563.545 11C562.489 11 561.636 11.8353 561.636 12.8701C561.636 13.9049 562.489 14.7403 563.545 14.7403ZM558.455 14.7403C559.511 14.7403 560.357 13.9049 560.357 12.8701C560.357 11.8353 559.511 11 558.455 11C557.398 11 556.545 11.8353 556.545 12.8701C556.545 13.9049 557.398 14.7403 558.455 14.7403Z" fill="white"/>
<path d="M554 20.0833C554 17.365 556.972 16 558.455 16C559.937 16 562.909 17.365 562.909 20.0833V23H554V20.0833Z" fill="white"/>
<path d="M562.928 16.0583C563.151 16.0233 563.361 16 563.545 16C565.028 16 568 17.365 568 20.0833V23H564.182V20.0833C564.182 18.3567 563.666 17.0383 562.928 16.0583Z" fill="white"/>
</g>
<defs>
<clipPath id="clip0_87_264">
<rect width="14" height="14" fill="white" transform="translate(10 10)"/>
</clipPath>
<clipPath id="clip1_87_264">
<rect width="14" height="14" fill="white" transform="translate(44 10)"/>
</clipPath>
<clipPath id="clip2_87_264">
<rect width="14" height="14" fill="white" transform="translate(78 10)"/>
</clipPath>
<clipPath id="clip3_87_264">
<rect width="14" height="14" fill="white" transform="translate(112 10)"/>
</clipPath>
<clipPath id="clip4_87_264">
<rect width="14" height="14" fill="white" transform="translate(146 10)"/>
</clipPath>
<clipPath id="clip5_87_264">
<rect width="14" height="14" fill="white" transform="translate(180 10)"/>
</clipPath>
<clipPath id="clip6_87_264">
<rect width="14" height="14" fill="white" transform="translate(214 10)"/>
</clipPath>
<clipPath id="clip7_87_264">
<rect width="14" height="14" fill="white" transform="translate(248 10)"/>
</clipPath>
<clipPath id="clip8_87_264">
<rect width="14" height="14" fill="white" transform="translate(282 10)"/>
</clipPath>
<clipPath id="clip9_87_264">
<rect width="14" height="14" fill="white" transform="translate(316 10)"/>
</clipPath>
<clipPath id="clip10_87_264">
<rect width="14" height="14" fill="white" transform="translate(350 10)"/>
</clipPath>
<clipPath id="clip11_87_264">
<rect width="14" height="14" fill="white" transform="translate(384 10)"/>
</clipPath>
<clipPath id="clip12_87_264">
<rect width="14" height="14" fill="white" transform="translate(418 10)"/>
</clipPath>
<clipPath id="clip13_87_264">
<rect width="14" height="14" fill="white" transform="translate(452 10)"/>
</clipPath>
<clipPath id="clip14_87_264">
<rect width="14" height="14" fill="white" transform="translate(486 10)"/>
</clipPath>
<clipPath id="clip15_87_264">
<rect width="14" height="14" fill="white" transform="translate(520 10)"/>
</clipPath>
<clipPath id="clip16_87_264">
<rect width="14" height="14" fill="white" transform="translate(554 10)"/>
</clipPath>
</defs>
</svg>
