<svg width="264" height="44" viewBox="0 0 264 44" fill="none" xmlns="http://www.w3.org/2000/svg">
<g clip-path="url(#clip0_88_284)">
<path d="M32 22V28C32 30.2091 30.2091 32 28 32H16C13.7909 32 12 30.2091 12 28V16C12 13.7909 13.7909 12 16 12H22" stroke="#D9DDE3" stroke-width="2" stroke-linecap="round"/>
<path d="M26.352 12.0003H32.0088M32.0088 12.0003V17.6572M32.0088 12.0003L24.9378 19.0714" stroke="#D9DDE3" stroke-width="2" stroke-linecap="round" stroke-linejoin="round"/>
</g>
<g clip-path="url(#clip1_88_284)">
<path d="M59.1379 18.2079C59.6309 17.3939 59.2981 16.4448 58.9175 15.8161C58.6689 15.3946 58.6043 14.8986 58.7341 14.424L58.7351 14.4205C58.8628 13.9467 59.1729 13.5507 59.6319 13.3L59.6319 13.3L59.6369 13.2972L61.5663 12.2286L61.5729 12.2249L61.5795 12.2211C62.3723 11.7662 63.4341 12.0373 63.9087 12.8142L63.9087 12.8142L63.9122 12.8198L64.042 13.0292C64.4505 13.7092 65.106 14.3345 66.0056 14.3345C66.9083 14.3345 67.5653 13.7049 67.9734 13.0221C67.9735 13.022 67.9736 13.0219 67.9736 13.0218L68.0945 12.8196C68.5692 12.0386 69.6259 11.7668 70.4294 12.2306L70.436 12.2345L70.4427 12.2382L72.3609 13.3068L72.3621 13.3074C72.8105 13.5565 73.1273 13.9544 73.2667 14.438C73.3963 14.9253 73.3292 15.4108 73.0803 15.8306L73.0783 15.834C72.8749 16.1802 72.7154 16.5579 72.6505 16.9438C72.586 17.3274 72.6049 17.7941 72.8621 18.2187L73.7175 17.7006L72.8621 18.2187C73.1077 18.6241 73.4901 18.8655 73.8531 19.0022C74.22 19.1402 74.6299 19.1971 75.0446 19.1971C76.1516 19.1971 77 20.0645 77 21.0575V22.9573C77 23.9503 76.1516 24.8176 75.0446 24.8176C74.6299 24.8176 74.22 24.8746 73.8531 25.0126C73.4901 25.1493 73.1077 25.3907 72.8621 25.7961L73.7175 26.3142L72.8621 25.7961C72.3691 26.6101 72.7019 27.5592 73.0826 28.1879C73.3366 28.6187 73.4014 29.1104 73.2697 29.5664L73.2673 29.575L73.2649 29.5835C73.1372 30.0573 72.8271 30.4533 72.3681 30.704L72.3681 30.704L72.3631 30.7068L70.4407 31.7715C70.1566 31.9223 69.8626 31.9956 69.5688 31.9956C69.4307 31.9956 69.2786 31.9771 69.107 31.9385C68.6593 31.8157 68.3021 31.5479 68.0767 31.1842L67.9469 30.9748C67.5384 30.2948 66.8828 29.6695 65.9833 29.6695C65.0804 29.6695 64.4233 30.2993 64.0152 30.9822L63.895 31.1832C63.662 31.5642 63.3012 31.8312 62.8692 31.9391L62.8692 31.939L62.8588 31.9417C62.4068 32.0598 61.9538 31.9959 61.5728 31.7746L61.5651 31.7702L61.5573 31.7658L59.6391 30.6972L59.6379 30.6966C59.1895 30.4475 58.8727 30.0496 58.7333 29.566C58.6037 29.0787 58.6708 28.5932 58.9197 28.1734L58.9217 28.17C59.1251 27.8238 59.2846 27.4461 59.3495 27.0602C59.414 26.6766 59.3951 26.2099 59.1379 25.7853C58.8923 25.3799 58.5099 25.1385 58.1469 25.0018C57.78 24.8638 57.3701 24.8069 56.9554 24.8069C55.8484 24.8069 55 23.9395 55 22.9465V21.0467C55 20.0537 55.8484 19.1864 56.9554 19.1864C57.3701 19.1864 57.78 19.1295 58.1469 18.9914C58.5099 18.8547 58.8923 18.6133 59.1379 18.2079Z" stroke="#D9DDE3" stroke-width="2"/>
<circle cx="66" cy="22" r="3" stroke="#D9DDE3" stroke-width="2"/>
</g>
<g clip-path="url(#clip2_88_284)">
<path d="M120 12.0001L100 32M120 31.9999L100 12" stroke="#D9DDE3" stroke-width="2" stroke-linecap="round" stroke-linejoin="round"/>
</g>
<g clip-path="url(#clip3_88_284)">
<path d="M164 22C164 27.52 159.52 32 154 32C148.48 32 145.11 26.44 145.11 26.44M145.11 26.44H149.63M145.11 26.44V31.44M144 22C144 16.48 148.44 12 154 12C160.67 12 164 17.56 164 17.56M164 17.56V12.56M164 17.56H159.56" stroke="#D9DDE3" stroke-width="2" stroke-linecap="round" stroke-linejoin="round"/>
</g>
<g clip-path="url(#clip4_88_284)">
<path d="M203 32L192.895 23.7677C191.702 22.7955 191.702 21.2045 192.895 20.2323L203 12" stroke="#D9DDE3" stroke-width="2" stroke-miterlimit="10" stroke-linecap="round" stroke-linejoin="round"/>
</g>
<g clip-path="url(#clip5_88_284)">
<path d="M237 32L247.105 23.7677C248.298 22.7955 248.298 21.2045 247.105 20.2323L237 12" stroke="#D9DDE3" stroke-width="2" stroke-miterlimit="10" stroke-linecap="round" stroke-linejoin="round"/>
</g>
<defs>
<clipPath id="clip0_88_284">
<rect width="24" height="24" fill="white" transform="translate(10 10)"/>
</clipPath>
<clipPath id="clip1_88_284">
<rect width="24" height="24" fill="white" transform="translate(54 10)"/>
</clipPath>
<clipPath id="clip2_88_284">
<rect width="24" height="24" fill="white" transform="translate(98 10)"/>
</clipPath>
<clipPath id="clip3_88_284">
<rect width="24" height="24" fill="white" transform="translate(142 10)"/>
</clipPath>
<clipPath id="clip4_88_284">
<rect width="24" height="24" fill="white" transform="translate(186 10)"/>
</clipPath>
<clipPath id="clip5_88_284">
<rect width="24" height="24" fill="white" transform="translate(230 10)"/>
</clipPath>
</defs>
</svg>
