<svg width="396" height="44" viewBox="0 0 396 44" fill="none" xmlns="http://www.w3.org/2000/svg">
    <path d="M20.65 29.11V14.89C20.65 13.54 20.08 13 18.64 13H15.01C13.57 13 13 13.54 13 14.89V29.11C13 30.46 13.57 31 15.01 31H18.64C20.08 31 20.65 30.46 20.65 29.11Z" fill="white"/>
    <path d="M31 29.11V14.89C31 13.54 30.43 13 28.99 13H25.36C23.93 13 23.35 13.54 23.35 14.89V29.11C23.35 30.46 23.92 31 25.36 31H28.99C30.43 31 31 30.46 31 29.11Z" fill="white"/>
    <rect x="57" y="13" width="18" height="18" rx="3" fill="white"/>
    <path d="M102 16.1335V27.8681C102 30.2714 104.383 31.7796 106.286 30.578L110.93 27.6474L115.573 24.7045C117.476 23.5029 117.476 20.4987 115.573 19.2971L110.93 16.3542L106.286 13.4237C104.383 12.222 102 13.7179 102 16.1335Z" fill="white"/>
    <path d="M154.5 14.8V10L148.562 16L154.5 22V17.2C158.431 17.2 161.625 20.428 161.625 24.4C161.625 28.372 158.431 31.6 154.5 31.6C150.569 31.6 147.375 28.372 147.375 24.4H145C145 29.704 149.251 34 154.5 34C159.749 34 164 29.704 164 24.4C164 19.096 159.749 14.8 154.5 14.8Z" fill="white"/>
    <path d="M187.815 29.5181C187.449 30.1845 187.931 31 188.691 31L207.309 31C208.069 31 208.551 30.1845 208.185 29.5181L198.876 12.5931C198.496 11.9023 197.504 11.9023 197.124 12.5931L187.815 29.5181Z" fill="#D9DDE3"/>
    <path d="M252.185 14.4819C252.551 13.8155 252.069 13 251.309 13L232.691 13C231.931 13 231.449 13.8155 231.815 14.4819L241.124 31.4069C241.504 32.0977 242.496 32.0977 242.876 31.4069L252.185 14.4819Z" fill="#D9DDE3"/>
    <path d="M293.518 32.1849C294.185 32.5515 295 32.0693 295 31.3087V12.6913C295 11.9307 294.185 11.4485 293.518 11.8151L276.593 21.1238C275.902 21.5037 275.902 22.4963 276.593 22.8762L293.518 32.1849Z" fill="#D9DDE3"/>
    <path d="M322.482 11.8151C321.815 11.4485 321 11.9307 321 12.6913V31.3087C321 32.0693 321.815 32.5515 322.482 32.1849L339.407 22.8762C340.098 22.4963 340.098 21.5037 339.407 21.1238L322.482 11.8151Z" fill="#D9DDE3"/>
    <g clip-path="url(#clip0_103_1468)">
        <path d="M368 33C367.453 33 367 32.649 367 32.2258V17.7742C367 17.351 367.453 17 368 17C368.547 17 369 17.351 369 17.7742V32.2258C369 32.649 368.547 33 368 33Z" fill="#D9DDE3"/>
        <path d="M368 16C367.453 16 367 15.6222 367 15.1667V11.8333C367 11.3778 367.453 11 368 11C368.547 11 369 11.3778 369 11.8333V15.1667C369 15.6222 368.547 16 368 16Z" fill="#D9DDE3"/>
        <path d="M379 33C378.453 33 378 32.6222 378 32.1667V28.8333C378 28.3778 378.453 28 379 28C379.547 28 380 28.3778 380 28.8333V32.1667C380 32.6222 379.547 33 379 33Z" fill="#D9DDE3"/>
        <path d="M379 25C378.453 25 378 24.6474 378 24.2222V11.7778C378 11.3526 378.453 11 379 11C379.547 11 380 11.3526 380 11.7778V24.2222C380 24.6474 379.547 25 379 25Z" fill="#D9DDE3"/>
        <path d="M368.867 20.75H367.133C365.643 20.75 364.75 19.72 364.75 18V17C364.75 15.28 365.643 14.25 367.133 14.25H368.867C370.357 14.25 371.25 15.28 371.25 17V18C371.25 19.72 370.357 20.75 368.867 20.75Z" fill="#D9DDE3"/>
        <path d="M379.867 28.75H378.133C376.643 28.75 375.75 27.72 375.75 26V25C375.75 23.28 376.643 22.25 378.133 22.25H379.867C381.357 22.25 382.25 23.28 382.25 25V26C382.25 27.72 381.357 28.75 379.867 28.75Z" fill="#D9DDE3"/>
    </g>
    <defs>
        <clipPath id="clip0_103_1468">
            <rect width="24" height="24" fill="white" transform="translate(362 10)"/>
        </clipPath>
    </defs>
</svg>
