<svg width="41" height="42" viewBox="0 0 41 42" fill="none" xmlns="http://www.w3.org/2000/svg">
<g clip-path="url(#clip0_1_2)">
<path d="M20 40C31.0457 40 40 31.0457 40 20C40 8.9543 31.0457 0 20 0C8.9543 0 0 8.9543 0 20C0 31.0457 8.9543 40 20 40Z" fill="#3C3D43"/>
<path fill-rule="evenodd" clip-rule="evenodd" d="M20.0001 8.79999C16.8091 8.79999 14.2223 11.3072 14.2223 14.4C14.2223 17.4928 16.8091 20 20.0001 20C23.1911 20 25.7779 17.4928 25.7779 14.4C25.7779 11.3072 23.1911 8.79999 20.0001 8.79999ZM16.5334 14.4C16.5334 12.5443 18.0855 11.04 20.0001 11.04C21.9147 11.04 23.4668 12.5443 23.4668 14.4C23.4668 16.2557 21.9147 17.76 20.0001 17.76C18.0855 17.76 16.5334 16.2557 16.5334 14.4Z" fill="#00F5BF"/>
<path d="M15.3779 22.24C12.1869 22.24 9.6001 24.7472 9.6001 27.84V30.08C9.6001 30.6985 10.1175 31.2 10.7557 31.2C11.3938 31.2 11.9112 30.6985 11.9112 30.08V27.84C11.9112 25.9843 13.4633 24.48 15.3779 24.48H24.6223C26.5369 24.48 28.089 25.9843 28.089 27.84V30.08C28.089 30.6985 28.6063 31.2 29.2445 31.2C29.8827 31.2 30.4001 30.6985 30.4001 30.08V27.84C30.4001 24.7472 27.8133 22.24 24.6223 22.24H15.3779Z" fill="#00F5BF"/>
<mask id="mask0_1_2" style="mask-type:luminance" maskUnits="userSpaceOnUse" x="25" y="26" width="16" height="16">
<path d="M41 26H25V42H41V26Z" fill="white"/>
</mask>
<g mask="url(#mask0_1_2)">
<path fill-rule="evenodd" clip-rule="evenodd" d="M35.2305 41.497C35.0841 41.497 34.9377 41.4749 34.7914 41.4381C34.3592 41.313 33.9967 41.026 33.7667 40.6212L33.6831 40.474C33.2718 39.7234 32.7072 39.7234 32.296 40.474L32.2193 40.6139C31.9893 41.026 31.6269 41.3204 31.1947 41.4381C30.7556 41.5632 30.3025 41.497 29.9191 41.2541L28.7203 40.5255C28.2951 40.268 27.9884 39.8485 27.8559 39.3407C27.7305 38.8329 27.7932 38.3103 28.0372 37.8614C28.2393 37.4861 28.2951 37.1475 28.1766 36.9341C28.0581 36.7207 27.7584 36.5956 27.3471 36.5956C26.3295 36.5956 25.5 35.7198 25.5 34.6453V33.35C25.5 32.2756 26.3295 31.3998 27.3471 31.3998C27.7584 31.3998 28.0581 31.2747 28.1766 31.0613C28.2951 30.8478 28.2463 30.5093 28.0372 30.134C27.7932 29.685 27.7305 29.1551 27.8559 28.6547C27.9814 28.1469 28.2881 27.7274 28.7203 27.4698L29.9261 26.7412C30.7138 26.2481 31.7523 26.5352 32.2263 27.3815L32.3099 27.5287C32.7212 28.2794 33.2858 28.2794 33.697 27.5287L33.7737 27.3889C34.2477 26.5352 35.2862 26.2481 36.0809 26.7486L37.2797 27.4772C37.7049 27.7348 38.0116 28.1543 38.1441 28.6621C38.2695 29.1699 38.2068 29.6924 37.9628 30.1413C37.7607 30.5166 37.7049 30.8552 37.8234 31.0686C37.9419 31.282 38.2416 31.4071 38.6529 31.4071C39.6705 31.4071 40.5 32.2829 40.5 33.3574V34.6527C40.5 35.7272 39.6705 36.6029 38.6529 36.6029C38.2416 36.6029 37.9419 36.7281 37.8234 36.9415C37.7049 37.1549 37.7537 37.4934 37.9628 37.8688C38.2068 38.3177 38.2765 38.8476 38.1441 39.348C38.0186 39.8558 37.7119 40.2753 37.2797 40.5329L36.0739 41.2615C35.809 41.416 35.5232 41.497 35.2305 41.497ZM33 36.5C34.3807 36.5 35.5 35.3807 35.5 34C35.5 32.6193 34.3807 31.5 33 31.5C31.6193 31.5 30.5 32.6193 30.5 34C30.5 35.3807 31.6193 36.5 33 36.5Z" fill="#676977"/>
</g>
</g>
<defs>
<clipPath id="clip0_1_2">
<rect width="41" height="42" fill="white"/>
</clipPath>
</defs>
</svg>
