<svg width="260" height="60" viewBox="0 0 260 60" fill="none" xmlns="http://www.w3.org/2000/svg">
<path fill-rule="evenodd" clip-rule="evenodd" d="M25.5 27.75C25.5 29.0374 25.8604 30.2406 26.4858 31.2642L21 36.75V39H23.25L28.7358 33.5142C29.7594 34.1396 30.9626 34.5 32.25 34.5C35.9779 34.5 39 31.4779 39 27.75C39 24.0221 35.9779 21 32.25 21C28.5221 21 25.5 24.0221 25.5 27.75ZM32.25 23.25C29.7647 23.25 27.75 25.2647 27.75 27.75H29.4375C29.4375 26.1967 30.6967 24.9375 32.25 24.9375V23.25Z" fill="#D9DDE3"/>
<mask id="mask0_9_2" style="mask-type:luminance" maskUnits="userSpaceOnUse" x="60" y="20" width="20" height="20">
<path d="M80 20H60V40H80V20Z" fill="white"/>
</mask>
<g mask="url(#mask0_9_2)">
<path d="M69.1156 21.2046C69.673 20.9298 70.3267 20.9299 70.8842 21.2046L78.8832 25.1489C79.8515 25.6265 80.2661 26.7869 79.8197 27.77L78.43 30.8296C78.1057 31.5439 77.3933 32.0024 76.6088 32.0024H63.391C62.6064 32.0024 61.8941 31.5439 61.5697 30.8296L60.18 27.77C59.7337 26.787 60.1484 25.6265 61.1166 25.1489L69.1156 21.2046ZM70.0004 26.1304C68.6468 26.1304 67.5493 27.1593 67.5492 28.4282C67.5492 29.6973 68.6468 30.7261 70.0004 30.7261C71.3538 30.7259 72.4506 29.6972 72.4506 28.4282C72.4504 27.1594 71.3537 26.1305 70.0004 26.1304Z" fill="#D9DDE3"/>
<path d="M70 40C73.4709 40 76.3517 37.8347 76.9044 34.9942C77.0098 34.452 76.5523 34 76 34H64C63.4477 34 62.9902 34.452 63.0956 34.9942C63.6483 37.8347 66.5291 40 70 40Z" fill="#D9DDE3"/>
</g>
<mask id="mask1_9_2" style="mask-type:luminance" maskUnits="userSpaceOnUse" x="100" y="20" width="20" height="20">
<path d="M120 20H100V40H120V20Z" fill="white"/>
</mask>
<g mask="url(#mask1_9_2)">
<path d="M116.69 29.5298C116.12 29.3798 115.45 29.2998 114.65 29.2998C113.54 29.2998 113.13 29.5698 112.56 29.9998C112.53 30.0198 112.5 30.0498 112.47 30.0798L111.52 31.0898C110.73 31.9398 109.28 31.9398 108.48 31.0898L107.53 30.0898C107.5 30.0498 107.47 30.0198 107.44 29.9998C106.86 29.5698 106.45 29.2998 105.35 29.2998C104.55 29.2998 103.88 29.3698 103.31 29.5298C100.93 30.1698 100.93 32.0598 100.93 33.7198V34.6498C100.93 37.1598 100.93 39.9998 106.28 39.9998H113.72C117.27 39.9998 119.07 38.1998 119.07 34.6498V33.7198C119.07 32.0598 119.07 30.1698 116.69 29.5298Z" fill="#D9DDE3"/>
<path d="M112.79 20H107.21C102.79 20 102.79 22.35 102.79 24.42V28.12C102.83 28.1 102.88 28.09 102.92 28.08C103.62 27.89 104.41 27.8 105.35 27.8C106.89 27.8 107.62 28.25 108.34 28.8C108.44 28.87 108.54 28.96 108.63 29.06L109.57 30.05C109.67 30.16 109.83 30.22 110 30.22C110.17 30.22 110.33 30.16 110.42 30.06L111.38 29.05C111.46 28.97 111.55 28.88 111.65 28.81C112.39 28.25 113.11 27.8 114.65 27.8C115.59 27.8 116.38 27.89 117.08 28.08C117.12 28.09 117.17 28.1 117.21 28.12V24.42C117.21 22.35 117.21 20 112.79 20ZM111.55 26.5H108.45C108.07 26.5 107.75 26.18 107.75 25.8C107.75 25.41 108.07 25.1 108.45 25.1H111.55C111.93 25.1 112.25 25.41 112.25 25.8C112.25 26.18 111.93 26.5 111.55 26.5ZM112.33 23.71H107.67C107.29 23.71 106.98 23.39 106.98 23.01C106.98 22.62 107.29 22.31 107.67 22.31H112.33C112.71 22.31 113.02 22.62 113.02 23.01C113.02 23.39 112.71 23.71 112.33 23.71Z" fill="#D9DDE3"/>
</g>
<path d="M157.15 39C156.467 39 155.871 38.7959 155.363 38.3875C154.854 37.9792 154.533 37.4833 154.4 36.9H149.075C147.975 36.9 147.062 36.5375 146.338 35.8125C145.613 35.0875 145.25 34.175 145.25 33.075C145.25 31.975 145.613 31.0625 146.338 30.3375C147.062 29.6125 147.975 29.25 149.075 29.25H151C151.683 29.25 152.242 29.0333 152.675 28.6C153.108 28.1667 153.325 27.6084 153.325 26.925C153.325 26.2417 153.108 25.6833 152.675 25.25C152.242 24.8166 151.683 24.6 151 24.6H145.6C145.45 25.1833 145.125 25.6791 144.625 26.0875C144.125 26.4958 143.533 26.7 142.85 26.7C142.05 26.7 141.375 26.425 140.825 25.875C140.275 25.325 140 24.65 140 23.85C140 23.05 140.275 22.375 140.825 21.825C141.375 21.275 142.05 21 142.85 21C143.533 21 144.125 21.2042 144.625 21.6125C145.125 22.0208 145.45 22.5167 145.6 23.1H151C152.1 23.1 153.012 23.4625 153.737 24.1875C154.462 24.9125 154.825 25.825 154.825 26.925C154.825 28.025 154.462 28.9375 153.737 29.6625C153.012 30.3875 152.1 30.75 151 30.75H149.075C148.392 30.75 147.833 30.9666 147.4 31.4C146.967 31.8333 146.75 32.3916 146.75 33.075C146.75 33.7583 146.967 34.3167 147.4 34.75C147.833 35.1834 148.392 35.4 149.075 35.4H154.4C154.55 34.8166 154.875 34.3209 155.375 33.9125C155.875 33.5042 156.467 33.3 157.15 33.3C157.95 33.3 158.625 33.575 159.175 34.125C159.725 34.675 160 35.35 160 36.15C160 36.95 159.725 37.625 159.175 38.175C158.625 38.725 157.95 39 157.15 39ZM142.85 25.2C143.233 25.2 143.554 25.0708 143.813 24.8125C144.071 24.5542 144.2 24.2333 144.2 23.85C144.2 23.4666 144.071 23.1458 143.813 22.8875C143.554 22.6292 143.233 22.5 142.85 22.5C142.467 22.5 142.146 22.6292 141.888 22.8875C141.629 23.1458 141.5 23.4666 141.5 23.85C141.5 24.2333 141.629 24.5542 141.888 24.8125C142.146 25.0708 142.467 25.2 142.85 25.2Z" fill="#D9DDE3"/>
<path d="M186.92 23.0772L185.681 21.0094C185.216 20.2486 184.296 19.8195 183.435 20.0731C182.137 20.4632 181.634 21.936 182.282 23.0187L183.56 25.1352C183.706 25.3595 184.006 25.4376 184.228 25.301L186.755 23.7502C186.988 23.6039 187.065 23.3015 186.92 23.0772Z" fill="#D9DDE3"/>
<path d="M197.493 32.1578L194.772 28.4514C193.823 27.164 192.177 26.5592 190.628 26.9786C190.628 26.9689 190.619 26.9689 190.619 26.9591L189.011 24.2964C188.721 23.838 188.121 23.6917 187.666 23.9745L184.306 26.0325C183.842 26.3056 183.696 26.9201 183.977 27.3883L185.575 30.051C185.575 30.051 185.575 30.0608 185.584 30.0608C184.51 31.2605 184.277 33.0064 184.994 34.4597L187.007 38.5952C187.627 39.8729 189.089 40.3606 190.328 39.7169C190.425 39.6681 190.454 39.5511 190.396 39.4535L188.886 36.9371C188.673 36.586 188.779 36.1373 189.128 35.913C189.476 35.7081 189.922 35.8154 190.144 36.1568L191.664 38.6732C191.722 38.761 191.838 38.7903 191.926 38.7415L192.855 38.1758C192.942 38.1173 192.971 38.0002 192.923 37.9125L191.403 35.396C191.199 35.0449 191.306 34.5962 191.645 34.3719C192.003 34.1671 192.448 34.2744 192.661 34.6157L194.181 37.1322C194.24 37.22 194.356 37.2492 194.443 37.2004L195.372 36.6347C195.459 36.5762 195.488 36.4592 195.44 36.3714L193.92 33.855C193.717 33.5038 193.823 33.0552 194.162 32.8308C194.52 32.626 194.966 32.7333 195.179 33.0747L196.708 35.5813C196.766 35.6691 196.883 35.6984 196.97 35.6399C198.093 34.8303 198.344 33.3087 197.493 32.1578Z" fill="#D9DDE3"/>
<mask id="mask2_9_2" style="mask-type:luminance" maskUnits="userSpaceOnUse" x="220" y="20" width="20" height="20">
<path d="M240 20H220V40H240V20Z" fill="white"/>
</mask>
<g mask="url(#mask2_9_2)">
<path d="M239.98 26.7148L239.702 24.0652C239.298 21.1765 237.981 20 235.165 20H224.824C221.998 20 220.691 21.1765 220.278 24.0939L220.019 26.7243C219.922 27.7478 220.201 28.7426 220.807 29.5174C221.537 30.4643 222.662 31 223.911 31C225.122 31 226.285 30.3974 227.015 29.4313C227.669 30.3974 228.784 31 230.024 31C231.263 31 232.349 30.4261 233.013 29.4696C233.753 30.4165 234.896 31 236.088 31C237.366 31 238.52 30.4357 239.24 29.4409C239.817 28.6757 240.077 27.7096 239.98 26.7148Z" fill="#D9DDE3"/>
<path d="M229.327 35.0306C228.002 35.1436 227 36.0818 227 37.1939V39.5743C227 39.8089 227.23 40 227.511 40H232.489C232.77 40 233 39.8089 233 39.5743V37.4979C233.01 35.6822 231.727 34.8221 229.327 35.0306Z" fill="#D9DDE3"/>
<path d="M239 32.6714V35.4082C239 37.9429 236.848 40 234.197 40C233.938 40 233.727 39.798 233.727 39.55V37.3551C233.727 36.1796 233.352 35.2612 232.622 34.6367C231.979 34.0765 231.105 33.801 230.019 33.801C229.779 33.801 229.539 33.8102 229.28 33.8378C227.57 34.0031 226.273 35.3806 226.273 37.0337V39.55C226.273 39.798 226.062 40 225.803 40C223.152 40 221 37.9429 221 35.4082V32.6898C221 32.0469 221.663 31.6153 222.287 31.8265C222.546 31.9092 222.806 31.9735 223.075 32.0102C223.19 32.0286 223.315 32.0469 223.43 32.0469C223.584 32.0653 223.737 32.0745 223.891 32.0745C225.005 32.0745 226.1 31.6796 226.965 31C227.791 31.6796 228.867 32.0745 230 32.0745C231.143 32.0745 232.2 31.698 233.026 31.0184C233.89 31.6888 234.966 32.0745 236.061 32.0745C236.234 32.0745 236.407 32.0653 236.57 32.0469C236.685 32.0378 236.791 32.0286 236.896 32.0102C237.194 31.9735 237.463 31.8908 237.732 31.8082C238.356 31.6061 239 32.0469 239 32.6714Z" fill="#D9DDE3"/>
</g>
</svg>
