<svg width="540" height="60" viewBox="0 0 540 60" fill="none" xmlns="http://www.w3.org/2000/svg">
<path d="M30 30.2782C27.6866 30.2782 25.8209 32.0173 25.8209 34.1739V37.0956C27.0896 37.6521 28.5075 37.9999 30 37.9999C31.4926 37.9999 32.9105 37.6521 34.1791 37.0956V34.1739C34.1791 32.0173 32.3135 30.2782 30 30.2782ZM30 36.5391C28.7314 36.5391 27.6866 35.5652 27.6866 34.3825C27.6866 33.1999 28.7314 32.226 30 32.226C31.2687 32.226 32.3135 33.1999 32.3135 34.3825C32.3135 35.5652 31.2687 36.5391 30 36.5391Z" fill="#D9DDE3"/>
<path d="M20.7462 29.3739C20.7462 32.2261 22.2388 34.7304 24.4776 36.3304V34.1739C24.4776 31.3217 26.9402 29.0261 29.9999 29.0261C33.0596 29.0261 35.5223 31.3217 35.5223 34.1739V36.3304C37.8358 34.7304 39.2537 32.2261 39.2537 29.3739V25.4783H20.7462V29.3739Z" fill="#D9DDE3"/>
<path d="M30 35.6348C30.7419 35.6348 31.3433 35.0742 31.3433 34.3827C31.3433 33.6911 30.7419 33.1305 30 33.1305C29.2581 33.1305 28.6567 33.6911 28.6567 34.3827C28.6567 35.0742 29.2581 35.6348 30 35.6348Z" fill="#D9DDE3"/>
<path d="M40 22H20V24.713H40V22Z" fill="#D9DDE3"/>
<path d="M62 22.1579H61V21H79V22.1579H78H77H63H62Z" stroke="#D9DDE3" stroke-width="2"/>
<rect x="64" y="25" width="12" height="2" fill="#D9DDE3"/>
<rect x="64" y="28" width="12" height="2" fill="#D9DDE3"/>
<rect x="64" y="31" width="12" height="2" fill="#D9DDE3"/>
<rect x="64" y="34" width="12" height="2" fill="#D9DDE3"/>
<rect x="64" y="37" width="12" height="2" fill="#D9DDE3"/>
<path fill-rule="evenodd" clip-rule="evenodd" d="M107.606 21.531C106.587 21.0722 104.855 20.7803 103 21.8932C103 21.6993 103.116 21.2534 103.582 21.0207C103.595 21.014 103.609 21.0069 103.624 20.9994C104.258 20.681 106.273 19.6682 109.398 20.8046H111.144H111.725V22.5496H111.144V23.1313H110.562V23.713H109.399V23.1313H108.817V22.5496H108.235V22.402C106.297 22.4014 104.453 23.0073 103.582 24.2198V24.2197C103.582 24.0258 103.582 23.6383 103.873 23.3474C104.432 22.7875 105.923 21.7772 107.606 21.531ZM108.817 23.713H111.144V25.0749C112.499 25.554 113.47 26.8468 113.47 28.3664V38.6251C113.47 39.3844 112.855 40 112.095 40H107.865C107.106 40 106.49 39.3844 106.49 38.6251V28.3664C106.49 26.8468 107.461 25.554 108.817 25.0749V23.713ZM115.052 30.8564H116.797V31.4381H115.052V30.8564ZM115.343 31.4384L115.052 34.3468H116.797L116.506 31.4384H115.343Z" fill="#D9DDE3"/>
<path d="M111 22C114.301 22 116.227 22.8048 116.868 24.8286C117.602 27.1428 116.034 28.9429 116.034 31" stroke="#D9DDE3"/>
<rect x="141" y="20" width="2.5" height="20" rx="1.25" fill="#D9DDE3"/>
<rect x="144.75" y="22.5" width="1.25" height="15" rx="0.625" fill="#D9DDE3"/>
<path d="M147.886 26.9331C149.795 26.9331 151.705 26.9331 151.807 26.9331C152.216 26.9331 153.239 26.7687 153.239 25.4869C153.239 24.0406 151.057 24.0735 151.057 25.191" stroke="#D9DDE3" stroke-width="1.5" stroke-miterlimit="10" stroke-linecap="round" stroke-linejoin="round"/>
<path d="M147.989 32.4419C149.761 32.4419 151.398 32.4419 151.5 32.4419C151.909 32.4419 152.932 32.6062 152.932 33.8881C152.932 35.3344 150.75 35.3015 150.75 34.1839" stroke="#D9DDE3" stroke-width="1.5" stroke-miterlimit="10" stroke-linecap="round" stroke-linejoin="round"/>
<path d="M147.75 29.7861C149.523 29.7861 157.466 29.7861 157.568 29.7861C157.977 29.7861 159 29.9505 159 31.2324C159 32.6786 156.818 32.6457 156.818 31.5282" stroke="#D9DDE3" stroke-width="1.5" stroke-miterlimit="10" stroke-linecap="round" stroke-linejoin="round"/>
<g clip-path="url(#clip0_7_130)">
<circle cx="187.5" cy="27.5" r="5" stroke="#D9DDE3" stroke-width="5"/>
<rect x="181" y="37" width="12" height="3" rx="1.5" fill="#D9DDE3"/>
<circle cx="198.5" cy="27.5" r="1.5" fill="#D9DDE3"/>
<path d="M199 28C199 28.7097 199 37.2258 192 39" stroke="#D9DDE3"/>
</g>
<g clip-path="url(#clip1_7_130)">
<path d="M223 39C223 37.6329 221 37.0937 221 36C221 34.6329 223 34.5949 223 33C223 31.4051 221 31.3671 221 30C221 28.6329 223 28.3671 223 27C223 25.6329 221 25.1392 221 24C221 22.8608 223 22.5949 223 21" stroke="#D9DDE3" stroke-width="1.5" stroke-linecap="round"/>
<path d="M237 21C237 22.3671 239 22.9063 239 24C239 25.3671 237 25.4051 237 27C237 28.5949 239 28.6329 239 30C239 31.3671 237 31.6329 237 33C237 34.3671 239 34.8608 239 36C239 37.1392 237 37.4051 237 39" stroke="#D9DDE3" stroke-width="1.5" stroke-linecap="round"/>
<path d="M226.722 27.3846L229.053 25.6465C229.314 25.4499 229.633 25.349 229.957 25.3598C230.352 25.3699 230.734 25.5062 231.051 25.7497C231.367 25.9933 231.602 26.3319 231.722 26.7186C231.857 27.1539 231.981 27.4481 232.093 27.6011C232.431 28.0646 232.87 28.4408 233.375 28.6997C233.656 28.8439 233.953 28.9495 234.258 29.0148C234.662 29.1009 235 29.4275 235 29.8402C235 30.2523 234.664 30.5922 234.257 30.5308C233.763 30.4565 233.282 30.3076 232.828 30.088C232.149 29.7592 231.549 29.2798 231.072 28.6845L230.565 31.6373L232.063 32.929L233.44 36.8131C233.573 37.1884 233.381 37.601 233.008 37.7404C232.626 37.8831 232.201 37.685 232.065 37.3007L230.829 33.816L228.364 31.6918C228.162 31.5241 228.007 31.3038 227.916 31.0537C227.825 30.8037 227.8 30.5332 227.846 30.2703L228.216 28.1163L227.723 28.4836L226.611 30.0553C226.373 30.3921 225.904 30.4663 225.573 30.2196C225.254 29.9816 225.183 29.5326 225.413 29.2076L226.71 27.3756L226.722 27.3846ZM231 24.9865C230.615 24.9865 230.245 24.8291 229.972 24.5491C229.699 24.2691 229.546 23.8893 229.546 23.4932C229.546 23.0972 229.699 22.7174 229.972 22.4374C230.245 22.1573 230.615 22 231 22C231.386 22 231.756 22.1573 232.029 22.4374C232.301 22.7174 232.455 23.0972 232.455 23.4932C232.455 23.8893 232.301 24.2691 232.029 24.5491C231.756 24.8291 231.386 24.9865 231 24.9865ZM228.839 34.8276L226.979 37.1034C226.717 37.4233 226.244 37.4648 225.93 37.1952C225.628 36.9351 225.589 36.4818 225.841 36.1732L227.552 34.0803L228.094 32.4526L229.397 33.5726L228.839 34.8276Z" fill="#D9DDE3"/>
</g>
<path d="M277 39V25H263V39" stroke="#D9DDE3" stroke-width="2" stroke-linecap="round" stroke-linejoin="round"/>
<path d="M269.949 21V22.765M266 21.4714L267.017 23M274 21.4713L272.983 22.9998" stroke="#D9DDE3" stroke-width="1.5" stroke-linecap="round" stroke-linejoin="round"/>
<path d="M270 30C270.828 30 271.5 29.3284 271.5 28.5C271.5 27.6716 270.828 27 270 27C269.172 27 268.5 27.6716 268.5 28.5C268.5 29.3284 269.172 30 270 30Z" fill="#D9DDE3"/>
<path d="M267.5 33.1691V36.1548H268.666V40H271.337V36.1548H272.5V33.1691C272.5 32.5942 272.237 32.0429 271.768 31.6361C271.3 31.2294 270.664 31.0006 270.001 31C269.338 31 268.702 31.2285 268.233 31.6353C267.764 32.0421 267.5 32.5938 267.5 33.1691Z" fill="#D9DDE3"/>
<path d="M313.684 29.579C314.149 29.579 314.526 29.202 314.526 28.7369C314.526 28.2718 314.149 27.8948 313.684 27.8948C313.219 27.8948 312.842 28.2718 312.842 28.7369C312.842 29.202 313.219 29.579 313.684 29.579Z" fill="#D9DDE3"/>
<path d="M310 29.579C310.465 29.579 310.842 29.202 310.842 28.7369C310.842 28.2718 310.465 27.8948 310 27.8948C309.535 27.8948 309.158 28.2718 309.158 28.7369C309.158 29.202 309.535 29.579 310 29.579Z" fill="#D9DDE3"/>
<path d="M306.316 29.579C306.781 29.579 307.158 29.202 307.158 28.7369C307.158 28.2718 306.781 27.8948 306.316 27.8948C305.851 27.8948 305.474 28.2718 305.474 28.7369C305.474 29.202 305.851 29.579 306.316 29.579Z" fill="#D9DDE3"/>
<path d="M312.368 31.3954V33.316H312.982V35.7895H314.388V33.316H315V31.3954C315 31.0255 314.861 30.6708 314.615 30.4092C314.368 30.1476 314.034 30.0004 313.685 30C313.336 30 313.001 30.147 312.754 30.4087C312.507 30.6704 312.368 31.0253 312.368 31.3954Z" fill="#D9DDE3"/>
<path d="M308.684 31.3954V33.316H309.298V35.7895H310.704V33.316H311.316V31.3954C311.316 31.0255 311.177 30.6708 310.931 30.4092C310.684 30.1476 310.35 30.0004 310.001 30C309.652 30 309.317 30.147 309.07 30.4087C308.823 30.6704 308.684 31.0253 308.684 31.3954Z" fill="#D9DDE3"/>
<path d="M305 31.3954V33.316H305.614V35.7895H307.019V33.316H307.632V31.3954C307.632 31.0255 307.493 30.6708 307.246 30.4092C307 30.1476 306.665 30.0004 306.316 30C305.967 30 305.632 30.147 305.386 30.4087C305.139 30.6704 305 31.0253 305 31.3954Z" fill="#D9DDE3"/>
<path d="M312.999 24L311 27H315L312.999 24Z" fill="#D9DDE3"/>
<path d="M310 24H305L307.501 27L310 24Z" fill="#D9DDE3"/>
<rect x="302.105" y="21.579" width="15.7895" height="16.3158" rx="2" stroke="#D9DDE3" stroke-width="2"/>
<path fill-rule="evenodd" clip-rule="evenodd" d="M345.5 27.75C345.5 29.0374 345.86 30.2406 346.486 31.2642L341 36.75V39H343.25L348.736 33.5142C349.759 34.1396 350.963 34.5 352.25 34.5C355.978 34.5 359 31.4779 359 27.75C359 24.0221 355.978 21 352.25 21C348.522 21 345.5 24.0221 345.5 27.75ZM352.25 23.25C349.765 23.25 347.75 25.2647 347.75 27.75H349.438C349.438 26.1967 350.697 24.9375 352.25 24.9375V23.25Z" fill="#D9DDE3"/>
<g clip-path="url(#clip2_7_130)">
<path fill-rule="evenodd" clip-rule="evenodd" d="M381.57 29.8295L380.18 26.7694C379.734 25.7862 380.149 24.6262 381.117 24.1487L389.116 20.2049C389.673 19.9299 390.327 19.9299 390.884 20.2049L398.883 24.1487C399.851 24.6262 400.266 25.7862 399.82 26.7694L398.43 29.8295C398.106 30.5439 397.394 31.0026 396.609 31.0026H383.391C382.606 31.0026 381.894 30.5439 381.57 29.8295ZM390 29.7261C391.354 29.7261 392.451 28.6973 392.451 27.4283C392.451 26.1592 391.354 25.1305 390 25.1305C388.646 25.1305 387.549 26.1592 387.549 27.4283C387.549 28.6973 388.646 29.7261 390 29.7261Z" fill="#D9DDE3"/>
<path d="M390 39C393.471 39 396.352 36.8347 396.904 33.9942C397.01 33.452 396.552 33 396 33H384C383.448 33 382.99 33.452 383.096 33.9942C383.648 36.8347 386.529 39 390 39Z" fill="#D9DDE3"/>
</g>
<g clip-path="url(#clip3_7_130)">
<path d="M436.69 29.53C436.12 29.38 435.45 29.3 434.65 29.3C433.54 29.3 433.13 29.57 432.56 30C432.53 30.02 432.5 30.05 432.47 30.08L431.52 31.09C430.73 31.94 429.28 31.94 428.48 31.09L427.53 30.09C427.5 30.05 427.47 30.02 427.44 30C426.86 29.57 426.45 29.3 425.35 29.3C424.55 29.3 423.88 29.37 423.31 29.53C420.93 30.17 420.93 32.06 420.93 33.72V34.65C420.93 37.16 420.93 40 426.28 40H433.72C437.27 40 439.07 38.2 439.07 34.65V33.72C439.07 32.06 439.07 30.17 436.69 29.53Z" fill="#D9DDE3"/>
<path d="M432.79 20H427.21C422.79 20 422.79 22.35 422.79 24.42V28.12C422.83 28.1 422.88 28.09 422.92 28.08C423.62 27.89 424.41 27.8 425.35 27.8C426.89 27.8 427.62 28.25 428.34 28.8C428.44 28.87 428.54 28.96 428.63 29.06L429.57 30.05C429.67 30.16 429.83 30.22 430 30.22C430.17 30.22 430.33 30.16 430.42 30.06L431.38 29.05C431.46 28.97 431.55 28.88 431.65 28.81C432.39 28.25 433.11 27.8 434.65 27.8C435.59 27.8 436.38 27.89 437.08 28.08C437.12 28.09 437.17 28.1 437.21 28.12V24.42C437.21 22.35 437.21 20 432.79 20ZM431.55 26.5H428.45C428.07 26.5 427.75 26.18 427.75 25.8C427.75 25.41 428.07 25.1 428.45 25.1H431.55C431.93 25.1 432.25 25.41 432.25 25.8C432.25 26.18 431.93 26.5 431.55 26.5ZM432.33 23.71H427.67C427.29 23.71 426.98 23.39 426.98 23.01C426.98 22.62 427.29 22.31 427.67 22.31H432.33C432.71 22.31 433.02 22.62 433.02 23.01C433.02 23.39 432.71 23.71 432.33 23.71Z" fill="#D9DDE3"/>
</g>
<g clip-path="url(#clip4_7_130)">
<path d="M477.15 39C476.467 39 475.871 38.7959 475.363 38.3875C474.854 37.9792 474.533 37.4833 474.4 36.9H469.075C467.975 36.9 467.062 36.5375 466.338 35.8125C465.613 35.0875 465.25 34.175 465.25 33.075C465.25 31.975 465.613 31.0625 466.338 30.3375C467.062 29.6125 467.975 29.25 469.075 29.25H471C471.683 29.25 472.242 29.0333 472.675 28.6C473.108 28.1667 473.325 27.6084 473.325 26.925C473.325 26.2417 473.108 25.6833 472.675 25.25C472.242 24.8166 471.683 24.6 471 24.6H465.6C465.45 25.1833 465.125 25.6791 464.625 26.0875C464.125 26.4958 463.533 26.7 462.85 26.7C462.05 26.7 461.375 26.425 460.825 25.875C460.275 25.325 460 24.65 460 23.85C460 23.05 460.275 22.375 460.825 21.825C461.375 21.275 462.05 21 462.85 21C463.533 21 464.125 21.2042 464.625 21.6125C465.125 22.0208 465.45 22.5167 465.6 23.1H471C472.1 23.1 473.012 23.4625 473.737 24.1875C474.462 24.9125 474.825 25.825 474.825 26.925C474.825 28.025 474.462 28.9375 473.737 29.6625C473.012 30.3875 472.1 30.75 471 30.75H469.075C468.392 30.75 467.833 30.9666 467.4 31.4C466.967 31.8333 466.75 32.3916 466.75 33.075C466.75 33.7583 466.967 34.3167 467.4 34.75C467.833 35.1834 468.392 35.4 469.075 35.4H474.4C474.55 34.8166 474.875 34.3209 475.375 33.9125C475.875 33.5042 476.467 33.3 477.15 33.3C477.95 33.3 478.625 33.575 479.175 34.125C479.725 34.675 480 35.35 480 36.15C480 36.95 479.725 37.625 479.175 38.175C478.625 38.725 477.95 39 477.15 39ZM462.85 25.2C463.233 25.2 463.554 25.0708 463.813 24.8125C464.071 24.5542 464.2 24.2333 464.2 23.85C464.2 23.4666 464.071 23.1458 463.813 22.8875C463.554 22.6292 463.233 22.5 462.85 22.5C462.467 22.5 462.146 22.6292 461.888 22.8875C461.629 23.1458 461.5 23.4666 461.5 23.85C461.5 24.2333 461.629 24.5542 461.888 24.8125C462.146 25.0708 462.467 25.2 462.85 25.2Z" fill="#D9DDE3"/>
</g>
<path d="M506.92 23.0772L505.681 21.0094C505.216 20.2486 504.296 19.8195 503.435 20.0731C502.137 20.4632 501.634 21.936 502.282 23.0187L503.56 25.1352C503.706 25.3595 504.006 25.4376 504.228 25.301L506.755 23.7502C506.988 23.6039 507.065 23.3015 506.92 23.0772Z" fill="#D9DDE3"/>
<path d="M517.493 32.1578L514.772 28.4514C513.823 27.164 512.177 26.5592 510.628 26.9786C510.628 26.9689 510.619 26.9689 510.619 26.9591L509.011 24.2964C508.721 23.838 508.121 23.6917 507.666 23.9745L504.306 26.0325C503.842 26.3056 503.696 26.9201 503.977 27.3883L505.575 30.051C505.575 30.051 505.575 30.0608 505.584 30.0608C504.51 31.2605 504.277 33.0064 504.994 34.4597L507.007 38.5952C507.627 39.8729 509.089 40.3606 510.328 39.7169C510.425 39.6681 510.454 39.5511 510.396 39.4535L508.886 36.9371C508.673 36.586 508.779 36.1373 509.128 35.913C509.476 35.7081 509.922 35.8154 510.144 36.1568L511.664 38.6732C511.722 38.761 511.838 38.7903 511.926 38.7415L512.855 38.1758C512.942 38.1173 512.971 38.0002 512.923 37.9125L511.403 35.396C511.199 35.0449 511.306 34.5962 511.645 34.3719C512.003 34.1671 512.448 34.2744 512.661 34.6157L514.181 37.1322C514.24 37.22 514.356 37.2492 514.443 37.2004L515.372 36.6347C515.459 36.5762 515.488 36.4592 515.44 36.3714L513.92 33.855C513.717 33.5038 513.823 33.0552 514.162 32.8308C514.52 32.626 514.966 32.7333 515.179 33.0747L516.708 35.5813C516.766 35.6691 516.883 35.6984 516.97 35.6399C518.093 34.8303 518.344 33.3087 517.493 32.1578Z" fill="#D9DDE3"/>
<defs>
<clipPath id="clip0_7_130">
<rect width="20" height="20" fill="white" transform="translate(180 20)"/>
</clipPath>
<clipPath id="clip1_7_130">
<rect width="20" height="20" fill="white" transform="translate(220 20)"/>
</clipPath>
<clipPath id="clip2_7_130">
<rect width="20" height="20" fill="white" transform="translate(380 20)"/>
</clipPath>
<clipPath id="clip3_7_130">
<rect width="20" height="20" fill="white" transform="translate(420 20)"/>
</clipPath>
<clipPath id="clip4_7_130">
<rect width="20" height="20" fill="white" transform="translate(460 20)"/>
</clipPath>
</defs>
</svg>
