<svg width="320" height="80" viewBox="0 0 320 80" fill="none" xmlns="http://www.w3.org/2000/svg">
<path d="M19.1197 14.6337C19.4973 13.9328 20.5027 13.9328 20.8803 14.6337L25.2677 22.7756C25.6267 23.4419 25.1442 24.25 24.3874 24.25H15.6126C14.8558 24.25 14.3733 23.4419 14.7323 22.7756L19.1197 14.6337Z" fill="#D9D9D9"/>
<path d="M63.7786 15.4824C64.5413 15.2539 65.2521 15.9648 65.0236 16.7274L62.3687 25.587C62.1515 26.3119 61.2389 26.5422 60.7037 26.007L54.499 19.8024C53.9639 19.2672 54.1941 18.3546 54.9191 18.1373L63.7786 15.4824Z" fill="#D9D9D9"/>
<path d="M105.366 19.1197C106.067 19.4973 106.067 20.5027 105.366 20.8803L97.2244 25.2677C96.5581 25.6267 95.75 25.1442 95.75 24.3874V15.6126C95.75 14.8558 96.5581 14.3733 97.2244 14.7323L105.366 19.1197Z" fill="#D9D9D9"/>
<path d="M145.024 23.7785C145.252 24.5411 144.541 25.252 143.779 25.0235L134.919 22.3686C134.194 22.1514 133.964 21.2387 134.499 20.7036L140.704 14.4989C141.239 13.9638 142.152 14.194 142.369 14.919L145.024 23.7785Z" fill="#D9D9D9"/>
<path d="M180.88 26.3663C180.503 27.0672 179.497 27.0672 179.12 26.3663L174.732 18.2244C174.373 17.5581 174.856 16.75 175.613 16.75H184.387C185.144 16.75 185.627 17.5581 185.268 18.2244L180.88 26.3663Z" fill="#D9D9D9"/>
<path d="M216.727 25.0234C215.965 25.2519 215.254 24.5411 215.482 23.7784L218.137 14.9189C218.354 14.1939 219.267 13.9637 219.802 14.4988L226.007 20.7035C226.542 21.2386 226.312 22.1513 225.587 22.3685L216.727 25.0234Z" fill="#D9D9D9"/>
<path d="M253.634 20.8803C252.933 20.5027 252.933 19.4973 253.634 19.1197L261.776 14.7323C262.442 14.3733 263.25 14.8558 263.25 15.6126V24.3874C263.25 25.1442 262.442 25.6267 261.776 25.2677L253.634 20.8803Z" fill="#D9D9D9"/>
<path d="M295.482 16.7273C295.254 15.9647 295.965 15.2538 296.727 15.4824L305.587 18.1373C306.312 18.3545 306.542 19.2671 306.007 19.8023L299.802 26.007C299.267 26.5421 298.355 26.3119 298.137 25.5869L295.482 16.7273Z" fill="#D9D9D9"/>
<path d="M60 54.167H60C59.5398 54.167 59.1667 54.5401 59.1667 55.0003V65.0004C59.1667 65.4606 59.5398 65.8337 60 65.8337H60C60.4603 65.8337 60.8334 65.4606 60.8334 65.0004V55.0003C60.8334 54.5401 60.4603 54.167 60 54.167Z" fill="#D9DDE3"/>
<path d="M64.9997 60.8337C65.4599 60.8337 65.833 60.4606 65.833 60.0003C65.833 59.5401 65.4599 59.167 64.9997 59.167H54.9996C54.5394 59.167 54.1663 59.5401 54.1663 60.0003C54.1663 60.4606 54.5394 60.8337 54.9996 60.8337H64.9997Z" fill="#D9DDE3"/>
<path d="M70 60C70 65.5228 65.523 70 60 70C54.4772 70 50 65.5228 50 60C50 54.4772 54.4772 50 60 50C65.523 50 70 54.4772 70 60ZM51.5 60C51.5 64.6944 55.3056 68.5 60 68.5C64.694 68.5 68.5 64.6944 68.5 60C68.5 55.3056 64.694 51.5 60 51.5C55.3056 51.5 51.5 55.3056 51.5 60Z" fill="#D9DDE3"/>
<path d="M24.9997 60.8337C25.4599 60.8337 25.833 60.4606 25.833 60.0003C25.833 59.5401 25.4599 59.167 24.9997 59.167H14.9996C14.5394 59.167 14.1663 59.5401 14.1663 60.0003C14.1663 60.4606 14.5394 60.8337 14.9996 60.8337H24.9997Z" fill="#D9DDE3"/>
<path d="M30 60C30 65.5228 25.523 70 20 70C14.477 70 10 65.5228 10 60C10 54.4772 14.477 50 20 50C25.523 50 30 54.4772 30 60ZM11.5 60C11.5 64.6944 15.306 68.5 20 68.5C24.694 68.5 28.5 64.6944 28.5 60C28.5 55.3056 24.694 51.5 20 51.5C15.306 51.5 11.5 55.3056 11.5 60Z" fill="#D9DDE3"/>
</svg>
