<svg width="320" height="80" viewBox="0 0 320 80" fill="none" xmlns="http://www.w3.org/2000/svg">
<path d="M19.1197 14.6337C19.4973 13.9328 20.5027 13.9328 20.8803 14.6337L25.2677 22.7756C25.6267 23.4419 25.1442 24.25 24.3874 24.25H15.6126C14.8558 24.25 14.3733 23.4419 14.7323 22.7756L19.1197 14.6337Z" fill="#D9D9D9"/>
<path d="M63.7786 15.4824C64.5413 15.2539 65.2521 15.9648 65.0236 16.7274L62.3687 25.587C62.1515 26.3119 61.2389 26.5422 60.7037 26.007L54.499 19.8024C53.9639 19.2672 54.1941 18.3546 54.9191 18.1373L63.7786 15.4824Z" fill="#D9D9D9"/>
<path d="M105.366 19.1197C106.067 19.4973 106.067 20.5027 105.366 20.8803L97.2244 25.2677C96.5581 25.6267 95.75 25.1442 95.75 24.3874V15.6126C95.75 14.8558 96.5581 14.3733 97.2244 14.7323L105.366 19.1197Z" fill="#D9D9D9"/>
<path d="M145.024 23.7785C145.252 24.5411 144.541 25.252 143.779 25.0235L134.919 22.3686C134.194 22.1514 133.964 21.2387 134.499 20.7036L140.704 14.4989C141.239 13.9638 142.152 14.194 142.369 14.919L145.024 23.7785Z" fill="#D9D9D9"/>
<path d="M180.88 26.3663C180.503 27.0672 179.497 27.0672 179.12 26.3663L174.732 18.2244C174.373 17.5581 174.856 16.75 175.613 16.75H184.387C185.144 16.75 185.627 17.5581 185.268 18.2244L180.88 26.3663Z" fill="#D9D9D9"/>
<path d="M216.727 25.0234C215.965 25.2519 215.254 24.5411 215.482 23.7784L218.137 14.9189C218.354 14.1939 219.267 13.9637 219.802 14.4988L226.007 20.7035C226.542 21.2386 226.312 22.1513 225.587 22.3685L216.727 25.0234Z" fill="#D9D9D9"/>
<path d="M253.634 20.8803C252.933 20.5027 252.933 19.4973 253.634 19.1197L261.776 14.7323C262.442 14.3733 263.25 14.8558 263.25 15.6126V24.3874C263.25 25.1442 262.442 25.6267 261.776 25.2677L253.634 20.8803Z" fill="#D9D9D9"/>
<path d="M295.482 16.7273C295.254 15.9647 295.965 15.2538 296.727 15.4824L305.587 18.1373C306.312 18.3545 306.542 19.2671 306.007 19.8023L299.802 26.007C299.267 26.5421 298.355 26.3119 298.137 25.5869L295.482 16.7273Z" fill="#D9D9D9"/>
<path d="M10 50H15V52H10L10 50Z" fill="#D9D9D9"/>
<path d="M12 50L12 55H10L10 50L12 50Z" fill="#D9D9D9"/>
<path d="M30 70H25V68H30L30 70Z" fill="#D9D9D9"/>
<path d="M28 70L28 65H30L30 70L28 70Z" fill="#D9D9D9"/>
<path d="M30 50H25V52H30L30 50Z" fill="#D9D9D9"/>
<path d="M28 50L28 55H30L30 50L28 50Z" fill="#D9D9D9"/>
<path d="M10 70H15V68H10L10 70Z" fill="#D9D9D9"/>
<path d="M12 70L12 65H10L10 70L12 70Z" fill="#D9D9D9"/>
<rect x="20" y="57.5" width="3.33333" height="3.33333" transform="rotate(45 20 57.5)" fill="#D9D9D9"/>
<rect x="60" y="52.5" width="3.33333" height="3.33333" transform="rotate(45 60 52.5)" fill="#D9D9D9"/>
<rect x="60" y="62.7832" width="3.33333" height="3.33333" transform="rotate(45 60 62.7832)" fill="#D9D9D9"/>
<rect x="54.8571" y="57.5" width="3.33333" height="3.33333" transform="rotate(45 54.8571 57.5)" fill="#D9D9D9"/>
<rect x="65.1417" y="57.5" width="3.33333" height="3.33333" transform="rotate(45 65.1417 57.5)" fill="#D9D9D9"/>
<path d="M50 50H55V52H50L50 50Z" fill="#D9D9D9"/>
<path d="M52 50L52 55H50L50 50L52 50Z" fill="#D9D9D9"/>
<path d="M70 70H65V68H70L70 70Z" fill="#D9D9D9"/>
<path d="M68 70L68 65H70L70 70L68 70Z" fill="#D9D9D9"/>
<path d="M70 50H65V52H70L70 50Z" fill="#D9D9D9"/>
<path d="M68 50L68 55H70L70 50L68 50Z" fill="#D9D9D9"/>
<path d="M50 70H55V68H50L50 70Z" fill="#D9D9D9"/>
<path d="M52 70L52 65H50L50 70L52 70Z" fill="#D9D9D9"/>
<rect x="99.1667" y="54.167" width="1.66667" height="11.6667" rx="0.833333" fill="#D9DDE3"/>
<rect x="105.833" y="59.167" width="1.66667" height="11.6667" rx="0.833334" transform="rotate(90 105.833 59.167)" fill="#D9DDE3"/>
<path d="M110 60C110 65.5228 105.523 70 100 70C94.4772 70 90 65.5228 90 60C90 54.4772 94.4772 50 100 50C105.523 50 110 54.4772 110 60ZM91.5 60C91.5 64.6944 95.3056 68.5 100 68.5C104.694 68.5 108.5 64.6944 108.5 60C108.5 55.3056 104.694 51.5 100 51.5C95.3056 51.5 91.5 55.3056 91.5 60Z" fill="#D9DDE3"/>
<rect x="145.833" y="59.167" width="1.66667" height="11.6667" rx="0.833334" transform="rotate(90 145.833 59.167)" fill="#D9DDE3"/>
<path d="M150 60C150 65.5228 145.523 70 140 70C134.477 70 130 65.5228 130 60C130 54.4772 134.477 50 140 50C145.523 50 150 54.4772 150 60ZM131.5 60C131.5 64.6944 135.306 68.5 140 68.5C144.694 68.5 148.5 64.6944 148.5 60C148.5 55.3056 144.694 51.5 140 51.5C135.306 51.5 131.5 55.3056 131.5 60Z" fill="#D9DDE3"/>
<g clip-path="url(#clip0_2052_5290)">
<path d="M187.071 52.9333C181.628 47.4933 172.333 49.9823 170.341 57.4134C169.416 60.8622 170.403 64.542 172.929 67.0667C178.372 72.5067 187.667 70.0177 189.659 62.5866C190.584 59.1378 189.597 55.458 187.071 52.9333ZM185.983 54.0211C186.378 54.4169 186.732 54.8508 187.041 55.3164L183.803 59.1352L181.118 51.6187C182.961 51.8593 184.672 52.7042 185.983 54.0211ZM182.653 60.4805L180.907 62.534L178.254 62.0535L177.347 59.5195L179.093 57.466L181.746 57.9465L182.653 60.4805ZM174.017 54.0211C175.469 52.5613 177.408 51.6862 179.464 51.562L181.148 56.2706L173.298 54.8417C173.52 54.553 173.76 54.2789 174.017 54.0211ZM172.178 63.223C171.255 60.9695 171.343 58.4284 172.421 56.2447L177.345 57.1431L172.178 63.223ZM174.017 65.9789C173.622 65.5831 173.268 65.1492 172.959 64.6836L176.197 60.8648L178.882 68.3774C177.039 68.1379 175.328 67.2943 174.017 65.9789ZM185.983 65.9789C184.531 67.4387 182.592 68.3138 180.536 68.438L178.852 63.7294L186.702 65.1621C186.48 65.4495 186.24 65.7224 185.983 65.9789ZM182.655 62.8569L187.822 56.777C188.745 59.0305 188.657 61.5716 187.579 63.7553L182.655 62.8569Z" fill="#D9DDE3"/>
</g>
<g clip-path="url(#clip1_2052_5290)">
<path fill-rule="evenodd" clip-rule="evenodd" d="M210.341 57.4134C212.333 49.9823 221.628 47.4933 227.071 52.9333C229.597 55.458 230.584 59.1378 229.659 62.5866C227.667 70.0177 218.372 72.5067 212.929 67.0667C210.403 64.542 209.416 60.8622 210.341 57.4134ZM227.041 55.3164C226.732 54.8508 226.378 54.4169 225.983 54.0211C224.672 52.7042 222.961 51.8593 221.118 51.6187L222.471 55.4056L220.839 55.406L219.464 51.562C217.408 51.6862 215.469 52.5613 214.017 54.0211C213.76 54.2789 213.52 54.553 213.298 54.8417L217.3 55.5702L216.532 56.9948L212.421 56.2447C211.343 58.4284 211.255 60.9695 212.178 63.223L214.913 60.0053L215.721 61.4265L212.959 64.6836C213.268 65.1492 213.622 65.5831 214.017 65.9789C215.328 67.2943 217.039 68.1379 218.882 68.3774L217.53 64.5952L219.161 64.5948L220.536 68.438C222.592 68.3138 224.531 67.4387 225.983 65.9789C226.24 65.7224 226.48 65.4495 226.702 65.1621L222.699 64.4316L223.468 63.0053L227.579 63.7553C228.657 61.5716 228.745 59.0305 227.822 56.777L225.087 59.9951L224.279 58.5738L227.041 55.3164Z" fill="#D9DDE3"/>
<path d="M223.267 63.9607L218.204 64.809L214.937 60.8481L216.734 56.0387L221.797 55.1904L225.064 59.1513L223.267 63.9607Z" stroke="#D9DDE3" stroke-width="1.5"/>
</g>
<defs>
<clipPath id="clip0_2052_5290">
<rect width="20" height="20" fill="white" transform="translate(170 50)"/>
</clipPath>
<clipPath id="clip1_2052_5290">
<rect width="20" height="20" fill="white" transform="translate(210 50)"/>
</clipPath>
</defs>
</svg>
