<svg width="48" height="48" viewBox="0 0 48 48" fill="none" xmlns="http://www.w3.org/2000/svg">
<path d="M41 43H7V17.3143V12H41V43Z" fill="white" stroke="#0D0D0D" stroke-width="1.5" stroke-miterlimit="10" stroke-linecap="round" stroke-linejoin="round"/>
<path d="M41 8H7V12.9714V14H41V8Z" fill="url(#paint0_linear_312_3138)" stroke="black" stroke-width="1.5" stroke-miterlimit="10" stroke-linecap="round" stroke-linejoin="round"/>
<path d="M22 10H19V5.85714V5H22V10Z" fill="white" stroke="#0D0D0D" stroke-width="1.5" stroke-miterlimit="10" stroke-linecap="round" stroke-linejoin="round"/>
<path d="M36 10H33V5.85714V5H36V10Z" fill="white" stroke="#0D0D0D" stroke-width="1.5" stroke-miterlimit="10" stroke-linecap="round" stroke-linejoin="round"/>
<path d="M29 10H26V5.85714V5H29V10Z" fill="white" stroke="#0D0D0D" stroke-width="1.5" stroke-miterlimit="10" stroke-linecap="round" stroke-linejoin="round"/>
<path d="M15 10H12V5.85714V5H15V10Z" fill="white" stroke="#0D0D0D" stroke-width="1.5" stroke-miterlimit="10" stroke-linecap="round" stroke-linejoin="round"/>
<path d="M21.8659 29L14.5107 21.5768C13.9771 21.0576 13.9771 20.0192 14.5107 19.5C15.0443 18.9808 16.1115 18.9808 16.6452 19.5L24.0003 26.9232" fill="white"/>
<path d="M21.8659 29L14.5107 21.5768C13.9771 21.0576 13.9771 20.0192 14.5107 19.5C15.0443 18.9808 16.1115 18.9808 16.6452 19.5L24.0003 26.9232" stroke="black" stroke-width="1.5" stroke-miterlimit="10" stroke-linecap="round" stroke-linejoin="round"/>
<path d="M26.2889 28L31.2889 33C32.1778 33.8889 32.1778 35.4 31.2889 36.2889C30.4 37.1778 28.8889 37.1778 28 36.2889L23 31.2889" fill="url(#paint1_linear_312_3138)"/>
<path d="M26.2889 28L31.2889 33C32.1778 33.8889 32.1778 35.4 31.2889 36.2889C30.4 37.1778 28.8889 37.1778 28 36.2889L23 31.2889" stroke="black" stroke-width="1.5" stroke-miterlimit="10" stroke-linecap="round" stroke-linejoin="round"/>
<path fill-rule="evenodd" clip-rule="evenodd" d="M29.8905 19.1823C29.3275 18.8798 28.6838 18.7083 28 18.7083C25.7909 18.7083 24 20.4991 24 22.7083C24 22.9282 24.0178 23.144 24.0519 23.3543L16.3315 31.0748C14.9964 31.3786 14 32.5729 14 34C14 35.6569 15.3431 37 17 37C18.5688 37 19.8564 35.7958 19.9888 34.2612L27.5651 26.6849C27.708 26.7003 27.8531 26.7083 28 26.7083C30.2091 26.7083 32 24.9174 32 22.7083C32 22.1177 31.872 21.5571 31.6423 21.0525L29.5402 23.1547L27.7291 21.3436L29.8905 19.1823Z" fill="url(#paint2_linear_312_3138)"/>
<path d="M29.8905 19.1823L30.4208 19.7126C30.5885 19.5449 30.667 19.3077 30.6325 19.073C30.5979 18.8384 30.4544 18.6339 30.2454 18.5216L29.8905 19.1823ZM24.0519 23.3543L24.5822 23.8847C24.7527 23.7142 24.8309 23.4721 24.7922 23.2341L24.0519 23.3543ZM16.3315 31.0748L16.4979 31.8061C16.6357 31.7747 16.7619 31.705 16.8618 31.6051L16.3315 31.0748ZM19.9888 34.2612L19.4585 33.7309C19.3335 33.8558 19.2567 34.0208 19.2416 34.1968L19.9888 34.2612ZM27.5651 26.6849L27.6457 25.9392C27.42 25.9148 27.1953 25.994 27.0348 26.1546L27.5651 26.6849ZM31.6423 21.0525L32.3249 20.7417C32.223 20.5179 32.0179 20.3583 31.7759 20.3145C31.5339 20.2707 31.2859 20.3483 31.112 20.5222L31.6423 21.0525ZM29.5402 23.1547L29.0098 23.685C29.1505 23.8256 29.3413 23.9047 29.5402 23.9047C29.7391 23.9047 29.9298 23.8256 30.0705 23.685L29.5402 23.1547ZM27.7291 21.3436L27.1988 20.8133C26.9059 21.1062 26.9059 21.5811 27.1988 21.874L27.7291 21.3436ZM30.2454 18.5216C29.5761 18.162 28.8107 17.9583 28 17.9583V19.4583C28.5569 19.4583 29.079 19.5977 29.5355 19.843L30.2454 18.5216ZM28 17.9583C25.3766 17.9583 23.25 20.0849 23.25 22.7083H24.75C24.75 20.9133 26.2051 19.4583 28 19.4583V17.9583ZM23.25 22.7083C23.25 22.9686 23.271 23.2247 23.3116 23.4746L24.7922 23.2341C24.7645 23.0634 24.75 22.8878 24.75 22.7083H23.25ZM23.5216 22.824L15.8012 30.5444L16.8618 31.6051L24.5822 23.8847L23.5216 22.824ZM16.1651 30.3435C14.4961 30.7233 13.25 32.2152 13.25 34H14.75C14.75 32.9306 15.4967 32.0339 16.4979 31.8061L16.1651 30.3435ZM13.25 34C13.25 36.0711 14.9289 37.75 17 37.75V36.25C15.7574 36.25 14.75 35.2426 14.75 34H13.25ZM17 37.75C18.9614 37.75 20.5705 36.2446 20.736 34.3257L19.2416 34.1968C19.1424 35.3469 18.1762 36.25 17 36.25V37.75ZM20.5191 34.7915L28.0954 27.2152L27.0348 26.1546L19.4585 33.7309L20.5191 34.7915ZM27.4845 27.4305C27.6541 27.4489 27.8261 27.4583 28 27.4583V25.9583C27.88 25.9583 27.7619 25.9518 27.6457 25.9392L27.4845 27.4305ZM28 27.4583C30.6234 27.4583 32.75 25.3316 32.75 22.7083H31.25C31.25 24.5032 29.7949 25.9583 28 25.9583V27.4583ZM32.75 22.7083C32.75 22.0084 32.5981 21.3419 32.3249 20.7417L30.9597 21.3633C31.1459 21.7722 31.25 22.2271 31.25 22.7083H32.75ZM31.112 20.5222L29.0098 22.6243L30.0705 23.685L32.1726 21.5829L31.112 20.5222ZM30.0705 22.6243L28.2595 20.8133L27.1988 21.874L29.0098 23.685L30.0705 22.6243ZM28.2595 21.874L30.4208 19.7126L29.3601 18.652L27.1988 20.8133L28.2595 21.874Z" fill="black"/>
<circle cx="17" cy="34" r="1" fill="black"/>
<defs>
<linearGradient id="paint0_linear_312_3138" x1="7.11605" y1="10.9678" x2="41.3207" y2="10.9678" gradientUnits="userSpaceOnUse">
<stop stop-color="#09E464"/>
<stop offset="0.9978" stop-color="#4A7EAA"/>
<stop offset="1" stop-color="#0F9355"/>
</linearGradient>
<linearGradient id="paint1_linear_312_3138" x1="23.0341" y1="33.0537" x2="33.0943" y2="33.0537" gradientUnits="userSpaceOnUse">
<stop stop-color="#09E464"/>
<stop offset="0.9978" stop-color="#4A7EAA"/>
<stop offset="1" stop-color="#0F9355"/>
</linearGradient>
<linearGradient id="paint2_linear_312_3138" x1="14.0614" y1="27.9523" x2="32.1698" y2="27.9523" gradientUnits="userSpaceOnUse">
<stop stop-color="#09E464"/>
<stop offset="0.9978" stop-color="#4A7EAA"/>
<stop offset="1" stop-color="#0F9355"/>
</linearGradient>
</defs>
</svg>
