<svg width="48" height="48" viewBox="0 0 48 48" fill="none" xmlns="http://www.w3.org/2000/svg">
<path d="M43 33H5V11.4571V7H43V33Z" fill="white" stroke="#0D0D0D" stroke-width="1.5" stroke-miterlimit="10" stroke-linecap="round" stroke-linejoin="round"/>
<path d="M9 38H39V41H9V38Z" fill="url(#paint0_linear_318_2192)" stroke="black" stroke-width="1.5" stroke-miterlimit="10" stroke-linecap="round" stroke-linejoin="round"/>
<path d="M5 7H43V11H5V7Z" fill="url(#paint1_linear_318_2192)" stroke="black" stroke-width="1.5" stroke-miterlimit="10" stroke-linecap="round" stroke-linejoin="round"/>
<path d="M27 33H21V37.1429V38H27V33Z" fill="url(#paint2_linear_318_2192)" stroke="black" stroke-width="1.5" stroke-miterlimit="10" stroke-linecap="round" stroke-linejoin="round"/>
<path d="M9.27035 25V17.6H13.8104V18.83H10.7504V20.54H13.3504V21.78H10.7504V23.76H13.9204V25H9.27035ZM15.0027 21.79V20.74H18.5527V21.79H15.0027ZM22.1542 25.14C21.6542 25.14 21.1675 25.0467 20.6942 24.86C20.2275 24.6733 19.8142 24.4067 19.4542 24.06L20.3042 23.04C20.5708 23.2867 20.8675 23.4867 21.1942 23.64C21.5275 23.7867 21.8575 23.86 22.1842 23.86C22.5708 23.86 22.8642 23.7833 23.0642 23.63C23.2642 23.4767 23.3642 23.27 23.3642 23.01C23.3642 22.87 23.3375 22.7533 23.2842 22.66C23.2308 22.5667 23.1542 22.4833 23.0542 22.41C22.9608 22.3367 22.8442 22.27 22.7042 22.21C22.5708 22.15 22.4208 22.0833 22.2542 22.01L21.2642 21.59C21.0775 21.51 20.8942 21.4133 20.7142 21.3C20.5342 21.18 20.3742 21.04 20.2342 20.88C20.0942 20.72 19.9808 20.5333 19.8942 20.32C19.8075 20.1067 19.7642 19.8667 19.7642 19.6C19.7642 19.3 19.8275 19.02 19.9542 18.76C20.0808 18.4933 20.2575 18.2667 20.4842 18.08C20.7108 17.8867 20.9808 17.7367 21.2942 17.63C21.6075 17.5167 21.9508 17.46 22.3242 17.46C22.7642 17.46 23.1842 17.5433 23.5842 17.71C23.9908 17.87 24.3442 18.1033 24.6442 18.41L23.8942 19.34C23.6608 19.1467 23.4175 18.9967 23.1642 18.89C22.9108 18.7833 22.6308 18.73 22.3242 18.73C21.9975 18.73 21.7375 18.8 21.5442 18.94C21.3508 19.0733 21.2542 19.2633 21.2542 19.51C21.2542 19.6367 21.2842 19.7467 21.3442 19.84C21.4108 19.9333 21.4942 20.0167 21.5942 20.09C21.7008 20.1633 21.8242 20.2333 21.9642 20.3C22.1042 20.36 22.2542 20.42 22.4142 20.48L23.3842 20.89C23.8442 21.0767 24.2075 21.3233 24.4742 21.63C24.7408 21.9367 24.8742 22.36 24.8742 22.9C24.8742 23.2 24.8108 23.4867 24.6842 23.76C24.5642 24.0333 24.3875 24.2733 24.1542 24.48C23.9208 24.68 23.6342 24.84 23.2942 24.96C22.9608 25.08 22.5808 25.14 22.1542 25.14ZM29.1244 25.14C28.6377 25.14 28.1911 25.0533 27.7844 24.88C27.3777 24.7 27.0277 24.4433 26.7344 24.11C26.4411 23.77 26.2144 23.3633 26.0544 22.89C25.8944 22.41 25.8144 21.87 25.8144 21.27C25.8144 20.67 25.8944 20.1333 26.0544 19.66C26.2144 19.1867 26.4411 18.7867 26.7344 18.46C27.0277 18.1333 27.3777 17.8867 27.7844 17.72C28.1911 17.5467 28.6377 17.46 29.1244 17.46C29.6177 17.46 30.0644 17.5467 30.4644 17.72C30.8711 17.8933 31.2211 18.1433 31.5144 18.47C31.8077 18.79 32.0344 19.1867 32.1944 19.66C32.3544 20.1333 32.4344 20.67 32.4344 21.27C32.4344 21.87 32.3544 22.41 32.1944 22.89C32.0344 23.3633 31.8077 23.77 31.5144 24.11C31.2211 24.4433 30.8711 24.7 30.4644 24.88C30.0644 25.0533 29.6177 25.14 29.1244 25.14ZM29.1244 23.86C29.3977 23.86 29.6444 23.8 29.8644 23.68C30.0911 23.5533 30.2811 23.38 30.4344 23.16C30.5944 22.9333 30.7144 22.66 30.7944 22.34C30.8811 22.02 30.9244 21.6633 30.9244 21.27C30.9244 20.4633 30.7644 19.84 30.4444 19.4C30.1311 18.9533 29.6911 18.73 29.1244 18.73C28.5577 18.73 28.1144 18.9533 27.7944 19.4C27.4811 19.84 27.3244 20.4633 27.3244 21.27C27.3244 21.6633 27.3644 22.02 27.4444 22.34C27.5311 22.66 27.6511 22.9333 27.8044 23.16C27.9644 23.38 28.1544 23.5533 28.3744 23.68C28.6011 23.8 28.8511 23.86 29.1244 23.86ZM33.8797 25V17.6H36.3097C36.7164 17.6 37.0964 17.64 37.4497 17.72C37.8031 17.7933 38.1097 17.92 38.3697 18.1C38.6297 18.28 38.8331 18.52 38.9797 18.82C39.1331 19.1133 39.2097 19.48 39.2097 19.92C39.2097 20.34 39.1331 20.7067 38.9797 21.02C38.8331 21.3267 38.6297 21.58 38.3697 21.78C38.1164 21.98 37.8164 22.13 37.4697 22.23C37.1231 22.3233 36.7497 22.37 36.3497 22.37H35.3597V25H33.8797ZM35.3597 21.2H36.2497C37.2564 21.2 37.7597 20.7733 37.7597 19.92C37.7597 19.48 37.6297 19.18 37.3697 19.02C37.1097 18.8533 36.7197 18.77 36.1997 18.77H35.3597V21.2Z" fill="#0D0D0D"/>
<defs>
<linearGradient id="paint0_linear_318_2192" x1="9.11434" y1="39.3071" x2="42.8147" y2="39.3071" gradientUnits="userSpaceOnUse">
<stop stop-color="#09E464"/>
<stop offset="0.9978" stop-color="#4A7EAA"/>
<stop offset="1" stop-color="#0F9355"/>
</linearGradient>
<linearGradient id="paint1_linear_318_2192" x1="5.14483" y1="8.74277" x2="47.8319" y2="8.74277" gradientUnits="userSpaceOnUse">
<stop stop-color="#09E464"/>
<stop offset="0.9978" stop-color="#4A7EAA"/>
<stop offset="1" stop-color="#0F9355"/>
</linearGradient>
<linearGradient id="paint2_linear_318_2192" x1="21.0229" y1="35.1785" x2="27.7629" y2="35.1785" gradientUnits="userSpaceOnUse">
<stop stop-color="#09E464"/>
<stop offset="0.9978" stop-color="#4A7EAA"/>
<stop offset="1" stop-color="#0F9355"/>
</linearGradient>
</defs>
</svg>
