<svg width="28" height="28" viewBox="0 0 28 28" fill="none" xmlns="http://www.w3.org/2000/svg">
<path fill-rule="evenodd" clip-rule="evenodd" d="M9.37022 12.3137L13.9986 17L18.6269 12.3137C19.5423 11.3868 20.1657 10.2059 20.4183 8.92033C20.6708 7.63474 20.5412 6.30219 20.0458 5.0912C19.5504 3.8802 18.7114 2.84514 17.635 2.11692C16.5586 1.38869 15.2931 1 13.9986 1C12.704 1 11.4385 1.38869 10.3621 2.11692C9.28574 2.84514 8.44679 3.8802 7.95138 5.0912C7.45597 6.30219 7.32634 7.63474 7.57889 8.92033C7.83144 10.2059 8.45483 11.3868 9.37022 12.3137ZM13.9981 10.4626C15.6202 10.4626 16.9352 9.1146 16.9352 7.4518C16.9352 5.78901 15.6202 4.44105 13.9981 4.44105C12.376 4.44105 11.0611 5.78901 11.0611 7.4518C11.0611 9.1146 12.376 10.4626 13.9981 10.4626Z" fill="#23C565"/>
<path d="M14 15V28" stroke="#23C565" stroke-dasharray="2 2"/>
</svg>
