<svg width="48" height="48" viewBox="0 0 48 48" fill="none" xmlns="http://www.w3.org/2000/svg">
<path d="M24 27C16.8085 27 11 32.6356 11 39.613V43H37V39.613C37 32.6356 31.1915 27 24 27Z" fill="white" stroke="#0D0D0D" stroke-width="1.5" stroke-miterlimit="10" stroke-linecap="round" stroke-linejoin="round"/>
<circle cx="24" cy="22" r="8" fill="white" stroke="#0D0D0D" stroke-width="1.5" stroke-miterlimit="10" stroke-linecap="round" stroke-linejoin="round"/>
<path d="M34.4 16C25.56 12.3765 16.85 14.4902 13.6 16C12.7333 15.7843 11 12.7647 11 12.7647C11 12.7647 16.2 5 24 5C31.8 5 37 12.7647 37 12.7647C37 12.7647 35.2667 15.5686 34.4 16Z" fill="url(#paint0_linear_318_2110)" stroke="black" stroke-width="1.5" stroke-miterlimit="10" stroke-linecap="round" stroke-linejoin="round"/>
<path d="M23.6667 21C15.1333 21 13 17.6061 13 15.9091C14.7778 15.2727 19.4 14 23.6667 14C27.9333 14 33 15.2727 35 15.9091C34.7778 17.6061 32.2 21 23.6667 21Z" fill="url(#paint1_linear_318_2110)" stroke="black" stroke-width="1.5" stroke-miterlimit="10" stroke-linecap="round" stroke-linejoin="round"/>
<path d="M24 7L24.6735 9.07295H26.8532L25.0898 10.3541L25.7634 12.4271L24 11.1459L22.2366 12.4271L22.9102 10.3541L21.1468 9.07295H23.3265L24 7Z" fill="#0D0D0D"/>
<path d="M22 30H26L25 33H23L22 30Z" fill="#0D0D0D"/>
<path d="M23 34H25L26 39.5L24 41L22 39.5L23 34Z" fill="#0D0D0D"/>
<defs>
<linearGradient id="paint0_linear_318_2110" x1="11.0991" y1="11.2074" x2="40.3061" y2="11.2074" gradientUnits="userSpaceOnUse">
<stop stop-color="#09E464"/>
<stop offset="0.9978" stop-color="#4A7EAA"/>
<stop offset="1" stop-color="#0F9355"/>
</linearGradient>
<linearGradient id="paint1_linear_318_2110" x1="13.0839" y1="17.9502" x2="37.7974" y2="17.9502" gradientUnits="userSpaceOnUse">
<stop stop-color="#09E464"/>
<stop offset="0.9978" stop-color="#4A7EAA"/>
<stop offset="1" stop-color="#0F9355"/>
</linearGradient>
</defs>
</svg>
