<svg width="306" height="34" viewBox="0 0 306 34" fill="none" xmlns="http://www.w3.org/2000/svg">
<g clip-path="url(#clip0_87_264)">
<path d="M22.8334 18V20.5C22.8334 21.7886 21.7887 22.8333 20.5 22.8333H13.5C12.2114 22.8333 11.1667 21.7886 11.1667 20.5V13.5C11.1667 12.2113 12.2114 11.1666 13.5 11.1666H16" stroke="#D9DDE3" stroke-width="1.5" stroke-linecap="round"/>
<path d="M19.5387 11.1669L22.8385 11.1669M22.8385 11.1669L22.8385 14.4667M22.8385 11.1669L18.7137 15.2917" stroke="#D9DDE3" stroke-width="1.5" stroke-linecap="round" stroke-linejoin="round"/>
</g>
<g clip-path="url(#clip1_87_264)">
<path d="M55.8132 18.4561L56.6777 17.5916C57.0682 17.2011 57.0682 16.5679 56.6777 16.1774L55.8132 15.313" stroke="#D9DDE3" stroke-width="1.5" stroke-linecap="round" stroke-linejoin="round"/>
<path d="M56.5992 16.8845L51.8845 16.8845" stroke="#D9DDE3" stroke-width="1.5" stroke-linecap="round"/>
<path d="M44.8125 20.3628V13.6685M54.2418 20.3628C54.2418 21.1022 53.5382 21.7016 52.6703 21.7016H49.5272M54.2418 13.6685C54.2418 12.9291 53.5382 12.3296 52.6703 12.3296H49.5272M45.5123 22.0991L47.0839 22.9916C48.1282 23.5848 49.5272 22.947 49.5272 21.8776V12.1536C49.5272 11.0843 48.1282 10.4465 47.0839 11.0396L45.5123 11.9322C45.0751 12.1805 44.8125 12.5985 44.8125 13.0462V20.9851C44.8125 21.4327 45.0751 21.8508 45.5123 22.0991Z" stroke="#D9DDE3" stroke-width="1.5" stroke-linecap="round"/>
</g>
<g clip-path="url(#clip2_87_264)">
<path d="M89.8 16.3889H80.2M89.8 16.3889C90.4627 16.3889 91 16.9361 91 17.6111V20.0556C91 21.4056 89.9255 22.5 88.6 22.5H81.4C80.0745 22.5 79 21.4056 79 20.0556V17.6111C79 16.9361 79.5373 16.3889 80.2 16.3889M89.8 16.3889V15.1667C89.8 14.4917 89.2627 13.9444 88.6 13.9444M80.2 16.3889V15.1667C80.2 14.4917 80.7373 13.9444 81.4 13.9444M88.6 13.9444H81.4M88.6 13.9444V12.7222C88.6 12.0472 88.0627 11.5 87.4 11.5H82.6C81.9373 11.5 81.4 12.0472 81.4 12.7222V13.9444M83.8 18.2222H86.2" stroke="#D9DDE3" stroke-width="1.5" stroke-linecap="round"/>
</g>
<g clip-path="url(#clip3_87_264)">
<path d="M124 12.0001L114 22M124 21.9999L114 12" stroke="#D9DDE3" stroke-width="1.5" stroke-linecap="round" stroke-linejoin="round"/>
</g>
<g clip-path="url(#clip4_87_264)">
<path d="M147.666 19.664C147.666 19.664 149.688 23 153 23C155.971 23 158.44 20.8366 158.917 18M147.666 19.664H150.378M147.666 19.664V22.664M159 14.336C159 14.336 157.002 11 153 11C150.007 11 147.555 13.1634 147.082 16M159 14.336V11.336M159 14.336H156.336" stroke="#D9DDE3" stroke-width="1.5" stroke-linecap="round" stroke-linejoin="round"/>
</g>
<g clip-path="url(#clip5_87_264)">
<path d="M181 14L187 20L193 14" stroke="#D9DDE3" stroke-width="1.5" stroke-linecap="round" stroke-linejoin="round"/>
</g>
<g clip-path="url(#clip6_87_264)">
<path d="M215 20L221 14L227 20" stroke="#D9DDE3" stroke-width="1.5" stroke-linecap="round" stroke-linejoin="round"/>
</g>
<g clip-path="url(#clip7_87_264)">
<path d="M258 11L252 17L258 23" stroke="#D9DDE3" stroke-width="1.5" stroke-linecap="round" stroke-linejoin="round"/>
</g>
<g clip-path="url(#clip8_87_264)">
<path d="M286 23L292 17L286 11" stroke="#D9DDE3" stroke-width="1.5" stroke-linecap="round" stroke-linejoin="round"/>
</g>
<defs>
<clipPath id="clip0_87_264">
<rect width="14" height="14" fill="white" transform="translate(10 10)"/>
</clipPath>
<clipPath id="clip1_87_264">
<rect width="14" height="14" fill="white" transform="translate(44 10)"/>
</clipPath>
<clipPath id="clip2_87_264">
<rect width="14" height="14" fill="white" transform="translate(78 10)"/>
</clipPath>
<clipPath id="clip3_87_264">
<rect width="14" height="14" fill="white" transform="translate(112 10)"/>
</clipPath>
<clipPath id="clip4_87_264">
<rect width="14" height="14" fill="white" transform="translate(146 10)"/>
</clipPath>
<clipPath id="clip5_87_264">
<rect width="14" height="14" fill="white" transform="translate(180 10)"/>
</clipPath>
<clipPath id="clip6_87_264">
<rect width="14" height="14" fill="white" transform="translate(214 10)"/>
</clipPath>
<clipPath id="clip7_87_264">
<rect width="14" height="14" fill="white" transform="translate(248 10)"/>
</clipPath>
<clipPath id="clip8_87_264">
<rect width="14" height="14" fill="white" transform="translate(282 10)"/>
</clipPath>
</defs>
</svg>
