<svg width="125" height="36" viewBox="0 0 125 36" fill="none" xmlns="http://www.w3.org/2000/svg">
<g clip-path="url(#clip0_694_9534)">
<path fill-rule="evenodd" clip-rule="evenodd" d="M110.738 7.39478C112.174 8.3345 113.492 10.0883 113.508 12.3153C113.524 14.5397 112.19 16.3977 110.681 17.2907C109.098 16.5114 107.779 14.4955 107.795 12.3153C107.815 10.4091 109.157 7.89204 110.738 7.39478Z" fill="#30A249"/>
<path fill-rule="evenodd" clip-rule="evenodd" d="M116.394 0C117.828 0.939729 119.149 2.69353 119.165 4.91921C119.18 7.14354 117.846 9.00295 116.338 9.89456C114.757 9.11524 113.435 7.10077 113.453 4.91921C113.469 3.01301 114.813 0.493257 116.394 0Z" fill="#74983E"/>
<path fill-rule="evenodd" clip-rule="evenodd" d="M109.456 19.5404C108.673 20.1112 107.518 20.3504 106.291 20.2756C103.107 20.0831 101.071 17.8788 100.806 14.7361C101.316 14.2375 102.076 14.0116 102.898 13.9448C106.81 13.624 109.158 16.0916 109.456 19.5404Z" fill="#05693A"/>
<path d="M115.858 25.7057V11.2795C115.858 11.0416 116.05 10.8464 116.287 10.8464C116.528 10.8464 116.72 11.0416 116.72 11.2795V25.7057C116.72 25.9449 116.528 26.1361 116.287 26.1361C116.05 26.1361 115.858 25.9449 115.858 25.7057Z" fill="#30A249"/>
<path d="M110.281 25.7057V18.6343C110.281 18.395 110.474 18.2039 110.714 18.2039C110.951 18.2039 111.146 18.395 111.146 18.6343V25.7057C111.146 25.9449 110.951 26.1361 110.714 26.1361C110.474 26.1361 110.281 25.9449 110.281 25.7057Z" fill="#74983E"/>
<path fill-rule="evenodd" clip-rule="evenodd" d="M120.558 14.7042C120.269 17.9792 118.045 20.3011 114.622 20.3011C113.548 20.3011 112.546 20.0672 111.908 19.5124C112.059 16.6906 113.976 14.231 116.942 13.9703C118.268 13.8527 119.747 14.0184 120.559 14.7042H120.558Z" fill="#74983E"/>
<path fill-rule="evenodd" clip-rule="evenodd" d="M125 7.97362C124.75 10.8182 122.814 12.838 119.839 12.838C118.904 12.838 118.034 12.6362 117.479 12.1509C117.609 9.69801 119.277 7.56056 121.855 7.33332C123.007 7.23172 124.292 7.37609 125 7.97362Z" fill="#8DC63F"/>
<path d="M49.3766 35.5866V29.3574H51.3657V33.7727H56.4774V35.5866H49.3766Z" fill="white"/>
<path d="M48.6667 19.7864H42.2744V17.9805H46.6763V13.8767H48.6667V19.7864Z" fill="white"/>
<path d="M43.7997 24.7537C43.7997 22.663 45.492 20.968 47.584 20.968C49.676 20.968 51.3696 22.6617 51.3696 24.7537C51.3696 26.8457 49.676 28.5407 47.584 28.542C45.492 28.5393 43.7997 26.8457 43.7997 24.7537ZM45.6537 24.7537C45.6551 25.8217 46.5186 26.6839 47.584 26.6839C48.6494 26.6839 49.5129 25.8204 49.5156 24.7537C49.5143 23.6883 48.6494 22.8248 47.584 22.8234C46.5186 22.8234 45.6551 23.6883 45.6537 24.7537Z" fill="white"/>
<path d="M39.093 26.6453H25.1107V28.522H39.093V26.6453Z" fill="white"/>
<path d="M80.9504 30.3159V23.2231H86.1851V19.9708H81.0721V18.0232H88.1728V25.148H82.9395V28.3255H88.1662V30.3159H80.9518H80.9504Z" fill="white"/>
<path d="M4.5516 25.1467V20.0109H0V18.0767H6.52597V25.1467H4.5516Z" fill="white"/>
<path d="M11.9798 25.1467V20.0109H7.42957V18.0767H13.9542V25.1467H11.9798Z" fill="white"/>
<path d="M29.6756 25.1467V20.0109H25.124V18.0767H31.6487L31.65 25.1467H29.6756Z" fill="white"/>
<path d="M37.1053 25.1467V20.0109H32.5524V18.0767H39.0783V25.1467H37.1053Z" fill="white"/>
<path d="M20.0805 19.9829H17.816V25.1454H15.8417V18.0259H22.0535V25.1454H20.0791L20.0805 19.9829Z" fill="white"/>
<path d="M65.491 23.2151V18.0205H63.4899V23.2151V25.128V25.1534H70.6187V23.2151H65.491Z" fill="white"/>
<path d="M32.4815 29.2212L32.4641 29.2012L27.4246 34.2434L28.8402 35.6576L32.4641 32.0337L36.1067 35.675L37.5223 34.2607L32.4815 29.2212Z" fill="white"/>
<path d="M61.2054 18.0205H56.4519H54.4749H54.4508V25.128H56.4519V20.0016H61.2054V18.0205Z" fill="white"/>
<path d="M79.3409 18.0408H74.5874H72.6104H72.5876V25.1282H74.5874V20.0018H79.3409V18.0408Z" fill="white"/>
<path d="M97.6329 18.0408H92.8794H90.9024H90.8796V25.1282H92.8794V20.0018H97.6329V18.0408Z" fill="white"/>
</g>
<defs>
<clipPath id="clip0_694_9534">
<rect width="125" height="35.6749" fill="white"/>
</clipPath>
</defs>
</svg>
