<svg width="454" height="82" viewBox="0 0 454 82" fill="none" xmlns="http://www.w3.org/2000/svg">
<path d="M2 3.49691e-06L25.8035 66.7204C28.6445 74.6835 36.1859 80 44.6406 80L409.359 80C417.814 80 425.356 74.6835 428.196 66.7204L452 -1.96701e-05L2 3.49691e-06Z" fill="url(#paint0_linear_562_8453)"/>
<path fill-rule="evenodd" clip-rule="evenodd" d="M27.2163 66.2163L3.5 0L0.5 0L24.3907 67.2243C27.4447 75.7847 35.5517 81.4999 44.6406 81.4999L409.359 81.4999C418.448 81.4999 426.555 75.7847 429.609 67.2243L453.5 -2.55239e-07L450.5 -3.58117e-06L426.784 66.2163C424.156 73.5822 417.18 78.4999 409.359 78.4999L44.6406 78.4999C36.8199 78.4999 29.8441 73.5822 27.2163 66.2163Z" fill="url(#paint1_linear_562_8453)"/>
<ellipse cx="96.5" cy="40" rx="34.5" ry="35" fill="url(#paint2_radial_562_8453)"/>
<rect x="78.0022" y="37.0002" width="37" height="7" fill="#3CFFA1"/>
<rect x="100.002" y="22.0002" width="37" height="7" transform="rotate(90 100.002 22.0002)" fill="#3CFFA1"/>
<path d="M79.5022 24.6102C79.5022 25.4902 80.1622 26.1102 81.0422 26.1102C81.9222 26.1102 82.5822 25.4902 82.5822 24.6102C82.5822 23.7302 81.9222 23.1102 81.0422 23.1102C80.1622 23.1102 79.5022 23.7302 79.5022 24.6102ZM83.3822 24.6102C83.3822 25.9102 82.3822 26.8202 81.0422 26.8202C79.7022 26.8202 78.7022 25.9102 78.7022 24.6102C78.7022 23.3102 79.7022 22.4002 81.0422 22.4002C82.3822 22.4002 83.3822 23.3102 83.3822 24.6102ZM80.7322 27.7002V29.8702H85.8922V30.5402H79.9122V27.7002H80.7322ZM85.4922 24.5002H86.8222V25.1802H85.4922V28.3702H84.6722V21.7702H85.4922V24.5002Z" fill="#3CFFA1"/>
<path d="M81.1622 51.4902V52.3002C81.1622 53.8602 81.8322 55.4202 83.0722 56.1202L82.5722 56.7202C81.7022 56.2002 81.0822 55.2402 80.7722 54.1002C80.4622 55.3302 79.8122 56.3802 78.9222 56.9402L78.4222 56.3302C79.6722 55.5802 80.3722 53.9502 80.3722 52.3002V51.4902H78.6722V50.8202H82.7622V51.4902H81.1622ZM83.5622 52.9902V49.9702H84.3422V58.2702H83.5622V53.6602H82.0822V52.9902H83.5622ZM85.3622 49.7602H86.1522V58.7302H85.3622V49.7602Z" fill="#3CFFA1"/>
<path d="M111.292 24.2502H113.092V21.7802H113.922V28.3502H113.092V24.9202H111.292V24.2502ZM111.822 26.3602L111.412 27.0002C110.412 26.6402 109.642 25.8902 109.252 24.9702C108.862 25.9902 108.042 26.8202 106.992 27.2002L106.562 26.5602C107.892 26.0802 108.822 24.8902 108.822 23.6202V23.1702H106.822V22.5002H111.612V23.1702H109.642V23.6102C109.642 24.7802 110.522 25.9002 111.822 26.3602ZM109.012 29.8702H114.172V30.5402H108.182V27.7702H109.012V29.8702Z" fill="#3CFFA1"/>
<path d="M113.892 49.7702V54.3702H113.072V49.7702H113.892ZM107.532 52.0902C107.532 52.8602 108.182 53.4102 109.052 53.4102C109.932 53.4102 110.572 52.8602 110.572 52.0902C110.572 51.3102 109.932 50.7602 109.052 50.7602C108.182 50.7602 107.532 51.3102 107.532 52.0902ZM111.372 52.0902C111.372 53.2702 110.392 54.0702 109.052 54.0702C107.712 54.0702 106.742 53.2702 106.742 52.0902C106.742 50.9002 107.712 50.0902 109.052 50.0902C110.392 50.0902 111.372 50.9002 111.372 52.0902ZM108.912 57.9702H114.192V58.6202H108.102V56.3702H113.082V55.4602H108.082V54.8102H113.892V56.9802H108.912V57.9702Z" fill="#3CFFA1"/>
<path d="M142.798 26.824H144.926V23.492H146.088V33.054H144.926V30.394H142.798V29.456H144.926V27.762H142.798V26.824ZM142.798 25.018V25.942H135.77V25.018H138.766V23.478H139.914V25.018H142.798ZM137.576 29.022C137.576 29.918 138.29 30.534 139.326 30.534C140.362 30.534 141.076 29.918 141.076 29.022C141.076 28.14 140.362 27.538 139.326 27.538C138.29 27.538 137.576 28.14 137.576 29.022ZM142.168 29.022C142.168 30.464 140.992 31.43 139.326 31.43C137.66 31.43 136.484 30.464 136.484 29.022C136.484 27.594 137.66 26.642 139.326 26.642C140.992 26.642 142.168 27.594 142.168 29.022ZM139.158 34.818H146.382V35.756H138.01V32.242H139.158V34.818ZM152.331 25.9V26.88C152.331 29.176 153.241 31.206 155.019 32.13L154.347 33.012C153.115 32.326 152.247 31.108 151.799 29.624C151.379 31.332 150.497 32.69 149.195 33.446L148.495 32.578C150.287 31.57 151.225 29.428 151.225 26.88V25.9H148.789V24.962H154.613V25.9H152.331ZM158.225 23.464H159.331V36.036H158.225V29.498H156.573V35.42H155.495V23.758H156.573V28.546H158.225V23.464ZM161.864 24.836H165.266C165.266 27.86 164.636 30.8 162.354 33.208L161.458 32.564C163.32 30.632 164.048 28.308 164.174 25.788H161.864V24.836ZM165.686 24.836H168.696C168.696 27.86 168.262 31.318 165.952 34.048L165.028 33.418C166.96 31.192 167.52 28.448 167.618 25.788H165.686V24.836ZM173.232 28.658V29.61H171.37V36.036H170.222V23.478H171.37V28.658H173.232ZM178.859 25.718V27.314C178.859 29.442 180.371 31.612 182.219 32.396L181.575 33.32C180.119 32.648 178.887 31.206 178.285 29.484C177.711 31.318 176.479 32.9 175.051 33.628L174.379 32.704C176.185 31.85 177.711 29.484 177.711 27.314V25.718H174.799V24.766H181.813V25.718H178.859ZM183.507 23.492H184.655V36.036H183.507V23.492ZM144.534 49.154V46.102H138.304V49.154H144.534ZM145.668 45.178V50.064H137.184V45.178H145.668ZM147.124 51.772V52.71H141.972V57.022H140.824V52.71H135.728V51.772H147.124ZM152.331 46.9V47.88C152.331 50.176 153.241 52.206 155.019 53.13L154.347 54.012C153.115 53.326 152.247 52.108 151.799 50.624C151.379 52.332 150.497 53.69 149.195 54.446L148.495 53.578C150.287 52.57 151.225 50.428 151.225 47.88V46.9H148.789V45.962H154.613V46.9H152.331ZM158.225 44.464H159.331V57.036H158.225V50.498H156.573V56.42H155.495V44.758H156.573V49.546H158.225V44.464ZM164.608 53.172C165.574 53.172 166.274 52.374 166.274 51.254C166.274 50.162 165.574 49.364 164.608 49.364C163.628 49.364 162.942 50.162 162.942 51.254C162.942 52.374 163.628 53.172 164.608 53.172ZM164.608 48.398C166.162 48.398 167.296 49.574 167.296 51.254C167.296 52.962 166.162 54.124 164.608 54.124C163.054 54.124 161.92 52.962 161.92 51.254C161.92 49.574 163.054 48.398 164.608 48.398ZM165.168 44.842V46.62H167.716V47.558H161.486V46.62H164.034V44.842H165.168ZM171.034 44.464H172.14V57.022H171.034V50.708H169.424V56.42H168.346V44.758H169.424V49.77H171.034V44.464ZM184.566 47.824H186.694V44.492H187.856V54.054H186.694V51.394H184.566V50.456H186.694V48.762H184.566V47.824ZM184.566 46.018V46.942H177.538V46.018H180.534V44.478H181.682V46.018H184.566ZM179.344 50.022C179.344 50.918 180.058 51.534 181.094 51.534C182.13 51.534 182.844 50.918 182.844 50.022C182.844 49.14 182.13 48.538 181.094 48.538C180.058 48.538 179.344 49.14 179.344 50.022ZM183.936 50.022C183.936 51.464 182.76 52.43 181.094 52.43C179.428 52.43 178.252 51.464 178.252 50.022C178.252 48.594 179.428 47.642 181.094 47.642C182.76 47.642 183.936 48.594 183.936 50.022ZM180.926 55.818H188.15V56.756H179.778V53.242H180.926V55.818ZM197.85 45.57V46.424H190.64V45.57H193.678V44.38H194.826V45.57H197.85ZM192.404 48.734C192.404 49.35 193.118 49.728 194.252 49.728C195.372 49.728 196.086 49.35 196.086 48.734C196.086 48.118 195.372 47.726 194.252 47.726C193.118 47.726 192.404 48.118 192.404 48.734ZM198.228 51.128L198.298 51.926C195.638 52.402 192.67 52.43 190.458 52.43L190.332 51.534C191.326 51.534 192.474 51.52 193.678 51.478V50.484C192.222 50.358 191.312 49.714 191.312 48.734C191.312 47.614 192.474 46.942 194.252 46.942C196.016 46.942 197.178 47.614 197.178 48.734C197.178 49.714 196.268 50.344 194.826 50.484V51.436C195.974 51.366 197.15 51.282 198.228 51.128ZM196.1 56.168C197.99 56.168 199.054 55.776 199.054 55.09C199.054 54.39 197.99 54.012 196.1 54.012C194.21 54.012 193.146 54.39 193.146 55.09C193.146 55.776 194.21 56.168 196.1 56.168ZM196.1 53.158C198.69 53.158 200.216 53.844 200.216 55.09C200.216 56.336 198.69 57.022 196.1 57.022C193.496 57.022 191.984 56.336 191.984 55.09C191.984 53.844 193.496 53.158 196.1 53.158ZM200.118 48.272H201.966V49.224H200.118V53.004H198.97V44.492H200.118V48.272Z" fill="#3CFFA1"/>
<rect x="233" y="61" width="30" height="3" fill="#25D580"/>
<rect x="266.79" y="61" width="30" height="3" fill="#25D580"/>
<rect x="300.579" y="61" width="30" height="3" fill="#25D580"/>
<rect x="334.368" y="61" width="30" height="3" fill="#25D580"/>
<path d="M388.57 32.686V40.966H387.094V32.686H388.57ZM377.122 36.862C377.122 38.248 378.292 39.238 379.858 39.238C381.442 39.238 382.594 38.248 382.594 36.862C382.594 35.458 381.442 34.468 379.858 34.468C378.292 34.468 377.122 35.458 377.122 36.862ZM384.034 36.862C384.034 38.986 382.27 40.426 379.858 40.426C377.446 40.426 375.7 38.986 375.7 36.862C375.7 34.72 377.446 33.262 379.858 33.262C382.27 33.262 384.034 34.72 384.034 36.862ZM379.606 47.446H389.11V48.616H378.148V44.566H387.112V42.928H378.112V41.758H388.57V45.664H379.606V47.446Z" fill="#3CFFA1"/>
<defs>
<linearGradient id="paint0_linear_562_8453" x1="-8" y1="-33.5" x2="452" y2="83" gradientUnits="userSpaceOnUse">
<stop stop-color="#00686F" stop-opacity="0.8"/>
<stop offset="1" stop-color="#00572F" stop-opacity="0.9"/>
</linearGradient>
<linearGradient id="paint1_linear_562_8453" x1="1.99994" y1="39.9999" x2="452" y2="39.9999" gradientUnits="userSpaceOnUse">
<stop offset="0.114583" stop-color="#00E0FF"/>
<stop offset="0.328125" stop-color="#94FFEB"/>
<stop offset="0.614583" stop-color="#2FFF82"/>
</linearGradient>
<radialGradient id="paint2_radial_562_8453" cx="0" cy="0" r="1" gradientUnits="userSpaceOnUse" gradientTransform="translate(96.5 40) rotate(90.6821) scale(42.003 41.4029)">
<stop offset="0.223958" stop-color="#00AF5B" stop-opacity="0.73"/>
<stop offset="0.708333" stop-color="#00B15C" stop-opacity="0"/>
</radialGradient>
</defs>
</svg>
