<svg width="350" height="80" viewBox="0 0 350 80" fill="none" xmlns="http://www.w3.org/2000/svg">
<path fill-rule="evenodd" clip-rule="evenodd" d="M60 39.078V52.6573C60 54.9382 59.9997 56.0784 59.6191 56.978C59.1117 58.1775 58.1386 59.1305 56.9134 59.6274C55.9946 60 54.8303 60 52.5006 60H46V48C46 46.3431 44.6569 45 43 45H37C35.3431 45 34 46.3431 34 48V60H27.5006C25.1709 60 24.006 60 23.0872 59.6274C21.862 59.1305 20.8881 58.1775 20.3806 56.978C20 56.0784 20 54.9382 20 52.6573V39.078C20 37.7702 20 37.1162 20.1624 36.5076C20.3064 35.9683 20.5433 35.4568 20.863 34.9956C21.2236 34.4756 21.7258 34.0454 22.7295 33.1855L22.7319 33.1835L34.7319 22.9035L34.735 22.9008C36.5995 21.3036 37.5318 20.5049 38.5815 20.201C39.507 19.933 40.493 19.933 41.4185 20.201C42.4688 20.5051 43.402 21.3045 45.2686 22.9035L57.2686 33.1835C58.2739 34.0447 58.7761 34.4752 59.1369 34.9956C59.4567 35.4568 59.6937 35.9683 59.8376 36.5076C60 37.1159 60 37.7696 60 39.0763V39.078Z" fill="white"/>
<path fill-rule="evenodd" clip-rule="evenodd" d="M133 20H127V37H110V43H127V60H133V43H150V37H133V20Z" fill="white"/>
<path d="M200 37H240V43H200V37Z" fill="white"/>
<path fill-rule="evenodd" clip-rule="evenodd" d="M297.979 23.7365L293.737 27.9792L305.757 40L293.737 52.0208L297.979 56.2635L310 44.2426L322.021 56.2635L326.263 52.0208L314.243 40L326.263 27.9792L322.021 23.7365L310 35.7574L297.979 23.7365Z" fill="white"/>
</svg>
