<svg width="40" height="40" viewBox="0 0 40 40" fill="none" xmlns="http://www.w3.org/2000/svg">
<circle cx="20" cy="20" r="20" fill="#00F5BF"/>
<path fill-rule="evenodd" clip-rule="evenodd" d="M20 8.79999C16.809 8.79999 14.2222 11.3072 14.2222 14.4C14.2222 17.4928 16.809 20 20 20C23.191 20 25.7778 17.4928 25.7778 14.4C25.7778 11.3072 23.191 8.79999 20 8.79999ZM16.5333 14.4C16.5333 12.5443 18.0854 11.04 20 11.04C21.9146 11.04 23.4666 12.5443 23.4666 14.4C23.4666 16.2557 21.9146 17.76 20 17.76C18.0854 17.76 16.5333 16.2557 16.5333 14.4Z" fill="#25262E"/>
<path d="M15.3778 22.24C12.1868 22.24 9.59998 24.7472 9.59998 27.84V30.08C9.59998 30.6985 10.1173 31.2 10.7555 31.2C11.3937 31.2 11.9111 30.6985 11.9111 30.08V27.84C11.9111 25.9843 13.4632 24.48 15.3778 24.48H24.6222C26.5368 24.48 28.0889 25.9843 28.0889 27.84V30.08C28.0889 30.6985 28.6062 31.2 29.2444 31.2C29.8826 31.2 30.4 30.6985 30.4 30.08V27.84C30.4 24.7472 27.8132 22.24 24.6222 22.24H15.3778Z" fill="#25262E"/>
</svg>
