<svg width="19" height="22" viewBox="0 0 19 22" fill="none" xmlns="http://www.w3.org/2000/svg">
<path fill-rule="evenodd" clip-rule="evenodd" d="M8.31007 21.4781C5.76038 19.5711 0 14.5972 0 8.58244C0 6.30624 1.00089 4.12323 2.78249 2.51372C4.56409 0.904201 6.98052 0 9.50008 0C12.0196 0 14.436 0.904217 16.2176 2.51373C17.9992 4.12325 19 6.3062 19 8.5824C19 14.5971 13.2399 19.5711 10.6902 21.4781C10.3239 21.752 10.1406 21.889 9.86781 21.9591C9.65582 22.0136 9.34402 22.0136 9.13204 21.9591C8.85954 21.889 8.67668 21.7523 8.31108 21.4788L8.31107 21.4788L8.31007 21.4781ZM9.50001 12.6923C11.8849 12.6923 13.8182 10.7981 13.8182 8.46148C13.8182 6.12489 11.8849 4.23071 9.50001 4.23071C7.11515 4.23071 5.18183 6.12489 5.18183 8.46148C5.18183 10.7981 7.11515 12.6923 9.50001 12.6923Z" fill="#232527"/>
</svg>
