<svg width="910" height="110" viewBox="0 0 910 110" fill="none" xmlns="http://www.w3.org/2000/svg">
<path d="M30 32.2783C27.6866 32.2783 25.8209 34.0175 25.8209 36.174V39.0957C27.0896 39.6522 28.5075 40.0001 30 40.0001C31.4926 40.0001 32.9105 39.6522 34.1791 39.0957V36.174C34.1791 34.0175 32.3135 32.2783 30 32.2783ZM30 38.5392C28.7314 38.5392 27.6866 37.5653 27.6866 36.3827C27.6866 35.2001 28.7314 34.2261 30 34.2261C31.2687 34.2261 32.3135 35.2001 32.3135 36.3827C32.3135 37.5653 31.2687 38.5392 30 38.5392Z" fill="#D9DDE3"/>
<path d="M20.7462 31.3737C20.7462 34.2259 22.2388 36.7302 24.4776 38.3302V36.1737C24.4776 33.3215 26.9402 31.0259 29.9999 31.0259C33.0596 31.0259 35.5223 33.3215 35.5223 36.1737V38.3302C37.8358 36.7302 39.2537 34.2259 39.2537 31.3737V27.478H20.7462V31.3737Z" fill="#D9DDE3"/>
<path d="M30 37.6347C30.7419 37.6347 31.3433 37.0741 31.3433 36.3825C31.3433 35.691 30.7419 35.1304 30 35.1304C29.2581 35.1304 28.6567 35.691 28.6567 36.3825C28.6567 37.0741 29.2581 37.6347 30 37.6347Z" fill="#D9DDE3"/>
<path d="M40 24H20V26.713H40V24Z" fill="#D9DDE3"/>
<mask id="mask0_5_2" style="mask-type:luminance" maskUnits="userSpaceOnUse" x="70" y="20" width="20" height="20">
<path d="M90 20H70V40H90V20Z" fill="white"/>
</mask>
<g mask="url(#mask0_5_2)">
<path d="M71.2499 34.4618C71.2499 34.1219 70.9701 33.8464 70.6249 33.8464C70.2798 33.8464 69.9999 34.122 69.9999 34.4618V38.1543C70.0002 38.3737 70.119 38.5763 70.3118 38.6862C70.7282 38.9236 71.2494 38.6281 71.2499 38.1543V36.9235H74.7412C75.0729 36.9245 75.3912 36.7946 75.6248 36.5627L80.5002 30.5H79L74.7412 35.6927H71.2499V34.4618Z" fill="#D9DDE3"/>
<path fill-rule="evenodd" clip-rule="evenodd" d="M72.2934 31C71.5736 31.0052 70.9947 30.4367 71 29.7298L71.033 25.4648L71.0516 23.3903C71.0571 22.6831 71.6454 22.1052 72.3656 22.0999L89.1914 22C89.8187 21.9962 90.2045 22.6607 89.8858 23.1962C89.8499 23.2565 89.8062 23.3122 89.7558 23.3617L87.4697 25.6067L87.4377 29.7298C87.4319 30.4367 86.844 30.9943 86.1242 31H72.2934ZM72.3437 24.8166L72.355 23.3804L88.0013 23.2878L86.5549 24.7083L72.3437 24.8166Z" fill="#D9DDE3"/>
</g>
<mask id="mask1_5_2" style="mask-type:luminance" maskUnits="userSpaceOnUse" x="120" y="20" width="20" height="20">
<path d="M140 20H120V40H140V20Z" fill="white"/>
</mask>
<g mask="url(#mask1_5_2)">
<path d="M122.5 35.374C121.552 35.7438 121 36.1878 121 36.6652C121 37.9547 125.029 39.0001 130 39.0001C134.971 39.0001 139 37.9547 139 36.6652C139 36.2067 138.491 35.7791 137.611 35.4183" stroke="#D9DDE3" stroke-width="2" stroke-linecap="round"/>
<path d="M130 32.5C132.485 32.5 134.5 30.4853 134.5 28C134.5 25.5147 132.485 23.5 130 23.5C127.515 23.5 125.5 25.5147 125.5 28C125.5 30.4853 127.515 32.5 130 32.5Z" stroke="#D9DDE3"/>
<path d="M130 35C133.866 35 137 31.866 137 28C137 24.134 133.866 21 130 21C126.134 21 123 24.134 123 28C123 31.866 126.134 35 130 35Z" stroke="#D9DDE3" stroke-width="2"/>
<path d="M130 30C131.105 30 132 29.1046 132 28C132 26.8954 131.105 26 130 26C128.895 26 128 26.8954 128 28C128 29.1046 128.895 30 130 30Z" fill="#D9DDE3"/>
</g>
<path d="M189 21V22.1582H171V21H189Z" stroke="#D9DDE3" stroke-width="2"/>
<path d="M186 25H174V27H186V25Z" fill="#D9DDE3"/>
<path d="M186 28H174V30H186V28Z" fill="#D9DDE3"/>
<path d="M186 31H174V33H186V31Z" fill="#D9DDE3"/>
<path d="M186 34H174V36H186V34Z" fill="#D9DDE3"/>
<path d="M186 37H174V39H186V37Z" fill="#D9DDE3"/>
<path d="M223.582 21.0207C224.164 20.7296 226.2 19.642 229.398 20.8049H231.726V22.55H231.144V23.1321H230.562V23.7131H231.144V25.0754C232.499 25.5545 233.471 26.8471 233.471 28.3665V38.6252C233.471 39.3844 232.855 40.0001 232.096 40.0002H227.865C227.106 40.0002 226.49 39.3846 226.49 38.6252V28.3665C226.49 26.8472 227.461 25.5546 228.816 25.0754V23.7131H229.398V23.1321H228.816V22.55H228.235V22.4045C226.37 22.4039 224.591 22.963 223.684 24.0862L223.582 24.22C223.582 24.0259 223.582 23.6387 223.873 23.3479C224.433 22.7882 225.922 21.7782 227.604 21.5315C226.584 21.0731 224.854 20.7815 223 21.8938C223 21.6999 223.117 21.2534 223.582 21.0207ZM236.797 31.4387H236.506L236.797 34.3469H235.052L235.343 31.4387H235.052V30.8567H236.797V31.4387Z" fill="#D9DDE3"/>
<path d="M231 22C234.301 22 236.227 22.8048 236.868 24.8286C237.602 27.1428 236.034 28.9429 236.034 31" stroke="#D9DDE3"/>
<path d="M281.254 38.816C284.196 38.236 288 36.1545 288 30.7722C288 25.8742 284.355 22.6126 281.733 21.114C281.152 20.7814 280.471 21.2188 280.471 21.8805V23.5729C280.471 24.9076 279.9 27.3437 278.315 28.3569C277.505 28.8743 276.631 28.1 276.533 27.1555L276.452 26.38C276.358 25.4785 275.424 24.9312 274.692 25.4808C273.376 26.4683 272 28.1975 272 30.7722C272 37.3544 276.978 39 279.467 39C279.611 39 279.764 38.9957 279.922 38.9868C278.693 38.8835 276.706 38.1335 276.706 35.7086C276.706 33.8117 278.113 32.5284 279.182 31.9046C279.47 31.7368 279.806 31.9547 279.806 32.2835V32.8289C279.806 33.2462 279.97 33.8987 280.361 34.3453C280.803 34.8507 281.452 34.3213 281.504 33.6566C281.521 33.4469 281.735 33.3133 281.92 33.4194C282.524 33.7663 283.294 34.5074 283.294 35.7086C283.294 37.6043 282.232 38.4763 281.254 38.816Z" fill="#D9DDE3"/>
<path d="M333.585 36V34.3252C333.585 33.4879 333.337 32.8299 332.84 32.3514C332.342 31.8729 331.739 31.6336 331.028 31.6336H328.867C327.77 31.6336 326.852 31.2199 326.111 30.3925C325.37 29.5651 325 28.6131 325 27.5364C325 26.4598 325.37 25.5577 326.111 24.8299C326.678 24.2735 327.348 23.9298 328.122 23.7988C328.529 23.7299 328.867 24.0731 328.867 24.486C328.867 24.8989 328.526 25.2182 328.126 25.3223C327.749 25.4205 327.428 25.6003 327.162 25.8617C326.735 26.2804 326.522 26.8386 326.522 27.5364C326.522 28.2343 326.735 28.8423 327.162 29.3607C327.588 29.8791 328.156 30.1383 328.867 30.1383H331.028C332.124 30.1383 333.078 30.5072 333.89 31.2449C334.702 31.9825 335.108 32.8897 335.108 33.9664V36H333.585ZM336.478 36V33.0093C336.478 31.514 335.97 30.2879 334.956 29.3308C333.941 28.3738 332.672 27.8953 331.15 27.8953V26.4C331.84 26.4 332.403 26.1607 332.84 25.6822C333.276 25.2037 333.494 24.6255 333.494 23.9477C333.494 23.2698 333.276 22.6916 332.84 22.2131C332.57 21.9179 332.253 21.7138 331.887 21.6007C331.493 21.4787 331.15 21.1606 331.15 20.7477C331.15 20.3347 331.488 19.9911 331.894 20.0645C332.668 20.2044 333.339 20.5717 333.905 21.1664C334.646 21.9439 335.016 22.871 335.016 23.9477C335.016 24.6056 334.89 25.1738 334.636 25.6523C334.382 26.1308 334.052 26.5395 333.646 26.8785C334.824 27.2773 335.843 28.0249 336.706 29.1215C337.569 30.218 338 31.514 338 33.0093V36H336.478Z" fill="#D9DDE3"/>
<path d="M335.5 37H325.5C324.672 37 324 37.6716 324 38.5C324 39.3284 324.672 40 325.5 40H335.5C336.328 40 337 39.3284 337 38.5C337 37.6716 336.328 37 335.5 37Z" fill="#D9DDE3"/>
<path d="M326.5 35H322.5C321.672 35 321 35.6716 321 36.5C321 37.3284 321.672 38 322.5 38H326.5C327.328 38 328 37.3284 328 36.5C328 35.6716 327.328 35 326.5 35Z" fill="#D9DDE3"/>
<path fill-rule="evenodd" clip-rule="evenodd" d="M376.223 20C376.945 20 377.641 20.2923 378.167 20.8173C378.692 21.3422 379.009 22.0601 379.051 22.8239L379.056 22.9999V23.5679C379.215 23.4805 379.395 23.4429 379.574 23.4596C379.753 23.4762 379.923 23.5464 380.066 23.6619L380.159 23.7489C380.314 23.9095 380.412 24.1215 380.436 24.3493C380.461 24.5771 380.411 24.807 380.294 25.0004C380.178 25.1938 380.002 25.3389 379.797 25.4114C379.591 25.484 379.368 25.4795 379.166 25.3989L379.056 25.3479V27.8588C379.063 27.9058 379.066 27.9528 379.066 28.0008L379.063 28.0728L379.056 28.1428V30.6477C379.247 30.5388 379.467 30.5026 379.68 30.5451C379.893 30.5877 380.085 30.7063 380.225 30.8813C380.365 31.0563 380.444 31.2769 380.449 31.5062C380.454 31.7355 380.384 31.9595 380.251 32.1407L380.163 32.2447C380.668 33.0549 380.94 34.0033 380.945 34.9743C380.95 35.9452 380.687 36.8966 380.19 37.7123C379.692 38.528 378.981 39.1727 378.143 39.5676C377.306 39.9626 376.377 40.0908 375.472 39.9365C374.567 39.7822 373.723 39.3521 373.045 38.6988C372.366 38.0454 371.882 37.1971 371.652 36.2573C371.421 35.3176 371.454 34.327 371.746 33.4067C372.038 32.4864 372.578 31.6761 373.298 31.0747C373.322 31.0548 373.344 31.0316 373.364 31.0057L373.389 30.9557V22.9999C373.389 22.2043 373.688 21.4413 374.219 20.8787C374.75 20.3161 375.471 20 376.223 20ZM376.223 21.9999C375.991 22 375.768 22.0899 375.595 22.2527C375.422 22.4154 375.312 22.6397 375.285 22.8829L375.278 22.9999V30.9577C375.278 31.6327 374.96 32.1837 374.575 32.5477L374.469 32.6437C374.012 33.0245 373.677 33.5448 373.51 34.134C373.342 34.7232 373.349 35.3527 373.531 35.9372C373.713 36.5218 374.06 37.033 374.525 37.4017C374.99 37.7704 375.551 37.9787 376.132 37.9983C376.713 38.0179 377.286 37.8479 377.772 37.5113C378.259 37.1747 378.636 36.6879 378.852 36.1168C379.069 35.5456 379.114 34.9179 378.982 34.3186C378.85 33.7193 378.547 33.1775 378.114 32.7667L377.977 32.6437C377.582 32.3137 377.23 31.7907 377.175 31.1387L377.167 30.9597V22.9999C377.167 22.8686 377.143 22.7386 377.095 22.6172C377.048 22.4959 376.978 22.3857 376.89 22.2928C376.803 22.2 376.699 22.1263 376.584 22.0761C376.469 22.0258 376.347 21.9999 376.223 21.9999ZM382.834 31.9897C383.066 31.9897 383.289 32.0798 383.462 32.2428C383.635 32.4057 383.745 32.6302 383.772 32.8737L383.779 32.9997C383.778 33.2545 383.686 33.4997 383.521 33.685C383.356 33.8703 383.13 33.9819 382.889 33.9968C382.649 34.0117 382.412 33.929 382.228 33.7654C382.043 33.6018 381.925 33.3697 381.896 33.1167L381.89 32.9897C381.89 32.7244 381.989 32.4701 382.166 32.2826C382.343 32.095 382.584 31.9897 382.834 31.9897ZM386.839 30.8197C387.01 30.9985 387.111 31.2399 387.12 31.4947C387.13 31.7495 387.046 31.9983 386.888 32.1904C386.73 32.3825 386.508 32.5032 386.268 32.528C386.029 32.5528 385.789 32.4797 385.599 32.3237L385.502 32.2337C385.33 32.0451 385.235 31.7925 385.237 31.5303C385.239 31.2681 385.339 31.0173 385.514 30.8319C385.689 30.6465 385.926 30.5413 386.173 30.539C386.421 30.5368 386.661 30.6376 386.839 30.8197ZM382.834 24.9999C383.586 24.9999 384.306 25.3159 384.838 25.8785C385.369 26.4411 385.668 27.2042 385.668 27.9998C385.668 28.7954 385.369 29.5585 384.838 30.1211C384.306 30.6836 383.586 30.9997 382.834 30.9997C382.083 30.9997 381.362 30.6836 380.831 30.1211C380.299 29.5585 380.001 28.7954 380.001 27.9998C380.001 27.2042 380.299 26.4411 380.831 25.8785C381.362 25.3159 382.083 24.9999 382.834 24.9999ZM382.834 26.9998C382.584 26.9998 382.343 27.1052 382.166 27.2927C381.989 27.4802 381.89 27.7346 381.89 27.9998C381.89 28.265 381.989 28.5193 382.166 28.7069C382.343 28.8944 382.584 28.9998 382.834 28.9998C383.085 28.9998 383.325 28.8944 383.502 28.7069C383.679 28.5193 383.779 28.265 383.779 27.9998C383.779 27.7346 383.679 27.4802 383.502 27.2927C383.325 27.1052 383.085 26.9998 382.834 26.9998ZM387.557 26.9998C387.797 27.0001 388.029 27.0977 388.204 27.2727C388.379 27.4476 388.484 27.6868 388.498 27.9412C388.512 28.1956 388.434 28.4462 388.28 28.6416C388.125 28.8371 387.906 28.9627 387.667 28.9928L387.547 28.9998C387.306 28.9995 387.075 28.9019 386.9 28.7269C386.725 28.552 386.619 28.3128 386.605 28.0584C386.591 27.804 386.669 27.5534 386.824 27.358C386.978 27.1625 387.198 27.0369 387.437 27.0068L387.557 26.9998ZM386.844 23.7559C387.007 23.9281 387.105 24.1572 387.119 24.4002C387.134 24.6432 387.064 24.8835 386.923 25.0759L386.838 25.1769C386.668 25.3562 386.44 25.4603 386.2 25.4681C385.96 25.4758 385.726 25.3866 385.546 25.2186C385.366 25.0506 385.254 24.8163 385.231 24.5634C385.208 24.3105 385.277 24.0579 385.424 23.8569L385.509 23.7569C385.686 23.5694 385.926 23.4641 386.177 23.4641C386.427 23.4641 386.667 23.5684 386.844 23.7559ZM382.834 21.9899C383.066 21.99 383.289 22.0801 383.462 22.243C383.635 22.406 383.745 22.6305 383.772 22.8739L383.779 22.9999C383.778 23.2548 383.686 23.4999 383.521 23.6853C383.356 23.8706 383.13 23.9821 382.889 23.9971C382.649 24.012 382.412 23.9292 382.228 23.7656C382.043 23.6021 381.925 23.37 381.896 23.1169L381.89 22.9899C381.89 22.7247 381.989 22.4704 382.166 22.2828C382.343 22.0953 382.584 21.9899 382.834 21.9899Z" fill="#D9DDE3"/>
<path d="M426 34C426 34.9711 425 37 424 37.5" stroke="#D9DDE3" stroke-width="2" stroke-linecap="round" stroke-linejoin="round"/>
<path d="M434 34C434 34.9711 435 37 436 37.5" stroke="#D9DDE3" stroke-width="2" stroke-linecap="round" stroke-linejoin="round"/>
<path d="M430 33V38" stroke="#D9DDE3" stroke-width="2" stroke-linecap="round" stroke-linejoin="round"/>
<path d="M434.2 31H437.2C437.677 31 438.135 30.763 438.473 30.3412C438.81 29.9194 439 29.3473 439 28.7508C439 28.1543 438.81 27.5822 438.473 27.1603C438.135 26.7385 437.677 26.5016 437.2 26.5016C437.202 25.9428 437.079 25.3944 436.844 24.919C436.609 24.4435 436.272 24.06 435.871 23.8121C435.47 23.5642 435.022 23.4618 434.577 23.5167C434.132 23.5715 433.708 23.7814 433.354 24.1224C432.967 23.4645 432.462 22.9296 431.88 22.5609C431.297 22.1921 430.653 22 430 22C429.347 22 428.703 22.1921 428.12 22.5609C427.538 22.9296 427.033 23.4645 426.646 24.1224C426.292 23.7814 425.868 23.5715 425.423 23.5167C424.978 23.4618 424.53 23.5642 424.129 23.8121C423.728 24.06 423.391 24.4435 423.156 24.919C422.921 25.3944 422.798 25.9428 422.8 26.5016C422.323 26.5016 421.865 26.7385 421.527 27.1603C421.19 27.5822 421 28.1543 421 28.7508C421 29.3473 421.19 29.9194 421.527 30.3412C421.865 30.763 422.323 31 422.8 31H425.2" fill="#D9DDE3"/>
<path d="M471 39V24.7C471 23.7166 471.371 22.8542 472.113 22.1125C472.854 21.3708 473.717 21 474.7 21H482.3C483.283 21 484.146 21.3708 484.888 22.1125C485.629 22.8542 486 23.7166 486 24.7V25.8H484.5V24.7C484.5 24.1166 484.279 23.6041 483.837 23.1625C483.396 22.7208 482.883 22.5 482.3 22.5H474.7C474.117 22.5 473.604 22.7208 473.162 23.1625C472.721 23.6041 472.5 24.1166 472.5 24.7V37.5H484.5V34.275H486V39H471ZM478.5 33.75C479.55 33.75 480.438 33.3875 481.163 32.6625C481.888 31.9375 482.25 31.05 482.25 30C482.25 28.95 481.888 28.0625 481.163 27.3375C480.438 26.6125 479.55 26.25 478.5 26.25C477.45 26.25 476.562 26.6125 475.838 27.3375C475.113 28.0625 474.75 28.95 474.75 30C474.75 31.05 475.113 31.9375 475.838 32.6625C476.562 33.3875 477.45 33.75 478.5 33.75ZM478.5 32.25C477.85 32.25 477.312 32.0375 476.887 31.6125C476.462 31.1875 476.25 30.65 476.25 30C476.25 29.35 476.462 28.8125 476.887 28.3875C477.312 27.9625 477.85 27.75 478.5 27.75C479.15 27.75 479.688 27.9625 480.113 28.3875C480.538 28.8125 480.75 29.35 480.75 30C480.75 30.65 480.538 31.1875 480.113 31.6125C479.688 32.0375 479.15 32.25 478.5 32.25ZM485.225 29.475V27.975H485.85C486.083 27.975 486.292 27.9208 486.475 27.8125C486.658 27.7042 486.808 27.525 486.925 27.275C487.125 26.8416 487.45 26.4875 487.9 26.2125C488.35 25.9375 488.833 25.8 489.35 25.8H490V27.3H489.35C489.117 27.3 488.908 27.3584 488.725 27.475C488.542 27.5917 488.392 27.7584 488.275 27.975C488.042 28.425 487.708 28.7875 487.275 29.0625C486.842 29.3375 486.367 29.475 485.85 29.475H485.225ZM485.225 33.175V31.675H485.85C486.083 31.675 486.292 31.6208 486.475 31.5125C486.658 31.4042 486.808 31.225 486.925 30.975C487.125 30.525 487.45 30.175 487.9 29.925C488.35 29.675 488.833 29.55 489.35 29.55H490V31.05H489.35C489.117 31.05 488.908 31.0958 488.725 31.1875C488.542 31.2792 488.392 31.4417 488.275 31.675C488.042 32.125 487.708 32.4875 487.275 32.7625C486.842 33.0375 486.367 33.175 485.85 33.175H485.225Z" fill="#D9DDE3"/>
<path d="M478.5 32.25C477.85 32.25 477.312 32.0375 476.887 31.6125C476.462 31.1875 476.25 30.65 476.25 30C476.25 29.35 476.462 28.8125 476.887 28.3875C477.312 27.9625 477.85 27.75 478.5 27.75C479.15 27.75 479.688 27.9625 480.113 28.3875C480.538 28.8125 480.75 29.35 480.75 30C480.75 30.65 480.538 31.1875 480.113 31.6125C479.688 32.0375 479.15 32.25 478.5 32.25Z" fill="#D9DDE3"/>
<path d="M523.5 21.25C523.5 20.5596 522.94 20 522.25 20C521.56 20 521 20.5596 521 21.25V38.75C521 39.4404 521.56 40 522.25 40C522.94 40 523.5 39.4404 523.5 38.75V21.25Z" fill="#D9DDE3"/>
<path d="M526 23.125C526 22.7798 525.72 22.5 525.375 22.5C525.03 22.5 524.75 22.7798 524.75 23.125V36.875C524.75 37.2202 525.03 37.5 525.375 37.5C525.72 37.5 526 37.2202 526 36.875V23.125Z" fill="#D9DDE3"/>
<path d="M527.886 26.9331C529.796 26.9331 531.705 26.9331 531.807 26.9331C532.216 26.9331 533.239 26.7687 533.239 25.4869C533.239 24.0406 531.057 24.0735 531.057 25.191" stroke="#D9DDE3" stroke-width="1.5" stroke-miterlimit="10" stroke-linecap="round" stroke-linejoin="round"/>
<path d="M527.989 32.4419C529.761 32.4419 531.398 32.4419 531.5 32.4419C531.909 32.4419 532.932 32.6062 532.932 33.8881C532.932 35.3344 530.75 35.3015 530.75 34.1839" stroke="#D9DDE3" stroke-width="1.5" stroke-miterlimit="10" stroke-linecap="round" stroke-linejoin="round"/>
<path d="M527.75 29.7861C529.523 29.7861 537.466 29.7861 537.568 29.7861C537.977 29.7861 539 29.9505 539 31.2324C539 32.6786 536.818 32.6457 536.818 31.5282" stroke="#D9DDE3" stroke-width="1.5" stroke-miterlimit="10" stroke-linecap="round" stroke-linejoin="round"/>
<mask id="mask2_5_2" style="mask-type:luminance" maskUnits="userSpaceOnUse" x="570" y="20" width="20" height="20">
<path d="M590 20H570V40H590V20Z" fill="white"/>
</mask>
<g mask="url(#mask2_5_2)">
<path d="M577.5 32.5C580.261 32.5 582.5 30.2614 582.5 27.5C582.5 24.7386 580.261 22.5 577.5 22.5C574.739 22.5 572.5 24.7386 572.5 27.5C572.5 30.2614 574.739 32.5 577.5 32.5Z" stroke="#D9DDE3" stroke-width="5"/>
<path d="M581.5 37H572.5C571.672 37 571 37.6716 571 38.5C571 39.3284 571.672 40 572.5 40H581.5C582.328 40 583 39.3284 583 38.5C583 37.6716 582.328 37 581.5 37Z" fill="#D9DDE3"/>
<path d="M588.5 29C589.328 29 590 28.3284 590 27.5C590 26.6716 589.328 26 588.5 26C587.672 26 587 26.6716 587 27.5C587 28.3284 587.672 29 588.5 29Z" fill="#D9DDE3"/>
<path d="M589 28C589 28.7097 589 37.2258 582 39" stroke="#D9DDE3"/>
</g>
<mask id="mask3_5_2" style="mask-type:luminance" maskUnits="userSpaceOnUse" x="620" y="20" width="20" height="20">
<path d="M640 20H620V40H640V20Z" fill="white"/>
</mask>
<g mask="url(#mask3_5_2)">
<path d="M623 39C623 37.6329 621 37.0937 621 36C621 34.6329 623 34.5949 623 33C623 31.4051 621 31.3671 621 30C621 28.6329 623 28.3671 623 27C623 25.6329 621 25.1392 621 24C621 22.8608 623 22.5949 623 21" stroke="#D9DDE3" stroke-width="1.5" stroke-linecap="round"/>
<path d="M637 21C637 22.3671 639 22.9063 639 24C639 25.3671 637 25.4051 637 27C637 28.5949 639 28.6329 639 30C639 31.3671 637 31.6329 637 33C637 34.3671 639 34.8608 639 36C639 37.1392 637 37.4051 637 39" stroke="#D9DDE3" stroke-width="1.5" stroke-linecap="round"/>
<path d="M626.722 27.3846L629.053 25.6465C629.314 25.4499 629.633 25.349 629.957 25.3598C630.352 25.3699 630.734 25.5062 631.051 25.7497C631.367 25.9933 631.602 26.3319 631.722 26.7186C631.857 27.1539 631.981 27.4481 632.093 27.6011C632.431 28.0646 632.87 28.4408 633.375 28.6997C633.656 28.8439 633.953 28.9495 634.258 29.0148C634.662 29.1009 635 29.4275 635 29.8402C635 30.2523 634.664 30.5922 634.257 30.5308C633.763 30.4565 633.282 30.3076 632.828 30.088C632.149 29.7592 631.549 29.2798 631.072 28.6845L630.565 31.6373L632.063 32.929L633.44 36.8131C633.573 37.1884 633.381 37.601 633.008 37.7404C632.626 37.8831 632.201 37.685 632.065 37.3007L630.829 33.816L628.364 31.6918C628.162 31.5241 628.007 31.3038 627.916 31.0537C627.825 30.8037 627.8 30.5332 627.846 30.2703L628.216 28.1163L627.723 28.4836L626.611 30.0553C626.373 30.3921 625.904 30.4663 625.573 30.2196C625.254 29.9816 625.183 29.5326 625.413 29.2076L626.71 27.3756L626.722 27.3846ZM631 24.9865C630.615 24.9865 630.245 24.8291 629.972 24.5491C629.699 24.2691 629.546 23.8893 629.546 23.4932C629.546 23.0972 629.699 22.7174 629.972 22.4374C630.245 22.1573 630.615 22 631 22C631.386 22 631.756 22.1573 632.029 22.4374C632.301 22.7174 632.455 23.0972 632.455 23.4932C632.455 23.8893 632.301 24.2691 632.029 24.5491C631.756 24.8291 631.386 24.9865 631 24.9865ZM628.839 34.8276L626.979 37.1034C626.717 37.4233 626.244 37.4648 625.93 37.1952C625.628 36.9351 625.589 36.4818 625.841 36.1732L627.552 34.0803L628.094 32.4526L629.397 33.5726L628.839 34.8276Z" fill="#D9DDE3"/>
</g>
<path d="M687 39V25H673V39" stroke="#D9DDE3" stroke-width="2" stroke-linecap="round" stroke-linejoin="round"/>
<path d="M679.949 21V22.765M676 21.4714L677.017 23M684 21.4713L682.983 22.9998" stroke="#D9DDE3" stroke-width="1.5" stroke-linecap="round" stroke-linejoin="round"/>
<path d="M680 30C680.828 30 681.5 29.3284 681.5 28.5C681.5 27.6716 680.828 27 680 27C679.172 27 678.5 27.6716 678.5 28.5C678.5 29.3284 679.172 30 680 30Z" fill="#D9DDE3"/>
<path d="M677.5 33.1691V36.1548H678.666V40H681.337V36.1548H682.5V33.1691C682.5 32.5942 682.237 32.0429 681.768 31.6361C681.3 31.2294 680.664 31.0006 680.001 31C679.338 31 678.702 31.2285 678.233 31.6353C677.764 32.0421 677.5 32.5938 677.5 33.1691Z" fill="#D9DDE3"/>
<path fill-rule="evenodd" clip-rule="evenodd" d="M730 20C726.134 20 723 23.3131 723 27.4C723 29.7541 724.04 31.8515 725.659 33.2059C725.73 33.4711 725.798 33.7151 725.858 33.9212C726.036 34.5347 726.53 35.0047 727.164 35.0747C727.714 35.1354 728.623 35.2001 730 35.2001C731.377 35.2001 732.286 35.1354 732.836 35.0747C733.47 35.0047 733.964 34.5347 734.142 33.9212C734.202 33.7151 734.27 33.4711 734.341 33.2059C735.96 31.8515 737 29.7541 737 27.4C737 23.3131 733.866 20 730 20ZM730 23.6C731.776 23.6 733.216 25.1223 733.216 27C733.216 27.3314 733.47 27.6 733.784 27.6C734.097 27.6 734.351 27.3314 734.351 27C734.351 24.4595 732.403 22.4 730 22.4C729.687 22.4 729.432 22.6686 729.432 23C729.432 23.3314 729.687 23.6 730 23.6ZM727.066 37.0692C726.963 37.0578 726.862 37.04 726.764 37.0161C726.785 37.1367 726.805 37.2506 726.823 37.3564C726.954 38.0932 727.469 38.7501 728.251 38.8752C728.676 38.9432 729.254 39 730 39C730.709 39 731.295 38.9486 731.745 38.8861C732.644 38.7614 733.231 37.9762 733.32 37.1101L733.332 36.9903C733.204 37.0274 733.071 37.054 732.934 37.0692C732.346 37.134 731.405 37.2 730 37.2C728.595 37.2 727.653 37.134 727.066 37.0692Z" fill="#D9DDE3"/>
<path d="M783.684 30.5787C784.149 30.5787 784.526 30.2017 784.526 29.7366C784.526 29.2716 784.149 28.8945 783.684 28.8945C783.219 28.8945 782.842 29.2716 782.842 29.7366C782.842 30.2017 783.219 30.5787 783.684 30.5787Z" fill="#D9DDE3"/>
<path d="M780 30.5787C780.465 30.5787 780.842 30.2017 780.842 29.7366C780.842 29.2716 780.465 28.8945 780 28.8945C779.535 28.8945 779.158 29.2716 779.158 29.7366C779.158 30.2017 779.535 30.5787 780 30.5787Z" fill="#D9DDE3"/>
<path d="M776.316 30.5787C776.781 30.5787 777.158 30.2017 777.158 29.7366C777.158 29.2716 776.781 28.8945 776.316 28.8945C775.851 28.8945 775.474 29.2716 775.474 29.7366C775.474 30.2017 775.851 30.5787 776.316 30.5787Z" fill="#D9DDE3"/>
<path d="M782.368 32.3954V34.316H782.982V36.7895H784.388V34.316H785V32.3954C785 32.0255 784.861 31.6708 784.615 31.4092C784.368 31.1476 784.034 31.0004 783.685 31C783.336 31 783.001 31.147 782.754 31.4087C782.507 31.6704 782.368 32.0253 782.368 32.3954Z" fill="#D9DDE3"/>
<path d="M778.684 32.3954V34.316H779.298V36.7895H780.703V34.316H781.316V32.3954C781.316 32.0255 781.177 31.6708 780.931 31.4092C780.684 31.1476 780.349 31.0004 780.001 31C779.651 31 779.317 31.147 779.07 31.4087C778.823 31.6704 778.684 32.0253 778.684 32.3954Z" fill="#D9DDE3"/>
<path d="M775 32.3954V34.316H775.614V36.7895H777.019V34.316H777.632V32.3954C777.632 32.0255 777.493 31.6708 777.246 31.4092C777 31.1476 776.665 31.0004 776.316 31C775.967 31 775.632 31.147 775.386 31.4087C775.139 31.6704 775 32.0253 775 32.3954Z" fill="#D9DDE3"/>
<path d="M782.999 25L781 28H785L782.999 25Z" fill="#D9DDE3"/>
<path d="M780 25H775L777.501 28L780 25Z" fill="#D9DDE3"/>
<path d="M785.894 22.5791H774.105C773 22.5791 772.105 23.4745 772.105 24.5791V36.8949C772.105 37.9995 773 38.8949 774.105 38.8949H785.894C786.999 38.8949 787.894 37.9995 787.894 36.8949V24.5791C787.894 23.4745 786.999 22.5791 785.894 22.5791Z" stroke="#D9DDE3" stroke-width="2"/>
<path d="M837.643 33.8636H834.547L825.606 25.219C825.477 25.0793 825.297 24.9999 825.107 25H821.357C820.608 25 820 25.6105 820 26.3636V30.7727C820 31.5258 820.608 32.1364 821.357 32.1364H823.453L832.394 39.781C832.523 39.9207 832.703 40.0001 832.893 40H837.643C838.392 40 839 39.3895 839 38.6364V35.2273C839 34.4741 838.392 33.8636 837.643 33.8636Z" fill="#D9DDE3"/>
<path d="M834.451 26.751C833.999 26.8869 833.848 27.5209 834.178 27.8922L836 29.9375C836.237 30.2042 836.622 30.2042 836.859 29.9375L838.68 27.8922C838.834 27.7199 838.894 27.4687 838.837 27.2333C838.716 26.7261 838.152 26.5562 837.821 26.9275L837.036 27.8096V24.6828C837.036 24.4392 836.921 24.2141 836.733 24.0924C836.328 23.8299 835.822 24.158 835.822 24.6828V27.8096L835.037 26.9275C834.884 26.7552 834.66 26.6879 834.451 26.751Z" fill="#D9DDE3"/>
<path d="M833.408 24.3867C833.859 24.2508 834.011 23.6168 833.68 23.2455L831.858 21.2001C831.621 20.9335 831.236 20.9335 830.999 21.2001L829.178 23.2455C829.024 23.4178 828.964 23.669 829.021 23.9044C829.142 24.4116 829.706 24.5815 830.037 24.2102L830.822 23.3281V26.4549C830.822 26.6985 830.937 26.9235 831.125 27.0453C831.53 27.3078 832.036 26.9797 832.036 26.4549V23.3281L832.821 24.2102C832.974 24.3825 833.198 24.4498 833.408 24.3867Z" fill="#D9DDE3"/>
<mask id="mask4_5_2" style="mask-type:luminance" maskUnits="userSpaceOnUse" x="870" y="20" width="20" height="20">
<path d="M890 20H870V40H890V20Z" fill="white"/>
</mask>
<g mask="url(#mask4_5_2)">
<path d="M871.75 21.5C871.336 21.5 871 21.1642 871 20.75C871 20.3358 871.336 20 871.75 20H874V21.5H871.75ZM870 40H879.25V35.75H870.85L870 40ZM874.375 26.475C874.084 26.7659 873.613 26.7687 873.319 26.4812C873.02 26.1888 873.017 25.7083 873.313 25.4125L874.9 23.825L875.975 24.875L874.375 26.475ZM871.15 34.25H879.25V30H872L871.15 34.25ZM880 24.5C878.767 24.5 877.725 24.0625 876.875 23.1875C876.025 22.3125 875.567 21.25 875.5 20H884.5C884.433 21.25 883.975 22.3125 883.125 23.1875C882.275 24.0625 881.233 24.5 880 24.5ZM880 29C879.586 29 879.25 28.6642 879.25 28.25V26H880.75V28.25C880.75 28.6642 880.414 29 880 29ZM880.75 40H890L889.15 35.75H880.75V40ZM880.75 34.25H888.85L888 30H880.75V34.25ZM886.684 26.4407C886.389 26.7358 885.911 26.7358 885.616 26.4407L884.025 24.85L885.075 23.8L886.678 25.3657C886.979 25.6598 886.982 26.1431 886.684 26.4407ZM886 21.5V20H888.25C888.664 20 889 20.3358 889 20.75C889 21.1642 888.664 21.5 888.25 21.5H886Z" fill="#D9DDE3"/>
</g>
<mask id="mask5_5_2" style="mask-type:luminance" maskUnits="userSpaceOnUse" x="20" y="70" width="20" height="20">
<path d="M40 70H20V90H40V70Z" fill="white"/>
</mask>
<g mask="url(#mask5_5_2)">
<path d="M30.1559 70.1602C22.4636 70.1605 17.6558 78.4941 21.5023 85.1605C25.3487 91.827 34.9641 91.8266 38.8099 85.1598C39.6868 83.6397 40.1484 81.9154 40.1484 80.1602C40.1423 74.6399 35.6721 70.1663 30.1559 70.1602ZM30.1559 87.9379C24.173 87.9377 20.4336 81.456 23.4253 76.271C26.417 71.0859 33.8956 71.0862 36.8868 76.2716C37.5688 77.4539 37.9279 78.795 37.9279 80.1602C37.9233 84.4538 34.4463 87.9333 30.1559 87.9379ZM30.8961 75.3453H27.9353C27.3221 75.3453 26.825 75.8428 26.825 76.4564V83.8639C26.825 84.7192 27.7502 85.2538 28.4904 84.8261C28.834 84.6276 29.0456 84.2608 29.0456 83.8639V82.7527H30.8961C33.745 82.7527 35.5257 79.6663 34.1012 77.1972C33.4401 76.0513 32.2183 75.3453 30.8961 75.3453ZM30.8961 80.5305H29.0456V77.5676H30.8961C32.0356 77.5676 32.7479 78.8022 32.1781 79.7898C31.9136 80.2482 31.4249 80.5305 30.8961 80.5305Z" fill="#D9DDE3"/>
</g>
<path d="M87.5 87H72.5C71.6716 87 71 87.6716 71 88.5C71 89.3284 71.6716 90 72.5 90H87.5C88.3284 90 89 89.3284 89 88.5C89 87.6716 88.3284 87 87.5 87Z" fill="#D9DDE3"/>
<path d="M86 84H74V87H86V84Z" fill="#D9DDE3"/>
<path d="M88 85H72L74 70H86L88 85ZM75 78V80H85V78H75ZM76 75H84V73H76V75Z" fill="#D9DDE3"/>
<mask id="mask6_5_2" style="mask-type:luminance" maskUnits="userSpaceOnUse" x="120" y="70" width="20" height="20">
<path d="M140 70H120V90H140V70Z" fill="white"/>
</mask>
<g mask="url(#mask6_5_2)">
<path d="M130.42 70.1905C130.375 70.1321 130.312 70.084 130.239 70.0507C130.166 70.0174 130.084 70 130 70C129.916 70 129.834 70.0174 129.761 70.0507C129.688 70.084 129.625 70.1321 129.58 70.1905C129.545 70.2363 126 74.8891 126 76.6677C126 77.5515 126.421 78.3991 127.172 79.024C127.922 79.6489 128.939 80 130 80C131.061 80 132.078 79.6489 132.828 79.024C133.579 78.3991 134 77.5515 134 76.6677C134 74.8932 130.455 70.2363 130.42 70.1905ZM130 78.8504C129.305 78.8493 128.639 78.6191 128.147 78.2101C127.655 77.8011 127.378 77.2466 127.375 76.6677C127.375 76.5848 127.415 76.5054 127.485 76.4468C127.555 76.3882 127.651 76.3553 127.75 76.3553C127.849 76.3553 127.945 76.3882 128.015 76.4468C128.085 76.5054 128.125 76.5848 128.125 76.6677C128.128 77.0809 128.326 77.4765 128.677 77.7683C129.029 78.0601 129.504 78.2245 130 78.2255C130.099 78.2255 130.195 78.2585 130.265 78.317C130.335 78.3756 130.375 78.4551 130.375 78.538C130.375 78.6208 130.335 78.7003 130.265 78.7589C130.195 78.8174 130.099 78.8504 130 78.8504Z" fill="#D9DDE3"/>
<path d="M130 78.8504C129.305 78.8493 128.639 78.6191 128.147 78.2101C127.655 77.8011 127.378 77.2466 127.375 76.6677C127.375 76.5848 127.415 76.5054 127.485 76.4468C127.555 76.3882 127.651 76.3553 127.75 76.3553C127.849 76.3553 127.945 76.3882 128.015 76.4468C128.085 76.5054 128.125 76.5848 128.125 76.6677C128.128 77.0809 128.326 77.4765 128.677 77.7683C129.029 78.0601 129.504 78.2245 130 78.2255C130.099 78.2255 130.195 78.2585 130.265 78.317C130.335 78.3756 130.375 78.4551 130.375 78.538C130.375 78.6208 130.335 78.7003 130.265 78.7589C130.195 78.8174 130.099 78.8504 130 78.8504Z" fill="#D9DDE3"/>
<path d="M140 90H120V83H128.896L127.04 85.8633C127.014 85.8954 127 85.9327 127 85.9707C127 86.0086 127.014 86.046 127.04 86.0781C127.064 86.1115 127.099 86.1396 127.142 86.1592C127.184 86.1788 127.234 86.1891 127.283 86.1895H129.199C129.245 86.1887 129.291 86.1976 129.332 86.2148C129.373 86.2322 129.407 86.2573 129.432 86.2881C129.453 86.3198 129.465 86.3556 129.465 86.3916C129.465 86.4276 129.453 86.4634 129.432 86.4951L127.929 88.7002C127.901 88.747 127.896 88.8 127.914 88.8496C127.932 88.8993 127.973 88.9424 128.028 88.9707C128.082 88.9953 128.145 89.0051 128.206 88.998C128.267 88.991 128.323 88.9671 128.365 88.9316L132.928 85.042C132.963 85.011 132.987 84.9727 132.996 84.9316C133.005 84.8905 132.998 84.8479 132.978 84.8096C132.955 84.772 132.919 84.7399 132.874 84.7178C132.829 84.6958 132.777 84.6841 132.724 84.6846H131.243C131.194 84.6839 131.146 84.6739 131.104 84.6543C131.061 84.6346 131.026 84.6058 131.002 84.5723C130.978 84.5388 130.966 84.5011 130.967 84.4629C130.967 84.4246 130.981 84.3874 131.006 84.3545L132.11 83H140V90Z" fill="#D9DDE3"/>
</g>
<path d="M170 89V73.75C170 72.9833 170.267 72.3333 170.8 71.8C171.333 71.2667 171.968 71 172.706 71H176.888C177.642 71 178.282 71.2667 178.807 71.8C179.332 72.3333 179.594 72.9833 179.594 73.75V76H176.642C176.232 76 175.884 76.1459 175.597 76.4375C175.31 76.7291 175.166 77.0834 175.166 77.5V83.5C175.166 83.9166 175.31 84.2709 175.597 84.5625C175.884 84.8541 176.232 85 176.642 85H179.594V89H170ZM184.293 85.475C183.916 85.475 183.542 85.425 183.173 85.325C182.804 85.225 182.448 85.1 182.103 84.95L182.571 83.525C182.899 83.6583 183.206 83.7667 183.493 83.85C183.78 83.9334 184.047 83.975 184.293 83.975C184.522 83.975 184.748 83.9417 184.969 83.875C185.191 83.8083 185.416 83.6916 185.646 83.525C186.007 83.275 186.384 83.1 186.777 83C187.171 82.9 187.524 82.85 187.835 82.85C188.18 82.85 188.54 82.9 188.918 83C189.295 83.1 189.656 83.2167 190 83.35L189.533 84.775C189.155 84.6416 188.823 84.5375 188.536 84.4625C188.249 84.3875 188.007 84.35 187.811 84.35C187.565 84.35 187.31 84.3958 187.048 84.4875C186.786 84.5791 186.523 84.7167 186.261 84.9C186.015 85.0833 185.72 85.225 185.375 85.325C185.031 85.425 184.67 85.475 184.293 85.475ZM179.594 83.5H176.642V77.5H179.594V83.5ZM184.268 81.325C183.891 81.325 183.522 81.275 183.161 81.175C182.8 81.075 182.448 80.95 182.103 80.8L182.571 79.4C182.866 79.5333 183.157 79.6375 183.444 79.7125C183.731 79.7875 184.014 79.825 184.293 79.825C184.522 79.825 184.748 79.7875 184.969 79.7125C185.191 79.6375 185.416 79.525 185.646 79.375C186.023 79.125 186.392 78.95 186.753 78.85C187.114 78.75 187.458 78.7 187.786 78.7C188.147 78.7 188.52 78.75 188.905 78.85C189.291 78.95 189.656 79.0666 190 79.2L189.508 80.625C189.18 80.5084 188.872 80.4083 188.585 80.325C188.299 80.2416 188.04 80.2 187.811 80.2C187.581 80.2 187.339 80.2416 187.085 80.325C186.831 80.4083 186.564 80.55 186.285 80.75C185.957 80.9833 185.625 81.1375 185.289 81.2125C184.953 81.2875 184.613 81.325 184.268 81.325ZM184.293 77.175C183.932 77.175 183.563 77.125 183.186 77.025C182.809 76.925 182.448 76.8 182.103 76.65L182.571 75.225C182.948 75.375 183.272 75.4875 183.542 75.5625C183.813 75.6375 184.063 75.675 184.293 75.675C184.522 75.675 184.748 75.6416 184.969 75.575C185.191 75.5083 185.416 75.3916 185.646 75.225C186.023 74.975 186.396 74.8 186.765 74.7C187.134 74.6 187.483 74.55 187.811 74.55C188.155 74.55 188.512 74.5958 188.881 74.6875C189.25 74.7792 189.623 74.9 190 75.05L189.533 76.475C189.155 76.3417 188.831 76.2375 188.561 76.1625C188.29 76.0875 188.04 76.05 187.811 76.05C187.581 76.05 187.339 76.0875 187.085 76.1625C186.831 76.2375 186.556 76.3834 186.261 76.6C185.982 76.7834 185.67 76.925 185.326 77.025C184.982 77.125 184.637 77.175 184.293 77.175Z" fill="#D9DDE3"/>
<mask id="mask7_5_2" style="mask-type:luminance" maskUnits="userSpaceOnUse" x="220" y="70" width="20" height="20">
<path d="M240 70H220V90H240V70Z" fill="white"/>
</mask>
<g mask="url(#mask7_5_2)">
<path fill-rule="evenodd" clip-rule="evenodd" d="M224.847 70.3663C225.143 69.9597 225.7 69.8794 226.092 70.1869C226.483 70.4945 226.561 71.0734 226.264 71.48C226.085 71.7267 226.005 71.9677 226 72.2132C225.995 72.4646 226.069 72.7943 226.314 73.2108C226.696 73.8594 226.901 74.5319 226.888 75.2078C226.875 75.8894 226.642 76.5004 226.264 77.0184C225.968 77.425 225.411 77.5053 225.019 77.1978C224.628 76.8902 224.55 76.3113 224.847 75.9047C225.026 75.658 225.106 75.417 225.111 75.1715C225.116 74.9201 225.042 74.5904 224.797 74.1739C224.415 73.5253 224.21 72.8528 224.223 72.177C224.236 71.4953 224.469 70.8843 224.847 70.3663ZM229.291 70.3663C229.587 69.9597 230.145 69.8794 230.536 70.1869C230.928 70.4945 231.005 71.0734 230.709 71.48C230.529 71.7267 230.449 71.9677 230.445 72.2132C230.44 72.4646 230.513 72.7943 230.758 73.2108C231.14 73.8594 231.346 74.5319 231.333 75.2078C231.32 75.8894 231.086 76.5004 230.709 77.0184C230.413 77.425 229.855 77.5053 229.464 77.1978C229.072 76.8902 228.995 76.3113 229.291 75.9047C229.471 75.658 229.551 75.417 229.555 75.1715C229.56 74.9201 229.487 74.5904 229.242 74.1739C228.86 73.5253 228.654 72.8528 228.667 72.177C228.68 71.4953 228.914 70.8843 229.291 70.3663ZM234.981 70.1869C234.589 69.8794 234.032 69.9597 233.736 70.3663C233.358 70.8843 233.125 71.4953 233.112 72.177C233.099 72.8528 233.304 73.5253 233.686 74.1739C233.931 74.5904 234.005 74.9201 234 75.1715C233.995 75.417 233.915 75.658 233.736 75.9047C233.439 76.3113 233.517 76.8902 233.908 77.1978C234.3 77.5053 234.857 77.425 235.153 77.0184C235.531 76.5004 235.764 75.8894 235.777 75.2078C235.79 74.5319 235.585 73.8594 235.203 73.2108C234.958 72.7943 234.884 72.4646 234.889 72.2132C234.894 71.9677 234.974 71.7267 235.153 71.48C235.45 71.0734 235.372 70.4945 234.981 70.1869ZM240 84.5385C240 82.9589 239.926 81.7382 239.837 80.8402C239.687 79.3324 238.498 78.301 237.104 78.2296C235.663 78.1558 233.34 78.0769 230 78.0769C226.66 78.0769 224.337 78.1558 222.896 78.2296C221.502 78.301 220.313 79.3324 220.163 80.8402C220.074 81.7382 220 82.9589 220 84.5385C220 86.118 220.074 86.3387 220.163 87.2367C220.313 88.7445 221.502 89.776 222.896 89.8473C224.337 89.9211 226.66 90 230 90C233.34 90 235.663 89.9211 237.104 89.8473C238.498 89.776 239.687 88.7445 239.837 87.2367C239.926 86.3387 240 86.118 240 84.5385ZM222.667 82.4615C222.667 81.5694 223.363 80.8462 224.222 80.8462C225.081 80.8462 225.778 81.5694 225.778 82.4615C225.778 83.3537 225.081 84.0769 224.222 84.0769C223.363 84.0769 222.667 83.3537 222.667 82.4615ZM231.526 82.0915C231.541 82.6304 231.556 83.434 231.556 84.5385C231.556 85.6429 231.541 85.4466 231.526 85.9854C231.508 86.6007 231.119 87.1667 230.475 87.2142C230.335 87.2244 230.177 87.2308 230 87.2308C229.823 87.2308 229.665 87.2244 229.525 87.2142C228.881 87.1667 228.492 86.6007 228.474 85.9854C228.459 85.4466 228.444 85.6429 228.444 84.5385C228.444 83.434 228.459 82.6304 228.474 82.0915C228.492 81.4762 228.881 80.9102 229.525 80.8628C229.665 80.8525 229.823 80.8462 230 80.8462C230.177 80.8462 230.335 80.8525 230.475 80.8628C231.119 80.9102 231.508 81.4762 231.526 82.0915ZM236.889 84.5385C236.889 83.434 236.874 82.6304 236.859 82.0915C236.842 81.4762 236.452 80.9102 235.808 80.8628C235.668 80.8525 235.51 80.8462 235.333 80.8462C235.157 80.8462 234.999 80.8525 234.859 80.8628C234.215 80.9102 233.825 81.4762 233.808 82.0915C233.792 82.6304 233.778 83.434 233.778 84.5385C233.778 85.6429 233.792 85.4466 233.808 85.9854C233.825 86.6007 234.215 87.1667 234.859 87.2142C234.999 87.2244 235.157 87.2308 235.333 87.2308C235.51 87.2308 235.668 87.2244 235.808 87.2142C236.452 87.1667 236.842 86.6007 236.859 85.9854C236.874 85.4466 236.889 85.6429 236.889 84.5385Z" fill="#D9DDE3"/>
</g>
<mask id="mask8_5_2" style="mask-type:luminance" maskUnits="userSpaceOnUse" x="270" y="70" width="20" height="20">
<path d="M290 70H270V90H290V70Z" fill="white"/>
</mask>
<g mask="url(#mask8_5_2)">
<path fill-rule="evenodd" clip-rule="evenodd" d="M272.143 69.75C271.009 69.75 270 70.6177 270 71.794V78.4424C270 79.6187 271.009 80.4864 272.143 80.4864H272.975L272.974 80.4651V77.6078C272.974 76.9709 273.246 76.374 273.708 75.9442C274.167 75.5165 274.777 75.2861 275.4 75.2861H284.6C285.223 75.2861 285.833 75.5165 286.292 75.9442C286.753 76.374 287.026 76.9709 287.026 77.6078V80.4651L287.025 80.4864H287.857C288.991 80.4864 290 79.6187 290 78.4424V71.794C290 70.6177 288.991 69.75 287.857 69.75H272.143ZM285.24 80.4864H274.76V80.4651V77.6078C274.76 77.4869 274.811 77.357 274.925 77.2508C275.041 77.1427 275.211 77.072 275.4 77.072H284.6C284.789 77.072 284.959 77.1427 285.075 77.2508C285.189 77.357 285.24 77.4869 285.24 77.6078V80.4651V80.4864ZM276.786 83.6781C276.786 83.0863 276.306 82.6065 275.714 82.6065C275.123 82.6065 274.643 83.0863 274.643 83.6781V85.2496C274.643 85.7625 274.227 86.1783 273.714 86.1783H273.571C272.98 86.1783 272.5 86.658 272.5 87.2498C272.5 87.8416 272.98 88.3213 273.571 88.3213H273.714C275.411 88.3213 276.786 86.9461 276.786 85.2496V83.6781ZM284.286 82.6065C283.694 82.6065 283.214 83.0863 283.214 83.6781V85.2496C283.214 86.9461 284.589 88.3213 286.286 88.3213H286.429C287.02 88.3213 287.5 87.8416 287.5 87.2498C287.5 86.658 287.02 86.1783 286.429 86.1783H286.286C285.773 86.1783 285.357 85.7625 285.357 85.2496V83.6781C285.357 83.0863 284.877 82.6065 284.286 82.6065ZM281.071 83.6781C281.071 83.0863 280.592 82.6065 280 82.6065C279.408 82.6065 278.929 83.0863 278.929 83.6781V88.6785C278.929 89.2702 279.408 89.75 280 89.75C280.592 89.75 281.071 89.2702 281.071 88.6785V83.6781Z" fill="#D9DDE3"/>
</g>
<path fill-rule="evenodd" clip-rule="evenodd" d="M327.375 71.0786C327.375 70.4829 326.871 70 326.25 70C325.629 70 325.125 70.4829 325.125 71.0786V74.9887H324C323.172 74.9887 322.5 75.6327 322.5 76.4269V80.7415C322.5 83.1244 324.515 85.0561 327 85.0561H328.875V88.9214C328.875 89.5171 329.379 90 330 90C330.621 90 331.125 89.5171 331.125 88.9214V85.0561H333C335.485 85.0561 337.5 83.1244 337.5 80.7415V76.4269C337.5 75.6327 336.828 74.9887 336 74.9887H334.875V71.0786C334.875 70.4829 334.371 70 333.75 70C333.129 70 332.625 70.4829 332.625 71.0786V74.9887H327.375V71.0786Z" fill="#D9DDE3"/>
<mask id="mask9_5_2" style="mask-type:luminance" maskUnits="userSpaceOnUse" x="370" y="70" width="20" height="20">
<path d="M390 70H370V90H390V70Z" fill="white"/>
</mask>
<g mask="url(#mask9_5_2)">
<path d="M370 85.2314C370 85.4302 370.088 85.6209 370.244 85.7615C370.4 85.9021 370.612 85.9811 370.833 85.9811C371.852 85.9943 372.835 85.6439 373.567 85.0065C373.605 84.9765 373.654 84.9599 373.704 84.9599C373.755 84.9599 373.804 84.9765 373.842 85.0065C374.677 85.6279 375.724 85.972 376.808 85.9811C377.934 85.963 379.017 85.5887 379.867 84.9241C379.903 84.8946 379.951 84.8782 380 84.8782C380.049 84.8782 380.097 84.8946 380.133 84.9241C380.983 85.5887 382.066 85.963 383.192 85.9811C384.278 85.9677 385.325 85.6183 386.158 84.9915C386.196 84.9615 386.245 84.9449 386.296 84.9449C386.346 84.9449 386.395 84.9615 386.433 84.9915C387.163 85.6344 388.146 85.9903 389.167 85.9811C389.388 85.9811 389.6 85.9021 389.756 85.7615C389.912 85.6209 390 85.4302 390 85.2314C390 85.0326 389.912 84.8419 389.756 84.7013C389.6 84.5607 389.388 84.4818 389.167 84.4818C388.753 84.4825 388.347 84.3834 387.991 84.1949C387.635 84.0063 387.342 83.7352 387.142 83.4098C387.079 83.2933 386.984 83.1935 386.866 83.1199C386.747 83.0464 386.61 83.0016 386.467 82.9899C386.324 82.9775 386.179 82.9985 386.048 83.0511C385.916 83.1036 385.802 83.1859 385.717 83.2898C385.416 83.6351 385.038 83.9197 384.608 84.125C384.177 84.3304 383.703 84.4519 383.217 84.4818C382.73 84.4524 382.256 84.3311 381.825 84.1257C381.395 83.9203 381.017 83.6355 380.717 83.2898C380.635 83.189 380.527 83.1081 380.402 83.0544C380.276 83.0007 380.138 82.976 380 82.9824C379.869 82.9821 379.739 83.0098 379.621 83.0632C379.504 83.1167 379.403 83.1943 379.325 83.2898C379.025 83.6355 378.647 83.9203 378.216 84.1257C377.786 84.3311 377.311 84.4524 376.825 84.4818C376.339 84.4519 375.865 84.3304 375.434 84.125C375.003 83.9197 374.625 83.6351 374.325 83.2898C374.24 83.1851 374.126 83.102 373.994 83.0487C373.863 82.9954 373.718 82.9738 373.575 82.9858C373.431 82.9979 373.293 83.0434 373.175 83.1177C373.057 83.192 372.962 83.2926 372.9 83.4098C372.699 83.7425 372.399 84.0187 372.035 84.2079C371.67 84.3971 371.254 84.4918 370.833 84.4818C370.612 84.4818 370.4 84.5607 370.244 84.7013C370.088 84.8419 370 85.0326 370 85.2314Z" fill="#D9DDE3"/>
<path d="M389.167 88.4818C388.753 88.4825 388.347 88.3834 387.991 88.1949C387.635 88.0063 387.342 87.7352 387.142 87.4098C387.079 87.2933 386.984 87.1935 386.866 87.1199C386.747 87.0464 386.61 87.0016 386.467 86.9899C386.324 86.9775 386.179 86.9985 386.048 87.0511C385.916 87.1036 385.802 87.1859 385.717 87.2898C385.416 87.6351 385.038 87.9197 384.608 88.125C384.177 88.3304 383.703 88.4519 383.217 88.4818C382.73 88.4524 382.256 88.3311 381.825 88.1257C381.395 87.9203 381.017 87.6355 380.717 87.2898C380.635 87.189 380.527 87.1081 380.402 87.0544C380.276 87.0007 380.138 86.976 380 86.9824C379.869 86.9821 379.739 87.0098 379.621 87.0632C379.504 87.1167 379.403 87.1943 379.325 87.2898C379.025 87.6355 378.647 87.9203 378.216 88.1257C377.786 88.3311 377.311 88.4524 376.825 88.4818C376.339 88.4519 375.865 88.3304 375.434 88.125C375.003 87.9197 374.625 87.6351 374.325 87.2898C374.24 87.1851 374.126 87.102 373.994 87.0487C373.863 86.9954 373.718 86.9738 373.575 86.9858C373.431 86.9979 373.293 87.0434 373.175 87.1177C373.057 87.192 372.962 87.2926 372.9 87.4098C372.699 87.7425 372.399 88.0187 372.035 88.2079C371.67 88.3971 371.254 88.4918 370.833 88.4818C370.612 88.4818 370.4 88.5607 370.244 88.7013C370.088 88.8419 370 89.0326 370 89.2314C370 89.4302 370.088 89.6209 370.244 89.7615C370.4 89.9021 370.612 89.9811 370.833 89.9811C371.852 89.9943 372.835 89.6439 373.567 89.0065C373.605 88.9765 373.654 88.9599 373.704 88.9599C373.755 88.9599 373.804 88.9765 373.842 89.0065C374.677 89.6279 375.724 89.972 376.808 89.9811C377.934 89.963 379.017 89.5887 379.867 88.9241C379.903 88.8946 379.951 88.8782 380 88.8782C380.049 88.8782 380.097 88.8946 380.133 88.9241C380.983 89.5887 382.066 89.963 383.192 89.9811C384.278 89.9677 385.325 89.6183 386.158 88.9915C386.196 88.9615 386.245 88.9449 386.296 88.9449C386.346 88.9449 386.395 88.9615 386.433 88.9915C387.163 89.6344 388.146 89.9903 389.167 89.9811C389.388 89.9811 389.6 89.9021 389.756 89.7615C389.912 89.6209 390 89.4302 390 89.2314C390 89.0326 389.912 88.8419 389.756 88.7013C389.6 88.5607 389.388 88.4818 389.167 88.4818Z" fill="#D9DDE3"/>
<path d="M374.817 75.4964C374.888 75.5046 374.959 75.5046 375.03 75.4964L376.581 75.0507C376.605 75.039 376.632 75.0329 376.659 75.0329C376.686 75.0329 376.712 75.039 376.736 75.0507L378.024 75.7936C378.057 75.8113 378.084 75.8375 378.103 75.8695C378.122 75.9015 378.132 75.938 378.132 75.9752C378.132 76.0125 378.122 76.049 378.103 76.081C378.084 76.1129 378.057 76.1392 378.024 76.1568L376.736 76.8998C376.712 76.9115 376.686 76.9176 376.659 76.9176C376.632 76.9176 376.605 76.9115 376.581 76.8998L375.055 76.5283C374.844 76.4714 374.619 76.5012 374.43 76.6111C374.24 76.721 374.102 76.9021 374.046 77.1144C373.989 77.3268 374.019 77.5531 374.128 77.7435C374.237 77.9339 374.417 78.0729 374.628 78.1298L375.604 78.3857C375.63 78.3933 375.654 78.4059 375.675 78.4229C375.696 78.4399 375.714 78.4608 375.727 78.4846C375.74 78.5083 375.748 78.5344 375.751 78.5614C375.754 78.5883 375.751 78.6156 375.744 78.6416L375.465 79.6157C375.436 79.7203 375.429 79.8296 375.442 79.9372C375.455 80.0449 375.49 80.1489 375.543 80.2432C375.596 80.3375 375.668 80.4203 375.753 80.4868C375.838 80.5534 375.935 80.6024 376.039 80.631H376.252C376.438 80.6374 376.62 80.5805 376.769 80.4696C376.917 80.3587 377.025 80.2003 377.073 80.0202L377.483 78.46C377.499 78.4076 377.534 78.3633 377.581 78.3362L378.878 77.585C378.908 77.5651 378.944 77.5545 378.98 77.5545C379.016 77.5545 379.052 77.5651 379.083 77.585C379.113 77.6044 379.138 77.6313 379.155 77.663C379.172 77.6948 379.181 77.7304 379.181 77.7666V79.2607C379.179 79.3154 379.159 79.3678 379.124 79.4093L377.959 80.5733C377.804 80.7331 377.719 80.9481 377.722 81.171C377.724 81.2814 377.747 81.3904 377.79 81.4918C377.834 81.5932 377.897 81.685 377.975 81.762C378.054 81.839 378.147 81.8996 378.249 81.9404C378.351 81.9812 378.459 82.0015 378.569 81.9999C378.791 81.9968 379.002 81.9053 379.156 81.7455L379.862 81.0273C379.881 81.0073 379.904 80.9914 379.929 80.9806C379.955 80.9697 379.982 80.9641 380.01 80.9641C380.037 80.9641 380.064 80.9697 380.09 80.9806C380.115 80.9914 380.138 81.0073 380.157 81.0273L380.863 81.7455C380.939 81.8228 381.03 81.8843 381.13 81.9262C381.23 81.9681 381.337 81.9897 381.445 81.9897C381.553 81.9897 381.661 81.9681 381.761 81.9262C381.861 81.8843 381.951 81.8228 382.028 81.7455C382.104 81.6687 382.165 81.5774 382.207 81.4768C382.249 81.3762 382.27 81.2683 382.27 81.1594C382.27 81.0504 382.249 80.9425 382.207 80.8419C382.165 80.7413 382.104 80.65 382.028 80.5733L380.887 79.4341C380.852 79.3926 380.832 79.3402 380.83 79.2855V77.7913C380.83 77.7552 380.839 77.7196 380.856 77.6878C380.873 77.6561 380.898 77.6292 380.928 77.6097C380.959 77.5898 380.994 77.5792 381.031 77.5792C381.067 77.5792 381.103 77.5898 381.133 77.6097L382.429 78.3609C382.477 78.388 382.512 78.4323 382.528 78.4848L382.938 80.0449C382.986 80.225 383.093 80.3834 383.242 80.4944C383.391 80.6053 383.573 80.6622 383.758 80.6558H383.972C384.076 80.6272 384.173 80.5781 384.258 80.5116C384.343 80.445 384.415 80.3622 384.468 80.2679C384.521 80.1736 384.556 80.0697 384.569 79.962C384.582 79.8543 384.575 79.7451 384.546 79.6405L384.292 78.6664C384.284 78.6403 384.282 78.6131 384.285 78.5861C384.288 78.5592 384.296 78.5331 384.309 78.5093C384.322 78.4856 384.339 78.4646 384.36 78.4477C384.381 78.4307 384.405 78.418 384.431 78.4105L385.407 78.1546C385.622 78.0867 385.8 77.9359 385.904 77.7354C386.008 77.535 386.028 77.3012 385.961 77.0855C385.893 76.8699 385.744 76.69 385.544 76.5855C385.345 76.481 385.113 76.4604 384.899 76.5283L383.348 76.9493C383.324 76.961 383.297 76.9671 383.27 76.9671C383.243 76.9671 383.217 76.961 383.192 76.9493L381.904 76.2064C381.872 76.1887 381.845 76.1625 381.826 76.1305C381.807 76.0985 381.797 76.062 381.797 76.0248C381.797 75.9875 381.807 75.951 381.826 75.919C381.845 75.8871 381.872 75.8608 381.904 75.8432L383.258 75.0754C383.282 75.0637 383.309 75.0576 383.336 75.0576C383.363 75.0576 383.39 75.0637 383.414 75.0754L384.899 75.4717C384.969 75.4798 385.041 75.4798 385.112 75.4717C385.297 75.4781 385.479 75.4212 385.628 75.3102C385.777 75.1993 385.884 75.0409 385.932 74.8608C385.961 74.7562 385.969 74.6469 385.955 74.5393C385.942 74.4316 385.908 74.3276 385.854 74.2333C385.801 74.139 385.73 74.0562 385.645 73.9897C385.559 73.9231 385.462 73.8741 385.358 73.8454L384.382 73.5895C384.33 73.5742 384.286 73.5386 384.259 73.4907C384.233 73.4427 384.227 73.3862 384.242 73.3336L384.497 72.3595C384.525 72.2549 384.533 72.1457 384.52 72.038C384.506 71.9303 384.472 71.8264 384.419 71.7321C384.365 71.6378 384.294 71.555 384.209 71.4884C384.124 71.4219 384.026 71.3728 383.922 71.3442C383.818 71.3155 383.709 71.308 383.601 71.322C383.494 71.3359 383.39 71.3712 383.297 71.4257C383.203 71.4802 383.121 71.5528 383.055 71.6394C382.989 71.726 382.941 71.8249 382.913 71.9303L382.503 73.4905C382.487 73.5429 382.452 73.5872 382.405 73.6143L381.109 74.3655C381.078 74.3854 381.043 74.396 381.006 74.396C380.97 74.396 380.934 74.3854 380.904 74.3655C380.875 74.3494 380.851 74.3268 380.832 74.2996C380.814 74.2724 380.802 74.2413 380.797 74.2087V72.7145C380.799 72.6598 380.819 72.6074 380.854 72.5659L381.995 71.4267C382.149 71.2669 382.234 71.0519 382.231 70.829C382.228 70.606 382.137 70.3935 381.978 70.238C381.819 70.0826 381.606 69.997 381.384 70.0001C381.163 70.0032 380.952 70.0947 380.797 70.2545L380.092 70.9727C380.072 70.9927 380.05 71.0086 380.024 71.0194C379.999 71.0303 379.971 71.0359 379.944 71.0359C379.916 71.0359 379.889 71.0303 379.864 71.0194C379.838 71.0086 379.815 70.9927 379.796 70.9727L379.156 70.2545C379.08 70.1754 378.989 70.1122 378.888 70.0685C378.787 70.0249 378.679 70.0016 378.569 70.0001C378.459 69.9985 378.351 70.0188 378.249 70.0596C378.147 70.1004 378.054 70.161 377.975 70.238C377.816 70.3935 377.725 70.606 377.722 70.829C377.721 70.9393 377.741 71.0489 377.781 71.1515C377.822 71.2541 377.882 71.3476 377.959 71.4267L379.099 72.5659C379.134 72.6074 379.155 72.6598 379.156 72.7145V74.2087C379.157 74.2448 379.148 74.2804 379.13 74.3122C379.113 74.3439 379.088 74.3708 379.058 74.3903C379.027 74.4102 378.992 74.4208 378.955 74.4208C378.919 74.4208 378.883 74.4102 378.853 74.3903L377.557 73.6391C377.509 73.612 377.474 73.5677 377.458 73.5152L377.048 71.9551C377.021 71.8497 376.973 71.7508 376.907 71.6642C376.841 71.5776 376.759 71.5049 376.665 71.4504C376.571 71.396 376.468 71.3607 376.36 71.3467C376.253 71.3327 376.144 71.3403 376.039 71.369C375.935 71.3976 375.838 71.4466 375.753 71.5132C375.668 71.5797 375.596 71.6625 375.543 71.7568C375.49 71.8511 375.455 71.9551 375.442 72.0628C375.429 72.1704 375.436 72.2797 375.465 72.3843L375.719 73.3584C375.735 73.4109 375.728 73.4674 375.702 73.5154C375.676 73.5634 375.632 73.599 375.58 73.6143L374.604 73.8702C374.5 73.8989 374.402 73.9479 374.317 74.0144C374.232 74.081 374.161 74.1638 374.107 74.2581C374.054 74.3524 374.02 74.4564 374.006 74.564C373.993 74.6717 374.001 74.781 374.029 74.8856C374.076 75.0601 374.178 75.2144 374.321 75.3248C374.463 75.4351 374.637 75.4954 374.817 75.4964Z" fill="#D9DDE3"/>
</g>
<path fill-rule="evenodd" clip-rule="evenodd" d="M421 78C421 74.2288 421 72.3431 422.172 71.1716C423.343 70 425.229 70 429 70H431C434.771 70 436.657 70 437.828 71.1716C439 72.3431 439 74.2288 439 78V82C439 85.7712 439 87.6569 437.828 88.8284C436.657 90 434.771 90 431 90H429C425.229 90 423.343 90 422.172 88.8284C421 87.6569 421 85.7712 421 82V78ZM435.75 82C435.75 81.7807 435.738 81.5644 435.714 81.3515L435.734 81.3378L435.643 80.8902C435.126 78.2456 432.796 76.25 430 76.25C426.824 76.25 424.25 78.8244 424.25 82C424.25 85.1756 426.824 87.75 430 87.75C433.176 87.75 435.75 85.1756 435.75 82ZM426 73.25C425.586 73.25 425.25 73.5858 425.25 74C425.25 74.4142 425.586 74.75 426 74.75H434C434.414 74.75 434.75 74.4142 434.75 74C434.75 73.5858 434.414 73.25 434 73.25H426Z" fill="#D9DDE3"/>
<path d="M427.408 81.7482C427.444 81.7523 427.48 81.7523 427.515 81.7482L428.29 81.5253C428.302 81.5195 428.316 81.5164 428.329 81.5164C428.343 81.5164 428.356 81.5195 428.368 81.5253L429.012 81.8968C429.028 81.9057 429.042 81.9188 429.052 81.9347C429.061 81.9507 429.066 81.969 429.066 81.9876C429.066 82.0062 429.061 82.0245 429.052 82.0405C429.042 82.0565 429.028 82.0696 429.012 82.0784L428.368 82.4499C428.356 82.4558 428.343 82.4588 428.329 82.4588C428.316 82.4588 428.302 82.4558 428.29 82.4499L427.527 82.2642C427.422 82.2357 427.309 82.2506 427.215 82.3055C427.12 82.3605 427.051 82.451 427.023 82.5572C426.995 82.6634 427.009 82.7765 427.064 82.8717C427.119 82.967 427.209 83.0364 427.314 83.0649L427.802 83.1928C427.815 83.1966 427.827 83.203 427.838 83.2114C427.848 83.2199 427.857 83.2304 427.863 83.2423C427.87 83.2542 427.874 83.2672 427.875 83.2807C427.877 83.2942 427.876 83.3078 427.872 83.3208L427.732 83.8078C427.718 83.8601 427.714 83.9148 427.721 83.9686C427.728 84.0225 427.745 84.0744 427.771 84.1216C427.798 84.1687 427.834 84.2101 427.876 84.2434C427.919 84.2767 427.968 84.3012 428.02 84.3155H428.126C428.219 84.3187 428.31 84.2903 428.384 84.2348C428.459 84.1793 428.512 84.1001 428.536 84.0101L428.741 83.23C428.749 83.2038 428.767 83.1816 428.791 83.1681L429.439 82.7925C429.454 82.7825 429.472 82.7772 429.49 82.7772C429.508 82.7772 429.526 82.7825 429.541 82.7925C429.556 82.8022 429.569 82.8156 429.577 82.8315C429.586 82.8474 429.591 82.8652 429.591 82.8833V83.6304C429.59 83.6577 429.58 83.6839 429.562 83.7047L428.979 84.2866C428.902 84.3665 428.86 84.4741 428.861 84.5855C428.862 84.6407 428.873 84.6952 428.895 84.7459C428.917 84.7966 428.948 84.8425 428.988 84.881C429.027 84.9195 429.073 84.9498 429.124 84.9702C429.175 84.9906 429.23 85.0007 429.285 85C429.395 84.9984 429.501 84.9526 429.578 84.8727L429.931 84.5136C429.941 84.5037 429.952 84.4957 429.965 84.4903C429.977 84.4849 429.991 84.4821 430.005 84.4821C430.019 84.4821 430.032 84.4849 430.045 84.4903C430.058 84.4957 430.069 84.5037 430.079 84.5136L430.431 84.8727C430.469 84.9114 430.515 84.9421 430.565 84.9631C430.615 84.984 430.668 84.9948 430.723 84.9948C430.777 84.9948 430.83 84.984 430.88 84.9631C430.93 84.9421 430.976 84.9114 431.014 84.8727C431.052 84.8344 431.083 84.7887 431.104 84.7384C431.124 84.6881 431.135 84.6342 431.135 84.5797C431.135 84.5252 431.124 84.4712 431.104 84.421C431.083 84.3707 431.052 84.325 431.014 84.2866L430.444 83.717C430.426 83.6963 430.416 83.6701 430.415 83.6427V82.8957C430.415 82.8776 430.419 82.8598 430.428 82.8439C430.437 82.828 430.449 82.8146 430.464 82.8049C430.479 82.7949 430.497 82.7896 430.515 82.7896C430.534 82.7896 430.551 82.7949 430.567 82.8049L431.215 83.1805C431.238 83.194 431.256 83.2162 431.264 83.2424L431.469 84.0225C431.493 84.1125 431.547 84.1917 431.621 84.2472C431.696 84.3026 431.787 84.3311 431.879 84.3279H431.986C432.038 84.3136 432.087 84.2891 432.129 84.2558C432.172 84.2225 432.207 84.1811 432.234 84.134C432.261 84.0868 432.278 84.0348 432.284 83.981C432.291 83.9272 432.287 83.8725 432.273 83.8202L432.146 83.3332C432.142 83.3202 432.141 83.3065 432.142 83.2931C432.144 83.2796 432.148 83.2666 432.154 83.2547C432.161 83.2428 432.17 83.2323 432.18 83.2238C432.191 83.2153 432.203 83.209 432.216 83.2052L432.704 83.0773C432.811 83.0433 432.9 82.968 432.952 82.8677C433.004 82.7675 433.014 82.6506 432.98 82.5428C432.947 82.4349 432.872 82.345 432.772 82.2928C432.673 82.2405 432.556 82.2302 432.449 82.2642L431.674 82.4747C431.662 82.4805 431.649 82.4836 431.635 82.4836C431.622 82.4836 431.608 82.4805 431.596 82.4747L430.952 82.1032C430.936 82.0943 430.922 82.0812 430.913 82.0653C430.903 82.0493 430.898 82.031 430.898 82.0124C430.898 81.9938 430.903 81.9755 430.913 81.9595C430.922 81.9435 430.936 81.9304 430.952 81.9216L431.629 81.5377C431.641 81.5319 431.654 81.5288 431.668 81.5288C431.681 81.5288 431.695 81.5319 431.707 81.5377L432.449 81.7358C432.485 81.7399 432.521 81.7399 432.556 81.7358C432.649 81.739 432.739 81.7106 432.814 81.6551C432.888 81.5997 432.942 81.5205 432.966 81.4304C432.98 81.3781 432.984 81.3235 432.978 81.2696C432.971 81.2158 432.954 81.1638 432.927 81.1167C432.9 81.0695 432.865 81.0281 432.822 80.9948C432.78 80.9616 432.731 80.9371 432.679 80.9227L432.191 80.7948C432.165 80.7871 432.143 80.7693 432.13 80.7453C432.117 80.7213 432.114 80.6931 432.121 80.6668L432.248 80.1798C432.263 80.1275 432.267 80.0728 432.26 80.019C432.253 79.9652 432.236 79.9132 432.209 79.866C432.183 79.8189 432.147 79.7775 432.104 79.7442C432.062 79.7109 432.013 79.6864 431.961 79.6721C431.909 79.6578 431.854 79.654 431.801 79.661C431.747 79.668 431.695 79.6856 431.648 79.7128C431.601 79.7401 431.56 79.7764 431.527 79.8197C431.495 79.863 431.471 79.9124 431.457 79.9651L431.252 80.7452C431.244 80.7714 431.226 80.7936 431.202 80.8072L430.554 81.1828C430.539 81.1927 430.521 81.198 430.503 81.198C430.485 81.198 430.467 81.1927 430.452 81.1828C430.438 81.1747 430.425 81.1634 430.416 81.1498C430.407 81.1362 430.401 81.1206 430.399 81.1043V80.3573C430.399 80.3299 430.41 80.3037 430.427 80.283L430.997 79.7134C431.075 79.6335 431.117 79.5259 431.116 79.4145C431.114 79.303 431.069 79.1967 430.989 79.119C430.91 79.0413 430.803 78.9985 430.692 79C430.581 79.0016 430.476 79.0474 430.399 79.1273L430.046 79.4864C430.036 79.4963 430.025 79.5043 430.012 79.5097C429.999 79.5151 429.986 79.5179 429.972 79.5179C429.958 79.5179 429.945 79.5151 429.932 79.5097C429.919 79.5043 429.908 79.4963 429.898 79.4864L429.578 79.1273C429.54 79.0877 429.494 79.0561 429.444 79.0343C429.394 79.0124 429.339 79.0008 429.285 79C429.23 78.9993 429.175 79.0094 429.124 79.0298C429.073 79.0502 429.027 79.0805 428.988 79.119C428.908 79.1967 428.863 79.303 428.861 79.4145C428.86 79.4697 428.87 79.5245 428.891 79.5758C428.911 79.627 428.941 79.6738 428.979 79.7134L429.549 80.283C429.567 80.3037 429.577 80.3299 429.578 80.3573V81.1043C429.578 81.1224 429.574 81.1402 429.565 81.1561C429.557 81.172 429.544 81.1854 429.529 81.1951C429.514 81.2051 429.496 81.2104 429.478 81.2104C429.46 81.2104 429.442 81.2051 429.426 81.1951L428.778 80.8195C428.755 80.806 428.737 80.7838 428.729 80.7576L428.524 79.9775C428.51 79.9248 428.486 79.8754 428.453 79.8321C428.421 79.7888 428.379 79.7525 428.333 79.7252C428.286 79.698 428.234 79.6804 428.18 79.6734C428.126 79.6664 428.072 79.6701 428.02 79.6845C427.968 79.6988 427.919 79.7233 427.876 79.7566C427.834 79.7899 427.798 79.8313 427.771 79.8784C427.745 79.9256 427.728 79.9775 427.721 80.0314C427.714 80.0852 427.718 80.1399 427.732 80.1922L427.86 80.6792C427.867 80.7055 427.864 80.7337 427.851 80.7577C427.838 80.7817 427.816 80.7995 427.79 80.8072L427.302 80.9351C427.25 80.9494 427.201 80.9739 427.159 81.0072C427.116 81.0405 427.08 81.0819 427.054 81.129C427.027 81.1762 427.01 81.2282 427.003 81.282C426.996 81.3358 427 81.3905 427.015 81.4428C427.038 81.5301 427.089 81.6072 427.16 81.6624C427.232 81.7176 427.319 81.7477 427.408 81.7482Z" fill="#D9DDE3"/>
<path d="M480 70L488 74H472L480 70Z" fill="#D9DDE3"/>
<path d="M474 79H486V81C486 82.1046 485.105 83 484 83H476C474.895 83 474 82.1046 474 81V79Z" fill="#D9DDE3"/>
<path d="M486 75H474V78H486V75Z" fill="#D9DDE3"/>
<path d="M487 84H473C472.448 84 472 84.4477 472 85C472 85.5523 472.448 86 473 86H487C487.552 86 488 85.5523 488 85C488 84.4477 487.552 84 487 84Z" fill="#D9DDE3"/>
<path d="M486 87H474V88H486V87Z" fill="#D9DDE3"/>
<path d="M476 85H474V90H476V85Z" fill="#D9DDE3"/>
<path d="M486 85H484V90H486V85Z" fill="#D9DDE3"/>
<mask id="mask10_5_2" style="mask-type:luminance" maskUnits="userSpaceOnUse" x="520" y="70" width="20" height="20">
<path d="M540 70H520V90H540V70Z" fill="white"/>
</mask>
<g mask="url(#mask10_5_2)">
<path d="M527 70C530.866 70 534 73.134 534 77V89C534 89.5523 533.552 90 533 90H521C520.448 90 520 89.5523 520 89V77C520 73.134 523.134 70 527 70ZM522 84V87H532V84H522ZM522 82H532V79H522V82Z" fill="#D9DDE3"/>
<path d="M534 80H537V82H534V80Z" fill="#D9DDE3"/>
<path d="M537 79.5C537 78.6716 537.672 78 538.5 78C539.328 78 540 78.6716 540 79.5V88.5C540 89.3284 539.328 90 538.5 90C537.672 90 537 89.3284 537 88.5V79.5Z" fill="#D9DDE3"/>
</g>
<mask id="mask11_5_2" style="mask-type:luminance" maskUnits="userSpaceOnUse" x="570" y="70" width="20" height="20">
<path d="M590 70H570V90H590V70Z" fill="white"/>
</mask>
<g mask="url(#mask11_5_2)">
<path d="M587 75C587 73.6739 586.263 72.4021 584.95 71.4645C583.637 70.5268 581.857 70 580 70C578.143 70 576.363 70.5268 575.05 71.4645C573.737 72.4021 573 73.6739 573 75H587Z" fill="#D9DDE3"/>
<path d="M587 79C587 80.3261 586.263 81.5979 584.95 82.5355C583.637 83.4732 581.857 84 580 84C578.143 84 576.363 83.4732 575.05 82.5355C573.737 81.5979 573 80.3261 573 79H587Z" fill="#D9DDE3"/>
<path d="M588 76H572C571.448 76 571 76.4477 571 77C571 77.5523 571.448 78 572 78H588C588.552 78 589 77.5523 589 77C589 76.4477 588.552 76 588 76Z" fill="#D9DDE3"/>
<path d="M588 86H572C571.448 86 571 86.4477 571 87C571 87.5523 571.448 88 572 88H588C588.552 88 589 87.5523 589 87C589 86.4477 588.552 86 588 86Z" fill="#D9DDE3"/>
<path d="M573.422 86.7925L575.354 87.3101L574.837 89.242C574.694 89.7754 574.145 90.092 573.612 89.9491C573.078 89.8061 572.762 89.2578 572.905 88.7243L573.422 86.7925Z" fill="#D9DDE3"/>
<path d="M584.646 87.3101L586.578 86.7924L587.095 88.7243C587.238 89.2577 586.922 89.8061 586.388 89.949C585.855 90.092 585.306 89.7754 585.163 89.2419L584.646 87.3101Z" fill="#D9DDE3"/>
</g>
</svg>
