<svg width="126" height="24" viewBox="0 0 126 24" fill="none" xmlns="http://www.w3.org/2000/svg">
<g clip-path="url(#clip0_3058_5124)">
<path d="M-0.000488281 2.49629H8.55041V4.73242H2.36224V10.4346H8.32541V12.6707H5.40682C3.58747 12.6707 2.46236 12.7133 2.41849 12.7826C2.38024 12.8441 2.38474 14.3276 2.42974 16.0809L2.50961 19.2673H8.55041V21.5034H-0.000488281V2.49629ZM117.449 2.49317H126V4.7293H119.811V10.4315H125.775V12.6676H122.855C121.037 12.6676 119.912 12.7101 119.867 12.7795C119.83 12.841 119.835 14.3245 119.879 16.0777L119.959 19.2644H126V21.5005H117.449V2.49317ZM105.589 2.49629H108.065V19.3232L110.749 19.2897L113.435 19.2561L113.506 19.6116C113.545 19.8062 113.576 20.3115 113.576 20.7342V21.5034H105.589V2.49629ZM99.0135 11.2221L98.9255 10.6541C98.3266 6.82344 95.4304 3.61737 91.8421 2.8112C90.3241 2.47051 88.0936 2.59162 86.5995 3.09652C83.338 4.19616 80.8943 7.14515 80.3793 10.6017L80.2859 11.2316H77.5607L77.6767 10.323C77.9982 7.80197 79.0788 5.5232 80.8422 3.64439C82.3629 2.025 83.9412 1.04669 86.1194 0.377597C87.2267 0.0370199 87.5015 0.00743849 89.6545 0.000629193C91.6954 -0.00595685 92.1196 0.0303222 93.0281 0.296666C97.3101 1.54846 100.545 5.08863 101.448 9.5101C101.676 10.6218 101.721 11.3837 101.56 11.3378C101.505 11.323 100.909 11.2908 100.237 11.2666L99.0135 11.2221ZM87.7201 23.9323C84.724 23.3145 82.8632 22.3952 81.1371 20.6776C79.6845 19.2347 78.6533 17.5537 78.0662 15.6732C77.7448 14.6423 77.4833 12.8251 77.6341 12.6731C77.6914 12.6153 78.3037 12.5842 78.9946 12.606L80.2499 12.6449L80.3541 13.4929C80.6515 15.9385 82.379 18.586 84.6186 20.0315C86.1941 21.0491 88.1123 21.5377 90.0546 21.4167C91.6435 21.3171 92.6158 21.0571 94.0566 20.3466C95.6746 19.5485 97.266 17.9506 98.0384 16.3463C98.6374 15.1027 98.9922 13.8899 98.9922 13.0877V12.5776H100.304C101.025 12.5776 101.646 12.6072 101.68 12.6436C101.832 12.7969 101.499 14.7635 101.116 15.9694C100.115 19.1149 97.6661 21.8028 94.6435 23.0734C93.0533 23.7411 91.5807 24.0142 89.6545 23.9994C88.7367 23.9928 87.8668 23.9618 87.7201 23.9323ZM62.6436 2.49629L65.7095 2.54441C68.2421 2.58459 68.8835 2.62813 69.3942 2.79121C70.4777 3.1386 71.3351 3.64115 72.0484 4.34909C73.1848 5.47709 73.7079 6.78158 73.6888 8.43345C73.6674 10.2203 73.1004 11.5728 71.9123 12.6761C70.561 13.9315 69.2198 14.3503 66.5534 14.3535L64.8938 14.3558V21.5034H62.6436V2.49629ZM68.3107 12.0674C69.8725 11.7392 70.8862 10.8502 71.2597 9.47985C71.7581 7.65261 70.9447 5.90039 69.239 5.12535C68.5932 4.83278 68.4379 4.81034 66.7221 4.77127L64.8938 4.72774V12.2338L66.2158 12.2316C66.9426 12.2305 67.8855 12.1567 68.3107 12.0674ZM51.9089 4.73242H47.4085V2.49629H58.7722V4.73242H54.2718V21.5034H51.9089V4.73242ZM36.5556 21.4051C35.7711 21.2751 34.7186 20.8361 33.9957 20.3373L33.3913 19.9212L33.3605 18.5128L33.3298 17.1055L33.8 17.5575C35.0713 18.7791 36.3468 19.3415 37.8488 19.3415C39.9429 19.3415 41.2713 18.1361 41.2713 16.2352C41.2713 15.1904 40.9624 14.4773 40.221 13.8148C39.6067 13.2666 39.1212 12.998 37.663 12.4029C35.3678 11.4651 34.1538 10.5601 33.6144 9.38842C32.7838 7.58262 33.1463 5.24502 34.4593 3.94042C36.3369 2.07334 39.9132 2.00669 41.9107 3.79944L42.3459 4.19036V6.79319L41.9963 6.39791C41.5228 5.86188 40.5604 5.23196 39.7671 4.93827C38.8266 4.59099 37.518 4.58228 36.8183 4.91974C35.5635 5.52342 35.0745 6.96241 35.6821 8.26065C36.0579 9.06091 36.7501 9.52718 38.9398 10.452C41.1438 11.3821 42.3766 12.3712 43.0193 13.723C43.8268 15.4186 43.6763 17.7158 42.6622 19.193C41.4723 20.9268 39.0223 21.8133 36.5556 21.4051ZM12.4218 21.4529C12.4218 21.412 13.7472 18.383 15.3673 14.7217C16.9875 11.0604 18.8597 6.81841 19.528 5.29681C20.1963 3.77388 20.7848 2.51471 20.8354 2.49808C20.9344 2.46604 21.1009 2.82381 23.2218 7.62147C23.9767 9.32703 25.0512 11.7447 25.6104 12.9928C26.9426 15.9686 29.2986 21.3776 29.2986 21.4618C29.2986 21.4983 28.7607 21.5138 28.1026 21.496L26.9077 21.4651L24.5224 15.9831C23.2094 12.9672 21.8503 9.82746 21.5004 9.00565C21.1504 8.18407 20.8635 7.53618 20.8613 7.56599C20.859 7.5959 19.5224 10.7357 17.8921 14.5432L14.9286 21.4651L13.6751 21.496C12.9855 21.5138 12.4218 21.4939 12.4218 21.4529Z" fill="white"/>
</g>
<defs>
<clipPath id="clip0_3058_5124">
<rect width="126" height="24" fill="white"/>
</clipPath>
</defs>
</svg>
