<svg width="220" height="60" viewBox="0 0 220 60" fill="none" xmlns="http://www.w3.org/2000/svg">
<path d="M30 20L21 26.6667V40H26.625V32.2222H33.375V40H39V26.6667L30 20Z" fill="#D9DDE3"/>
<g clip-path="url(#clip0_10_133)">
<path d="M77.8571 35.7255H76.7286L75 34L74 35.0007L75.7143 36.7405V37.8699L77.8714 40L80 37.8699L77.8571 35.7255Z" fill="#D9DDE3"/>
<rect x="68" y="24" width="2" height="10" rx="1" fill="#D9DDE3"/>
<rect x="74" y="28" width="2" height="10" rx="1" transform="rotate(90 74 28)" fill="#D9DDE3"/>
<path d="M78 29C78 33.9706 73.9706 38 69 38C64.0294 38 60 33.9706 60 29C60 24.0294 64.0294 20 69 20C73.9706 20 78 24.0294 78 29ZM61.98 29C61.98 32.877 65.123 36.02 69 36.02C72.877 36.02 76.02 32.877 76.02 29C76.02 25.123 72.877 21.98 69 21.98C65.123 21.98 61.98 25.123 61.98 29Z" fill="#D9DDE3"/>
</g>
<g clip-path="url(#clip1_10_133)">
<path d="M117.857 35.7255H116.729L115 34L114 35.0007L115.714 36.7405V37.8699L117.871 40L120 37.8699L117.857 35.7255Z" fill="#D9DDE3"/>
<rect x="114" y="28" width="2" height="10" rx="1" transform="rotate(90 114 28)" fill="#D9DDE3"/>
<path d="M118 29C118 33.9706 113.971 38 109 38C104.029 38 100 33.9706 100 29C100 24.0294 104.029 20 109 20C113.971 20 118 24.0294 118 29ZM101.98 29C101.98 32.877 105.123 36.02 109 36.02C112.877 36.02 116.02 32.877 116.02 29C116.02 25.123 112.877 21.98 109 21.98C105.123 21.98 101.98 25.123 101.98 29Z" fill="#D9DDE3"/>
</g>
<g clip-path="url(#clip2_10_133)">
<path d="M145 20H141.5C140.67 20 140 20.67 140 21.5V25H142V22H145V20ZM155 20H158.5C159.33 20 160 20.67 160 21.5V25H158V22H155V20ZM145 40H141.5C140.67 40 140 39.33 140 38.5V35H142V38H145V40ZM155 40H158.5C159.33 40 160 39.33 160 38.5V35H158V38H155V40Z" fill="#D9DDE3"/>
<path d="M153 27C153 28.656 151.665 30 150.006 30C148.347 30 147 28.656 147 27C147 25.344 148.347 24 150.006 24C151.665 24 153 25.344 153 27Z" fill="#D9DDE3"/>
<path d="M144 33.75C144 31.92 148.004 31 150 31C151.996 31 156 31.92 156 33.75V36H144V33.75Z" fill="#D9DDE3"/>
</g>
<path d="M180 27.3333H181.818V25.5556H180V27.3333ZM180 30.8889H181.818V29.1111H180V30.8889ZM180 23.7778H181.818V22C180.818 22 180 22.8 180 23.7778ZM187.273 38H189.091V36.2222H187.273V38ZM180 34.4444H181.818V32.6667H180V34.4444ZM181.818 38V36.2222H180C180 37.2 180.818 38 181.818 38ZM198.182 22H190.909V27.3333H200V23.7778C200 22.8 199.182 22 198.182 22ZM198.182 34.4444H200V32.6667H198.182V34.4444ZM187.273 23.7778H189.091V22H187.273V23.7778ZM183.636 38H185.455V36.2222H183.636V38ZM183.636 23.7778H185.455V22H183.636V23.7778ZM198.182 38C199.182 38 200 37.2 200 36.2222H198.182V38ZM198.182 30.8889H200V29.1111H198.182V30.8889ZM190.909 38H192.727V36.2222H190.909V38ZM194.545 38H196.364V36.2222H194.545V38Z" fill="#D9DDE3"/>
<defs>
<clipPath id="clip0_10_133">
<rect width="20" height="20" fill="white" transform="translate(60 20)"/>
</clipPath>
<clipPath id="clip1_10_133">
<rect width="20" height="20" fill="white" transform="translate(100 20)"/>
</clipPath>
<clipPath id="clip2_10_133">
<rect width="20" height="20" fill="white" transform="translate(140 20)"/>
</clipPath>
</defs>
</svg>
