<svg width="61" height="70" viewBox="0 0 61 70" fill="none" xmlns="http://www.w3.org/2000/svg">
<g filter="url(#filter0_d_114_2471)">
<path fill-rule="evenodd" clip-rule="evenodd" d="M34.1259 51.0935C44.4378 48.2035 52 38.7349 52 27.5C52 13.969 41.031 3 27.5 3C13.969 3 3 13.969 3 27.5C3 38.7544 10.5884 48.2364 20.9278 51.1085L27.8818 61L34.1259 51.0935Z" fill="url(#paint0_linear_114_2471)"/>
<g filter="url(#filter1_d_114_2471)">
<circle cx="27.5" cy="27.5" r="16.5" fill="white"/>
</g>
<g clip-path="url(#clip0_114_2471)">
<circle cx="25" cy="25.5" r="5" stroke="#186AE5" stroke-width="5"/>
<rect x="18.5" y="35" width="12" height="3" rx="1.5" fill="#186AE5"/>
<circle cx="36" cy="25.5" r="1.5" fill="#186AE5"/>
<path d="M36.5 26C36.5 26.7097 36.5 35.2258 29.5 37" stroke="#186AE5"/>
</g>
</g>
<defs>
<filter id="filter0_d_114_2471" x="0" y="0" width="61" height="70" filterUnits="userSpaceOnUse" color-interpolation-filters="sRGB">
<feFlood flood-opacity="0" result="BackgroundImageFix"/>
<feColorMatrix in="SourceAlpha" type="matrix" values="0 0 0 0 0 0 0 0 0 0 0 0 0 0 0 0 0 0 127 0" result="hardAlpha"/>
<feOffset dx="3" dy="3"/>
<feGaussianBlur stdDeviation="3"/>
<feComposite in2="hardAlpha" operator="out"/>
<feColorMatrix type="matrix" values="0 0 0 0 0 0 0 0 0 0 0 0 0 0 0 0 0 0 0.7 0"/>
<feBlend mode="normal" in2="BackgroundImageFix" result="effect1_dropShadow_114_2471"/>
<feBlend mode="normal" in="SourceGraphic" in2="effect1_dropShadow_114_2471" result="shape"/>
</filter>
<filter id="filter1_d_114_2471" x="6" y="6" width="43" height="43" filterUnits="userSpaceOnUse" color-interpolation-filters="sRGB">
<feFlood flood-opacity="0" result="BackgroundImageFix"/>
<feColorMatrix in="SourceAlpha" type="matrix" values="0 0 0 0 0 0 0 0 0 0 0 0 0 0 0 0 0 0 127 0" result="hardAlpha"/>
<feOffset/>
<feGaussianBlur stdDeviation="2.5"/>
<feComposite in2="hardAlpha" operator="out"/>
<feColorMatrix type="matrix" values="0 0 0 0 0 0 0 0 0 0.960784 0 0 0 0 0.74902 0 0 0 1 0"/>
<feBlend mode="normal" in2="BackgroundImageFix" result="effect1_dropShadow_114_2471"/>
<feBlend mode="normal" in="SourceGraphic" in2="effect1_dropShadow_114_2471" result="shape"/>
</filter>
<linearGradient id="paint0_linear_114_2471" x1="17" y1="3" x2="37" y2="61" gradientUnits="userSpaceOnUse">
<stop stop-color="#00F5BF"/>
<stop offset="1" stop-color="#0094D3"/>
</linearGradient>
<clipPath id="clip0_114_2471">
<rect width="20" height="20" fill="white" transform="translate(17.5 18)"/>
</clipPath>
</defs>
</svg>
