<svg width="61" height="70" viewBox="0 0 61 70" fill="none" xmlns="http://www.w3.org/2000/svg">
<g filter="url(#filter0_d_114_2437)">
<path fill-rule="evenodd" clip-rule="evenodd" d="M34.1259 51.0935C44.4378 48.2035 52 38.7349 52 27.5C52 13.969 41.031 3 27.5 3C13.969 3 3 13.969 3 27.5C3 38.7544 10.5884 48.2364 20.9278 51.1085L27.8818 61L34.1259 51.0935Z" fill="url(#paint0_linear_114_2437)"/>
<g filter="url(#filter1_d_114_2437)">
<circle cx="27.5" cy="27.5" r="16.5" fill="white"/>
</g>
<path d="M19.5 20.1579H18.5V19H36.5V20.1579H35.5H34.5H20.5H19.5Z" stroke="#186AE5" stroke-width="2"/>
<rect x="21.5" y="23" width="12" height="2" fill="#186AE5"/>
<rect x="21.5" y="26" width="12" height="2" fill="#186AE5"/>
<rect x="21.5" y="29" width="12" height="2" fill="#186AE5"/>
<rect x="21.5" y="32" width="12" height="2" fill="#186AE5"/>
<rect x="21.5" y="35" width="12" height="2" fill="#186AE5"/>
</g>
<defs>
<filter id="filter0_d_114_2437" x="0" y="0" width="61" height="70" filterUnits="userSpaceOnUse" color-interpolation-filters="sRGB">
<feFlood flood-opacity="0" result="BackgroundImageFix"/>
<feColorMatrix in="SourceAlpha" type="matrix" values="0 0 0 0 0 0 0 0 0 0 0 0 0 0 0 0 0 0 127 0" result="hardAlpha"/>
<feOffset dx="3" dy="3"/>
<feGaussianBlur stdDeviation="3"/>
<feComposite in2="hardAlpha" operator="out"/>
<feColorMatrix type="matrix" values="0 0 0 0 0 0 0 0 0 0 0 0 0 0 0 0 0 0 0.7 0"/>
<feBlend mode="normal" in2="BackgroundImageFix" result="effect1_dropShadow_114_2437"/>
<feBlend mode="normal" in="SourceGraphic" in2="effect1_dropShadow_114_2437" result="shape"/>
</filter>
<filter id="filter1_d_114_2437" x="6" y="6" width="43" height="43" filterUnits="userSpaceOnUse" color-interpolation-filters="sRGB">
<feFlood flood-opacity="0" result="BackgroundImageFix"/>
<feColorMatrix in="SourceAlpha" type="matrix" values="0 0 0 0 0 0 0 0 0 0 0 0 0 0 0 0 0 0 127 0" result="hardAlpha"/>
<feOffset/>
<feGaussianBlur stdDeviation="2.5"/>
<feComposite in2="hardAlpha" operator="out"/>
<feColorMatrix type="matrix" values="0 0 0 0 0 0 0 0 0 0.960784 0 0 0 0 0.74902 0 0 0 1 0"/>
<feBlend mode="normal" in2="BackgroundImageFix" result="effect1_dropShadow_114_2437"/>
<feBlend mode="normal" in="SourceGraphic" in2="effect1_dropShadow_114_2437" result="shape"/>
</filter>
<linearGradient id="paint0_linear_114_2437" x1="17" y1="3" x2="37" y2="61" gradientUnits="userSpaceOnUse">
<stop stop-color="#00F5BF"/>
<stop offset="1" stop-color="#0094D3"/>
</linearGradient>
</defs>
</svg>
