<svg width="61" height="70" viewBox="0 0 61 70" fill="none" xmlns="http://www.w3.org/2000/svg">
<g filter="url(#filter0_d_114_2504)">
<path fill-rule="evenodd" clip-rule="evenodd" d="M34.1259 51.0935C44.4378 48.2035 52 38.7349 52 27.5C52 13.969 41.031 3 27.5 3C13.969 3 3 13.969 3 27.5C3 38.7544 10.5884 48.2364 20.9278 51.1085L27.8818 61L34.1259 51.0935Z" fill="url(#paint0_linear_114_2504)"/>
<g filter="url(#filter1_d_114_2504)">
<circle cx="27.5" cy="27.5" r="16.5" fill="white"/>
</g>
<path d="M31.1843 28.5787C31.6494 28.5787 32.0264 28.2017 32.0264 27.7366C32.0264 27.2716 31.6494 26.8945 31.1843 26.8945C30.7192 26.8945 30.3422 27.2716 30.3422 27.7366C30.3422 28.2017 30.7192 28.5787 31.1843 28.5787Z" fill="#186AE5"/>
<path d="M27.5001 28.5787C27.9651 28.5787 28.3422 28.2017 28.3422 27.7366C28.3422 27.2716 27.9651 26.8945 27.5001 26.8945C27.035 26.8945 26.658 27.2716 26.658 27.7366C26.658 28.2017 27.035 28.5787 27.5001 28.5787Z" fill="#186AE5"/>
<path d="M23.8157 28.5787C24.2808 28.5787 24.6578 28.2017 24.6578 27.7366C24.6578 27.2716 24.2808 26.8945 23.8157 26.8945C23.3507 26.8945 22.9736 27.2716 22.9736 27.7366C22.9736 28.2017 23.3507 28.5787 23.8157 28.5787Z" fill="#186AE5"/>
<path d="M29.8684 30.3954V32.316H30.482V34.7895H31.8877V32.316H32.5V30.3954C32.5 30.0255 32.3615 29.6708 32.1149 29.4092C31.8683 29.1476 31.5338 29.0004 31.1849 29C30.8357 29 30.5009 29.147 30.254 29.4087C30.0071 29.6704 29.8684 30.0253 29.8684 30.3954Z" fill="#186AE5"/>
<path d="M26.1842 30.3954V32.316H26.7978V34.7895H28.2035V32.316H28.8158V30.3954C28.8158 30.0255 28.6773 29.6708 28.4307 29.4092C28.1841 29.1476 27.8496 29.0004 27.5007 29C27.1515 29 26.8167 29.147 26.5698 29.4087C26.3229 29.6704 26.1842 30.0253 26.1842 30.3954Z" fill="#186AE5"/>
<path d="M22.5 30.3954V32.316H23.1136V34.7895H24.5193V32.316H25.1316V30.3954C25.1316 30.0255 24.9931 29.6708 24.7465 29.4092C24.4999 29.1476 24.1654 29.0004 23.8165 29C23.4673 29 23.1325 29.147 22.8856 29.4087C22.6387 29.6704 22.5 30.0253 22.5 30.3954Z" fill="#186AE5"/>
<path d="M30.4988 23L28.5 26H32.5L30.4988 23Z" fill="#186AE5"/>
<path d="M27.5 23H22.5L25.0015 26L27.5 23Z" fill="#186AE5"/>
<rect x="19.6052" y="20.5791" width="15.7895" height="16.3158" rx="2" stroke="#186AE5" stroke-width="2"/>
</g>
<defs>
<filter id="filter0_d_114_2504" x="0" y="0" width="61" height="70" filterUnits="userSpaceOnUse" color-interpolation-filters="sRGB">
<feFlood flood-opacity="0" result="BackgroundImageFix"/>
<feColorMatrix in="SourceAlpha" type="matrix" values="0 0 0 0 0 0 0 0 0 0 0 0 0 0 0 0 0 0 127 0" result="hardAlpha"/>
<feOffset dx="3" dy="3"/>
<feGaussianBlur stdDeviation="3"/>
<feComposite in2="hardAlpha" operator="out"/>
<feColorMatrix type="matrix" values="0 0 0 0 0 0 0 0 0 0 0 0 0 0 0 0 0 0 0.7 0"/>
<feBlend mode="normal" in2="BackgroundImageFix" result="effect1_dropShadow_114_2504"/>
<feBlend mode="normal" in="SourceGraphic" in2="effect1_dropShadow_114_2504" result="shape"/>
</filter>
<filter id="filter1_d_114_2504" x="6" y="6" width="43" height="43" filterUnits="userSpaceOnUse" color-interpolation-filters="sRGB">
<feFlood flood-opacity="0" result="BackgroundImageFix"/>
<feColorMatrix in="SourceAlpha" type="matrix" values="0 0 0 0 0 0 0 0 0 0 0 0 0 0 0 0 0 0 127 0" result="hardAlpha"/>
<feOffset/>
<feGaussianBlur stdDeviation="2.5"/>
<feComposite in2="hardAlpha" operator="out"/>
<feColorMatrix type="matrix" values="0 0 0 0 0 0 0 0 0 0.960784 0 0 0 0 0.74902 0 0 0 1 0"/>
<feBlend mode="normal" in2="BackgroundImageFix" result="effect1_dropShadow_114_2504"/>
<feBlend mode="normal" in="SourceGraphic" in2="effect1_dropShadow_114_2504" result="shape"/>
</filter>
<linearGradient id="paint0_linear_114_2504" x1="17" y1="3" x2="37" y2="61" gradientUnits="userSpaceOnUse">
<stop stop-color="#00F5BF"/>
<stop offset="1" stop-color="#0094D3"/>
</linearGradient>
</defs>
</svg>
