<svg width="61" height="70" viewBox="0 0 61 70" fill="none" xmlns="http://www.w3.org/2000/svg">
<g filter="url(#filter0_d_114_2482)">
<path fill-rule="evenodd" clip-rule="evenodd" d="M34.1259 51.0935C44.4378 48.2035 52 38.7349 52 27.5C52 13.969 41.031 3 27.5 3C13.969 3 3 13.969 3 27.5C3 38.7544 10.5884 48.2364 20.9278 51.1085L27.8818 61L34.1259 51.0935Z" fill="url(#paint0_linear_114_2482)"/>
<g filter="url(#filter1_d_114_2482)">
<circle cx="27.5" cy="27.5" r="16.5" fill="white"/>
</g>
<g clip-path="url(#clip0_114_2482)">
<path d="M20.5 37C20.5 35.6329 18.5 35.0937 18.5 34C18.5 32.6329 20.5 32.5949 20.5 31C20.5 29.4051 18.5 29.3671 18.5 28C18.5 26.6329 20.5 26.3671 20.5 25C20.5 23.6329 18.5 23.1392 18.5 22C18.5 20.8608 20.5 20.5949 20.5 19" stroke="#186AE5" stroke-width="1.5" stroke-linecap="round"/>
<path d="M34.5 19C34.5 20.3671 36.5 20.9063 36.5 22C36.5 23.3671 34.5 23.4051 34.5 25C34.5 26.5949 36.5 26.6329 36.5 28C36.5 29.3671 34.5 29.6329 34.5 31C34.5 32.3671 36.5 32.8608 36.5 34C36.5 35.1392 34.5 35.4051 34.5 37" stroke="#186AE5" stroke-width="1.5" stroke-linecap="round"/>
<path d="M24.2221 25.3846L26.5528 23.6465C26.8144 23.4499 27.1327 23.349 27.4567 23.3598C27.852 23.3699 28.2343 23.5062 28.5506 23.7497C28.867 23.9933 29.1015 24.3319 29.2217 24.7186C29.357 25.1539 29.4806 25.4481 29.5926 25.6011C29.931 26.0646 30.3699 26.4408 30.8746 26.6997C31.1556 26.8439 31.4527 26.9495 31.7582 27.0148C32.1617 27.1009 32.5 27.4275 32.5 27.8402C32.5 28.2523 32.1643 28.5922 31.7568 28.5308C31.2632 28.4565 30.7816 28.3076 30.3279 28.088C29.6486 27.7592 29.0488 27.2798 28.5716 26.6845L28.0647 29.6373L29.5635 30.929L30.9404 34.8131C31.0734 35.1884 30.881 35.601 30.508 35.7404C30.126 35.8831 29.7012 35.685 29.565 35.3007L28.3294 31.816L25.8641 29.6918C25.6618 29.5241 25.507 29.3038 25.4158 29.0537C25.3246 28.8037 25.3004 28.5332 25.3456 28.2703L25.7158 26.1163L25.2234 26.4836L24.1113 28.0553C23.8731 28.3921 23.4041 28.4663 23.0735 28.2196C22.7544 27.9816 22.6834 27.5326 22.9133 27.2076L24.2097 25.3756L24.2221 25.3846ZM28.5003 22.9865C28.1145 22.9865 27.7446 22.8291 27.4718 22.5491C27.1991 22.2691 27.0459 21.8893 27.0459 21.4932C27.0459 21.0972 27.1991 20.7174 27.4718 20.4374C27.7446 20.1573 28.1145 20 28.5003 20C28.886 20 29.256 20.1573 29.5287 20.4374C29.8015 20.7174 29.9547 21.0972 29.9547 21.4932C29.9547 21.8893 29.8015 22.2691 29.5287 22.5491C29.256 22.8291 28.886 22.9865 28.5003 22.9865ZM26.339 32.8276L24.4789 35.1034C24.2174 35.4233 23.7435 35.4648 23.4304 35.1952C23.1284 34.9351 23.0887 34.4818 23.3409 34.1732L25.0518 32.0803L25.5943 30.4526L26.8968 31.5726L26.339 32.8276Z" fill="#186AE5"/>
</g>
</g>
<defs>
<filter id="filter0_d_114_2482" x="0" y="0" width="61" height="70" filterUnits="userSpaceOnUse" color-interpolation-filters="sRGB">
<feFlood flood-opacity="0" result="BackgroundImageFix"/>
<feColorMatrix in="SourceAlpha" type="matrix" values="0 0 0 0 0 0 0 0 0 0 0 0 0 0 0 0 0 0 127 0" result="hardAlpha"/>
<feOffset dx="3" dy="3"/>
<feGaussianBlur stdDeviation="3"/>
<feComposite in2="hardAlpha" operator="out"/>
<feColorMatrix type="matrix" values="0 0 0 0 0 0 0 0 0 0 0 0 0 0 0 0 0 0 0.7 0"/>
<feBlend mode="normal" in2="BackgroundImageFix" result="effect1_dropShadow_114_2482"/>
<feBlend mode="normal" in="SourceGraphic" in2="effect1_dropShadow_114_2482" result="shape"/>
</filter>
<filter id="filter1_d_114_2482" x="6" y="6" width="43" height="43" filterUnits="userSpaceOnUse" color-interpolation-filters="sRGB">
<feFlood flood-opacity="0" result="BackgroundImageFix"/>
<feColorMatrix in="SourceAlpha" type="matrix" values="0 0 0 0 0 0 0 0 0 0 0 0 0 0 0 0 0 0 127 0" result="hardAlpha"/>
<feOffset/>
<feGaussianBlur stdDeviation="2.5"/>
<feComposite in2="hardAlpha" operator="out"/>
<feColorMatrix type="matrix" values="0 0 0 0 0 0 0 0 0 0.960784 0 0 0 0 0.74902 0 0 0 1 0"/>
<feBlend mode="normal" in2="BackgroundImageFix" result="effect1_dropShadow_114_2482"/>
<feBlend mode="normal" in="SourceGraphic" in2="effect1_dropShadow_114_2482" result="shape"/>
</filter>
<linearGradient id="paint0_linear_114_2482" x1="17" y1="3" x2="37" y2="61" gradientUnits="userSpaceOnUse">
<stop stop-color="#00F5BF"/>
<stop offset="1" stop-color="#0094D3"/>
</linearGradient>
<clipPath id="clip0_114_2482">
<rect width="20" height="20" fill="white" transform="translate(17.5 18)"/>
</clipPath>
</defs>
</svg>
