<svg width="70" height="70" viewBox="0 0 70 70" fill="none" xmlns="http://www.w3.org/2000/svg">
<path fill-rule="evenodd" clip-rule="evenodd" d="M5.25 28.2034C5.25 12.627 18.5695 0 35 0C51.4305 0 64.75 12.627 64.75 28.2034C64.75 38.3095 59.2492 46.8105 53.2683 53.0843C47.2687 59.3777 40.5651 67.5546 37.6494 69.2759C36.0139 70.2413 33.9861 70.2413 32.3506 69.2759C29.4349 67.5546 22.7313 59.3777 16.7317 53.0843C10.7509 46.8105 5.25 38.3095 5.25 28.2034ZM35 39.774C41.7407 39.774 47.2051 34.5937 47.2051 28.2034C47.2051 21.8131 41.7407 16.6328 35 16.6328C28.2593 16.6328 22.7949 21.8131 22.7949 28.2034C22.7949 34.5937 28.2593 39.774 35 39.774Z" fill="white"/>
</svg>
