<svg width="26.66" height="26.66" viewBox="40 40 80 80" fill="none" xmlns="http://www.w3.org/2000/svg">
<path fill-rule="evenodd" clip-rule="evenodd" d="M120 78.156V105.315C120 109.876 119.999 112.157 119.238 113.956C118.223 116.355 116.277 118.261 113.827 119.255C111.989 120 109.661 120 105.001 120H92V93C92 91.3431 90.6569 90 89 90H71C69.3431 90 68 91.3431 68 93V120H55.0012C50.3417 120 48.012 120 46.1743 119.255C43.724 118.261 41.7761 116.355 40.7612 113.956C40 112.157 40 109.876 40 105.315V78.156C40 75.5403 40 74.2324 40.3249 73.0152C40.6127 71.9366 41.0865 70.9137 41.7261 69.9913C42.4472 68.9512 43.4516 68.0908 45.4591 66.371L45.4639 66.3669L69.4639 45.8069L69.47 45.8017C73.199 42.6072 75.0636 41.0098 77.1631 40.4019C79.014 39.866 80.986 39.866 82.8369 40.4019C84.9375 41.0101 86.8041 42.6089 90.5371 45.8069L114.537 66.3669C116.548 68.0894 117.552 68.9504 118.274 69.9913C118.913 70.9137 119.387 71.9366 119.675 73.0152C120 74.2318 120 75.5392 120 78.1525V78.156Z" fill="white"/>
<path fill-rule="evenodd" clip-rule="evenodd" d="M206 40H194V74H160V86H194V120H206V86H240V74H206V40Z" fill="white"/>
<path d="M280 74H360V86H280V74Z" fill="white"/>
<path fill-rule="evenodd" clip-rule="evenodd" d="M415.958 47.4731L407.473 55.9584L431.515 80L407.473 104.042L415.958 112.527L440 88.4853L464.042 112.527L472.527 104.042L448.485 80L472.527 55.9584L464.042 47.4731L440 71.5147L415.958 47.4731Z" fill="white"/>
</svg>
