<svg width="530" height="100" viewBox="0 0 530 100" fill="none" xmlns="http://www.w3.org/2000/svg">
<g clip-path="url(#clip0_12_251)">
<path d="M12.75 12.5L5.625 20L12.75 27.5" stroke="black" stroke-width="2" stroke-linecap="round" stroke-linejoin="round"/>
</g>
<g clip-path="url(#clip1_12_251)">
<path d="M53.625 12.5L60.75 20L53.625 27.5" stroke="black" stroke-width="2" stroke-linecap="round" stroke-linejoin="round"/>
</g>
<g clip-path="url(#clip2_12_251)">
<path d="M98.25 13.25L111.75 26.75" stroke="black" stroke-width="2" stroke-linecap="round"/>
<path d="M111.75 13.25L98.25 26.75" stroke="black" stroke-width="2" stroke-linecap="round"/>
</g>
<path d="M148 15L158 25" stroke="black" stroke-width="2" stroke-linecap="round"/>
<path d="M158 15L148 25" stroke="black" stroke-width="2" stroke-linecap="round"/>
<g clip-path="url(#clip3_12_251)">
<circle cx="202.5" cy="18.5" r="8.5" stroke="black" stroke-width="2"/>
<path d="M214 30L208.5 24.5" stroke="black" stroke-width="2" stroke-linecap="round"/>
</g>
<g clip-path="url(#clip4_12_251)">
<path fill-rule="evenodd" clip-rule="evenodd" d="M256 16.5746C254.9 16.5746 254 17.4881 254 18.6045C254 19.7209 254.9 20.6343 256 20.6343C256.53 20.6343 257.039 20.4205 257.414 20.0398C257.789 19.6591 258 19.1428 258 18.6045C258 18.0661 257.789 17.5498 257.414 17.1692C257.039 16.7885 256.53 16.5746 256 16.5746ZM256 11.5C259.27 11.5 263 13.9967 263 18.7567C263 21.7812 260.87 24.9681 256.61 28.2869C256.25 28.571 255.75 28.571 255.39 28.2869C251.13 24.9579 249 21.7812 249 18.7567C249 13.9967 252.73 11.5 256 11.5Z" fill="#323232"/>
</g>
<mask id="path-10-inside-1_12_251" fill="white">
<path d="M311 5C317.073 5 324 9.40586 324 17.8057C324 23.1429 320.044 28.7664 312.133 34.623C311.464 35.1245 310.536 35.1245 309.867 34.623C301.956 28.7486 298 23.1428 298 17.8057C298 9.40598 304.927 5.00012 311 5Z"/>
</mask>
<path d="M311 5C317.073 5 324 9.40586 324 17.8057C324 23.1429 320.044 28.7664 312.133 34.623C311.464 35.1245 310.536 35.1245 309.867 34.623C301.956 28.7486 298 23.1428 298 17.8057C298 9.40598 304.927 5.00012 311 5Z" fill="#00F5BF"/>
<path d="M311 5V3.5H311L311 5ZM324 17.8057H325.5V17.8057L324 17.8057ZM312.133 34.623L311.24 33.4174L311.233 33.423L312.133 34.623ZM309.867 34.623L310.767 33.4231L310.761 33.4187L309.867 34.623ZM298 17.8057L296.5 17.8057V17.8057H298ZM311 5V6.5C316.458 6.5 322.5 10.433 322.5 17.8057L324 17.8057L325.5 17.8057C325.5 8.37871 317.688 3.5 311 3.5V5ZM324 17.8057H322.5C322.5 22.3868 319.073 27.6194 311.24 33.4174L312.133 34.623L313.025 35.8287C321.016 29.9135 325.5 23.899 325.5 17.8057H324ZM312.133 34.623L311.233 33.423C311.098 33.5245 310.902 33.5245 310.767 33.4231L309.867 34.623L308.967 35.823C310.169 36.7246 311.831 36.7244 313.033 35.8231L312.133 34.623ZM309.867 34.623L310.761 33.4187C302.926 27.6007 299.5 22.386 299.5 17.8057H298H296.5C296.5 23.8997 300.986 29.8965 308.973 35.8274L309.867 34.623ZM298 17.8057L299.5 17.8057C299.5 10.4331 305.542 6.50011 311 6.5L311 5L311 3.5C304.312 3.50013 296.5 8.37881 296.5 17.8057L298 17.8057Z" fill="white" mask="url(#path-10-inside-1_12_251)"/>
<circle cx="311" cy="17" r="5" fill="white"/>
<circle cx="366" cy="20" r="6.5" fill="#0ABF97" stroke="white"/>
<path d="M413.575 9.17155L410.184 12.5594C409.795 12.948 410.063 13.6037 410.609 13.6037L412.785 13.6037L412.853 24.7857C412.853 25.4536 413.4 26 414.068 26C414.736 26 415.283 25.4536 415.283 24.7857L415.215 13.6037L417.391 13.6037C417.937 13.6037 418.205 12.948 417.816 12.5715L414.425 9.18369C414.194 8.94083 413.806 8.94083 413.575 9.17155Z" fill="#323232"/>
<path d="M421.575 30.8285L418.184 27.4406C417.795 27.052 418.063 26.3963 418.609 26.3963L420.785 26.3963L420.853 15.2143C420.853 14.5464 421.4 14 422.068 14C422.736 14 423.283 14.5464 423.283 15.2143L423.215 26.3963L425.391 26.3963C425.937 26.3963 426.205 27.052 425.816 27.4285L422.425 30.8163C422.194 31.0592 421.806 31.0592 421.575 30.8285Z" fill="#323232"/>
<path d="M480 0C487.941 0 497 5.87448 497 17.0742C497 24.1906 491.827 31.6892 481.481 39.498C480.607 40.1667 479.393 40.1667 478.519 39.498C468.173 31.6653 463 24.1906 463 17.0742C463 5.87449 472.059 2.58658e-06 480 0Z" fill="#25232B"/>
<path d="M470.881 16.325H479.703V17.216H475.886V17.931H478.614V20.241H473.103V20.912H478.889V21.803H471.926V19.416H477.426V18.811H471.893V17.931H474.676V17.216H470.881V16.325ZM471.266 15.093C473.202 15.016 474.335 14.477 474.577 13.784H471.739V12.893H474.676V12.068H475.897V12.893H478.845V13.784H475.996C476.238 14.477 477.371 15.016 479.307 15.093L478.966 16.006C477.206 15.885 475.908 15.423 475.292 14.642C474.676 15.423 473.367 15.885 471.607 16.006L471.266 15.093ZM480.605 12.519H481.804V13.773H484.048V12.519H485.236V16.787H480.605V12.519ZM481.562 18.448V17.513H487.931V20.065H482.783V20.857H488.239V21.803H481.584V19.185H486.743V18.448H481.562ZM481.804 15.841H484.048V14.686H481.804V15.841ZM486.721 17.095V12.101H487.931V14.07H489.273V15.06H487.931V17.095H486.721Z" fill="white"/>
<mask id="path-18-inside-2_12_251" fill="white">
<path d="M20 60C27.9413 60 36.9998 65.8745 37 77.0742C37 84.1906 31.827 91.6892 21.4814 99.498C20.6072 100.167 19.3928 100.167 18.5186 99.498C8.17299 91.6653 3 84.1906 3 77.0742C3.00021 65.8745 12.0587 60 20 60Z"/>
</mask>
<path d="M20 60C27.9413 60 36.9998 65.8745 37 77.0742C37 84.1906 31.827 91.6892 21.4814 99.498C20.6072 100.167 19.3928 100.167 18.5186 99.498C8.17299 91.6653 3 84.1906 3 77.0742C3.00021 65.8745 12.0587 60 20 60Z" fill="#00F5BF"/>
<path d="M20 60V58V60ZM37 77.0742H39V77.0742L37 77.0742ZM21.4814 99.498L20.2765 97.9017L20.2664 97.9094L21.4814 99.498ZM18.5186 99.498L19.7336 97.9094L19.7258 97.9035L18.5186 99.498ZM3 77.0742L1 77.0742V77.0742H3ZM20 60V62C27.0831 62 34.9998 67.2103 35 77.0743L37 77.0742L39 77.0742C38.9998 64.5387 28.7995 58 20 58V60ZM37 77.0742H35C35 83.1999 30.5086 90.1785 20.2765 97.9017L21.4814 99.498L22.6863 101.094C33.1454 93.1998 39 85.1812 39 77.0742H37ZM21.4814 99.498L20.2664 97.9094C20.1093 98.0296 19.8907 98.0296 19.7336 97.9094L18.5186 99.498L17.3036 101.087C18.895 102.304 21.105 102.304 22.6964 101.087L21.4814 99.498ZM18.5186 99.498L19.7258 97.9035C9.48944 90.1534 5 83.1989 5 77.0742H3H1C1 85.1823 6.85654 93.1771 17.3113 101.093L18.5186 99.498ZM3 77.0742L5 77.0743C5.00019 67.2103 12.9169 62 20 62V60V58C11.2005 58 1.00024 64.5387 1 77.0742L3 77.0742Z" fill="white" mask="url(#path-18-inside-2_12_251)"/>
<path d="M15.2519 74.4384L18.724 71.9157C19.1052 71.638 19.5761 71.4842 20.0704 71.5009C21.2744 71.5305 22.3318 72.3197 22.6996 73.4721C22.9014 74.1047 23.0854 74.5316 23.2518 74.7527C24.2402 76.0668 25.8126 76.9167 27.5835 76.9167V79.0833C25.2276 79.0833 23.1227 78.009 21.7318 76.3237L20.9761 80.6092L23.2089 82.4828L25.6174 89.0998L23.5814 89.8408L21.3715 83.7694L17.6987 80.6875C17.1056 80.208 16.784 79.4291 16.9258 78.6248L17.4768 75.5L16.7436 76.0328L14.4393 79.2042L12.6864 77.9308L15.2335 74.425L15.2519 74.4384ZM21.6252 70.9583C20.4286 70.9583 19.4585 69.9883 19.4585 68.7917C19.4585 67.595 20.4286 66.625 21.6252 66.625C22.8218 66.625 23.7919 67.595 23.7919 68.7917C23.7919 69.9883 22.8218 70.9583 21.6252 70.9583ZM18.406 85.2381L14.9242 89.3876L13.2644 87.9948L16.4875 84.1537L17.2963 81.7917L19.2367 83.4167L18.406 85.2381Z" fill="#0F2640"/>
<rect x="74" y="74" width="4" height="12" rx="1" fill="#25262E"/>
<rect x="80" y="74" width="4" height="12" rx="1" fill="#25262E"/>
<path d="M131.474 79.0254C132.175 79.4586 132.175 80.5414 131.474 80.9746L123.579 85.8476C122.877 86.2807 122 85.7393 122 84.873L122 75.127C122 74.2607 122.877 73.7193 123.579 74.1524L131.474 79.0254Z" fill="#25262E"/>
<path d="M181.849 76.4253L178.859 79.8158C178.516 80.2047 177.938 79.9374 177.938 79.3905V77.2152L168.071 77.1473C167.482 77.1473 167 76.6004 167 75.932C167 75.2636 167.482 74.7168 168.071 74.7168L177.938 74.7848V72.6095C177.938 72.0626 178.516 71.7953 178.849 72.1842L181.838 75.5747C182.052 75.8056 182.052 76.1944 181.849 76.4253Z" fill="#323232"/>
<path d="M167 76H169.5V79.75C169.5 80.4404 168.94 81 168.25 81C167.56 81 167 80.4404 167 79.75V76Z" fill="#323232"/>
<path d="M168.151 83.5747L171.141 80.1842C171.484 79.7953 172.062 80.0626 172.062 80.6095V82.7848L181.929 82.8527C182.518 82.8527 183 83.3996 183 84.068C183 84.7364 182.518 85.2832 181.929 85.2832L172.062 85.2152V87.3905C172.062 87.9374 171.484 88.2047 171.151 87.8158L168.162 84.4253C167.948 84.1944 167.948 83.8056 168.151 83.5747Z" fill="#323232"/>
<path d="M183 84H180.5V80.25C180.5 79.5596 181.06 79 181.75 79C182.44 79 183 79.5596 183 80.25V84Z" fill="#323232"/>
<defs>
<clipPath id="clip0_12_251">
<rect width="18" height="18" fill="white" transform="translate(0 11)"/>
</clipPath>
<clipPath id="clip1_12_251">
<rect width="18" height="18" fill="white" transform="translate(48 11)"/>
</clipPath>
<clipPath id="clip2_12_251">
<rect width="18" height="18" fill="white" transform="translate(96 11)"/>
</clipPath>
<clipPath id="clip3_12_251">
<rect width="24" height="24" fill="white" transform="translate(192 8)"/>
</clipPath>
<clipPath id="clip4_12_251">
<rect width="20" height="20" fill="white" transform="translate(246 10)"/>
</clipPath>
</defs>
</svg>
