<svg width="83" height="45" viewBox="0 0 83 45" fill="none" xmlns="http://www.w3.org/2000/svg">
<g clip-path="url(#clip0_2001_67)">
<mask id="mask0_2001_67" style="mask-type:luminance" maskUnits="userSpaceOnUse" x="0" y="0" width="23" height="45">
<path d="M23 0H0V45H23V0Z" fill="white"/>
</mask>
<g mask="url(#mask0_2001_67)">
<path d="M12.9354 28.2026V16.0758C12.9354 14.9875 11.7379 14.3073 10.7799 14.8514C10.3353 15.104 10.0614 15.5707 10.0614 16.0758V28.2026C5.7772 29.2909 4.29705 34.5339 7.39714 37.64C10.4972 40.7461 15.8525 39.3857 17.0367 35.1913C17.8972 32.1432 16.0488 28.9934 12.9354 28.2026ZM11.4984 36.5083C9.28605 36.5084 7.90334 34.1522 9.00943 32.2672C10.1155 30.3821 12.881 30.382 13.9873 32.2669C14.2395 32.6968 14.3724 33.1844 14.3724 33.6808C14.3724 35.2424 13.0857 36.5084 11.4984 36.5083ZM18.6833 24.8449V7.07579C18.6806 1.63429 12.6915 -1.76375 7.90293 0.959292C5.68273 2.22183 4.3148 4.55286 4.31354 7.07579V24.8449C-2.59458 30.2864 -0.924745 41.0447 7.31923 44.2098C15.5632 47.3749 24.1983 40.5731 22.8625 31.9665C22.427 29.1608 20.9353 26.6188 18.6833 24.8449ZM11.4984 42.1632C4.8613 42.1638 0.712541 35.0955 4.03058 29.4402C4.66438 28.36 5.53254 27.4305 6.57319 26.7181C6.96026 26.4522 7.18989 26.0162 7.18749 25.5518V7.07579C7.18749 3.81089 10.7799 1.77034 13.6539 3.40278C14.9877 4.1604 15.8093 5.56054 15.8093 7.07579V25.5518C15.8093 26.0138 16.0387 26.4466 16.4236 26.7111C21.8771 30.4328 21.1904 38.5671 15.1876 41.3527C14.0339 41.888 12.7739 42.1649 11.4984 42.1632Z" fill="#D9DDE3"/>
</g>
</g>
<g clip-path="url(#clip1_2001_67)">
<path d="M33 35C33 29.4771 37.4771 25 43 25C48.5228 25 53 29.4771 53 35C53 40.5228 48.5228 45 43 45C37.4771 45 33 40.5228 33 35Z" fill="#696B76"/>
<path d="M41 37H39V40H41V37Z" fill="#3C3D43"/>
<path d="M44 33H42V40H44V33Z" fill="#3C3D43"/>
<path d="M47 30H45V40H47V30Z" fill="#3C3D43"/>
</g>
<g clip-path="url(#clip2_2001_67)">
<path d="M63 35C63 29.4771 67.4771 25 73 25C78.5228 25 83 29.4771 83 35C83 40.5228 78.5228 45 73 45C67.4771 45 63 40.5228 63 35Z" fill="#696B76"/>
<path fill-rule="evenodd" clip-rule="evenodd" d="M68.7127 29C68.3896 29 68.1277 29.254 68.1277 29.5673V29.6916H67.9994C67.6763 29.6916 67.4144 29.9456 67.4144 30.259C67.4144 30.5723 67.6763 30.8263 67.9994 30.8263H68.1277V30.9506C68.1277 31.2639 68.3896 31.5179 68.7127 31.5179C69.0358 31.5179 69.2977 31.2639 69.2977 30.9506V30.8263H69.426C69.749 30.8263 70.011 30.5723 70.011 30.259C70.011 29.9456 69.749 29.6916 69.426 29.6916H69.2977V29.5673C69.2977 29.254 69.0358 29 68.7127 29ZM77.9604 29.8799C77.9604 30.3108 77.6003 30.66 77.156 30.66C76.7117 30.66 76.3516 30.3108 76.3516 29.8799C76.3516 29.4491 76.7117 29.0999 77.156 29.0999C77.6003 29.0999 77.9604 29.4491 77.9604 29.8799ZM74.0476 31.1519C74.0476 30.8386 74.3096 30.5846 74.6327 30.5846C74.9877 30.5846 75.3282 30.7213 75.5793 30.9648C75.8303 31.2082 75.9713 31.5384 75.9713 31.8827C75.9713 32.2755 75.8104 32.6522 75.524 32.93C75.2375 33.2078 74.849 33.3638 74.4439 33.3638H66.585C66.2619 33.3638 66 33.1098 66 32.7965C66 32.4832 66.2619 32.2292 66.585 32.2292H74.4439C74.5387 32.2292 74.6296 32.1927 74.6966 32.1277C74.7636 32.0627 74.8013 31.9746 74.8013 31.8827C74.8013 31.8393 74.7835 31.7977 74.7519 31.7671C74.7203 31.7364 74.6774 31.7192 74.6327 31.7192C74.3096 31.7192 74.0476 31.4652 74.0476 31.1519ZM77.5633 32.2282C77.5633 31.9149 77.8252 31.6609 78.1483 31.6609C78.6394 31.6609 79.1104 31.8501 79.4577 32.1868C79.8049 32.5236 80 32.9803 80 33.4565C80 34.0141 79.7716 34.549 79.3649 34.9433C78.9583 35.3376 78.4067 35.5591 77.8317 35.5591H66.585C66.2619 35.5591 66 35.3052 66 34.9918C66 34.6785 66.2619 34.4245 66.585 34.4245H77.8317C78.0964 34.4245 78.3503 34.3225 78.5375 34.141C78.7248 33.9595 78.8299 33.7132 78.8299 33.4565C78.8299 33.2812 78.7581 33.1131 78.6303 32.9891C78.5025 32.8652 78.3291 32.7955 78.1483 32.7955C77.8252 32.7955 77.5633 32.5416 77.5633 32.2282ZM66.585 36.6052C66.2619 36.6052 66 36.8591 66 37.1725C66 37.4858 66.2619 37.7398 66.585 37.7398H72.8641C73.2047 37.7398 73.5313 37.871 73.7721 38.1045C74.0129 38.338 74.1482 38.6547 74.1482 38.985C74.1482 39.1007 74.1247 39.2153 74.0789 39.3222C74.0332 39.4291 73.9662 39.5262 73.8817 39.608C73.7973 39.6898 73.697 39.7546 73.5867 39.7988C73.4763 39.843 73.3581 39.8656 73.2388 39.8654C72.9157 39.8649 72.6533 40.1185 72.6528 40.4318C72.6523 40.7451 72.9138 40.9995 73.2369 41C73.51 41.0005 73.7806 40.9487 74.0331 40.8476C74.2856 40.7465 74.5151 40.5981 74.7084 40.411C74.9018 40.2238 75.0551 40.0015 75.1598 39.7568C75.2644 39.5122 75.3183 39.2498 75.3183 38.985C75.3183 38.3538 75.0597 37.7485 74.5995 37.3022C74.1392 36.8559 73.515 36.6052 72.8641 36.6052H66.585ZM79.8024 37.1725C79.8024 37.6033 79.4422 37.9525 78.998 37.9525C78.5537 37.9525 78.1936 37.6033 78.1936 37.1725C78.1936 36.7417 78.5537 36.3924 78.998 36.3924C79.4422 36.3924 79.8024 36.7417 79.8024 37.1725ZM70.0238 38.5696C69.5795 38.5696 69.2193 38.9189 69.2193 39.3497C69.2193 39.7805 69.5795 40.1297 70.0238 40.1297C70.468 40.1297 70.8282 39.7805 70.8282 39.3497C70.8282 38.9189 70.468 38.5696 70.0238 38.5696ZM76.7904 38.8708C76.7904 38.5575 77.0523 38.3035 77.3754 38.3035C77.6985 38.3035 77.9604 38.5575 77.9604 38.8708V38.9951H78.0887C78.4118 38.9951 78.6737 39.2492 78.6737 39.5624C78.6737 39.8758 78.4118 40.1297 78.0887 40.1297H77.9604V40.2541C77.9604 40.5674 77.6985 40.8214 77.3754 40.8214C77.0523 40.8214 76.7904 40.5674 76.7904 40.2541V40.1297H76.6621C76.339 40.1297 76.0771 39.8758 76.0771 39.5624C76.0771 39.2492 76.339 38.9951 76.6621 38.9951H76.7904V38.8708Z" fill="#3C3D43"/>
</g>
<defs>
<clipPath id="clip0_2001_67">
<rect width="23" height="45" fill="white"/>
</clipPath>
<clipPath id="clip1_2001_67">
<rect width="20" height="20" fill="white" transform="translate(33 25)"/>
</clipPath>
<clipPath id="clip2_2001_67">
<rect width="20" height="20" fill="white" transform="translate(63 25)"/>
</clipPath>
</defs>
</svg>
