<svg width="33" height="27" viewBox="0 0 33 27" fill="none" xmlns="http://www.w3.org/2000/svg">
<g clip-path="url(#clip0_70_768)">
<path d="M10.5299 16.0984L18.1256 6.72508H13.9847C12.1248 6.72508 10.8517 7.2946 9.72064 8.61874L5.72164 13.5498V0H1.70845C0.766671 0 0 0.768852 0 1.71805V27H4.01319C4.9597 27 5.72164 26.2311 5.72164 25.2819V18.5569L8.97289 22.5577L11.7367 25.9701C12.2951 26.6725 13.0287 26.9953 13.7812 26.9953H19.3797L15.7594 22.5388L10.5299 16.0937V16.0984ZM28.0829 22.2303C27.2405 22.2303 26.5495 21.5374 26.5495 20.6878V0H22.5364C21.5946 0 20.8232 0.768852 20.8232 1.71331V21.7652C20.8232 24.8643 22.9576 27 26.0479 27H30.4586C31.4051 27 32.1718 26.2311 32.1718 25.2819V22.2255H28.0829V22.2303Z" fill="white"/>
<path d="M6.2659 12.8617L6.27537 12.8522C6.27537 12.8522 6.27063 12.8569 6.26117 12.8617H6.2659ZM32.9953 9.0364V5.2301L32.6403 5.60504C32.6261 5.60978 31.5519 6.71085 28.4662 6.71085H13.8758C11.5711 6.71085 10.4826 7.65056 9.65913 8.67095L9.20954 9.22624C9.20954 9.22624 9.18115 9.25946 9.16695 9.2737L6.27063 12.8474C7.32599 12.0501 8.76468 11.5708 10.2365 11.5708H28.4615C30.6716 11.5708 32.7965 10.9206 32.9716 9.25946C32.9953 9.12182 32.9906 9.0364 32.9906 9.0364H32.9953Z" fill="#ED1C24"/>
</g>
<defs>
<clipPath id="clip0_70_768">
<rect width="33" height="27" fill="white"/>
</clipPath>
</defs>
</svg>
