<svg width="35" height="35" viewBox="0 0 35 35" fill="none" xmlns="http://www.w3.org/2000/svg">
<rect x="0.5" y="0.5" width="34" height="34" rx="4.5" stroke="#15A686" stroke-opacity="0.6"/>
<path fill-rule="evenodd" clip-rule="evenodd" d="M9 16C9 12.2288 9 10.3431 10.1716 9.17157C11.3431 8 13.2288 8 17 8H19C22.7712 8 24.6569 8 25.8284 9.17157C27 10.3431 27 12.2288 27 16V20C27 23.7712 27 25.6569 25.8284 26.8284C24.6569 28 22.7712 28 19 28H17C13.2288 28 11.3431 28 10.1716 26.8284C9 25.6569 9 23.7712 9 20V16ZM23.75 20C23.75 19.7807 23.7377 19.5644 23.7138 19.3515L23.7338 19.3378L23.643 18.8902C23.1259 16.2456 20.796 14.25 18 14.25C14.8244 14.25 12.25 16.8244 12.25 20C12.25 23.1756 14.8244 25.75 18 25.75C21.1756 25.75 23.75 23.1756 23.75 20ZM14 11.25C13.5858 11.25 13.25 11.5858 13.25 12C13.25 12.4142 13.5858 12.75 14 12.75H22C22.4142 12.75 22.75 12.4142 22.75 12C22.75 11.5858 22.4142 11.25 22 11.25H14Z" fill="#0F2640"/>
<path d="M15.4085 19.7482C15.4439 19.7523 15.4797 19.7523 15.5151 19.7482L16.2903 19.5253C16.3025 19.5195 16.3158 19.5164 16.3293 19.5164C16.3428 19.5164 16.3561 19.5195 16.3682 19.5253L17.0122 19.8968C17.0285 19.9057 17.0421 19.9188 17.0515 19.9347C17.061 19.9507 17.066 19.969 17.066 19.9876C17.066 20.0062 17.061 20.0245 17.0515 20.0405C17.0421 20.0565 17.0285 20.0696 17.0122 20.0784L16.3682 20.4499C16.3561 20.4558 16.3428 20.4588 16.3293 20.4588C16.3158 20.4588 16.3025 20.4558 16.2903 20.4499L15.5274 20.2642C15.4219 20.2357 15.3095 20.2506 15.2149 20.3055C15.1202 20.3605 15.0512 20.451 15.0229 20.5572C14.9946 20.6634 15.0094 20.7765 15.064 20.8717C15.1187 20.967 15.2086 21.0364 15.3141 21.0649L15.8022 21.1928C15.8152 21.1966 15.8272 21.203 15.8377 21.2114C15.8482 21.2199 15.8569 21.2304 15.8634 21.2423C15.8699 21.2542 15.874 21.2672 15.8754 21.2807C15.8769 21.2942 15.8757 21.3078 15.872 21.3208L15.7325 21.8078C15.7182 21.8601 15.7143 21.9148 15.7209 21.9686C15.7276 22.0225 15.7448 22.0744 15.7715 22.1216C15.7981 22.1687 15.8338 22.2101 15.8763 22.2434C15.9189 22.2767 15.9676 22.3012 16.0196 22.3155H16.1262C16.2188 22.3187 16.3098 22.2903 16.3843 22.2348C16.4587 22.1793 16.5124 22.1001 16.5364 22.0101L16.7415 21.23C16.7494 21.2038 16.767 21.1816 16.7907 21.1681L17.4388 20.7925C17.454 20.7825 17.4718 20.7772 17.49 20.7772C17.5082 20.7772 17.526 20.7825 17.5413 20.7925C17.5564 20.8022 17.5689 20.8156 17.5775 20.8315C17.5861 20.8474 17.5906 20.8652 17.5905 20.8833V21.6304C17.5897 21.6577 17.5795 21.6839 17.5618 21.7047L16.9794 22.2866C16.9021 22.3665 16.8596 22.4741 16.8612 22.5855C16.8619 22.6407 16.8735 22.6952 16.8952 22.7459C16.9169 22.7966 16.9483 22.8425 16.9876 22.881C17.0269 22.9195 17.0734 22.9498 17.1243 22.9702C17.1753 22.9906 17.2297 23.0007 17.2846 23C17.3954 22.9984 17.501 22.9526 17.5782 22.8727L17.9309 22.5136C17.9405 22.5037 17.952 22.4957 17.9647 22.4903C17.9773 22.4849 17.991 22.4821 18.0048 22.4821C18.0186 22.4821 18.0322 22.4849 18.0449 22.4903C18.0576 22.4957 18.069 22.5037 18.0786 22.5136L18.4313 22.8727C18.4695 22.9114 18.5148 22.9421 18.5648 22.9631C18.6148 22.984 18.6684 22.9948 18.7225 22.9948C18.7767 22.9948 18.8303 22.984 18.8803 22.9631C18.9303 22.9421 18.9756 22.9114 19.0138 22.8727C19.0522 22.8344 19.0827 22.7887 19.1035 22.7384C19.1244 22.6881 19.1351 22.6342 19.1351 22.5797C19.1351 22.5252 19.1244 22.4712 19.1035 22.421C19.0827 22.3707 19.0522 22.325 19.0138 22.2866L18.4436 21.717C18.4259 21.6963 18.4158 21.6701 18.4149 21.6427V20.8957C18.4149 20.8776 18.4193 20.8598 18.4279 20.8439C18.4366 20.828 18.449 20.8146 18.4641 20.8049C18.4794 20.7949 18.4972 20.7896 18.5154 20.7896C18.5336 20.7896 18.5514 20.7949 18.5667 20.8049L19.2147 21.1805C19.2384 21.194 19.256 21.2162 19.264 21.2424L19.469 22.0225C19.4931 22.1125 19.5467 22.1917 19.6212 22.2472C19.6956 22.3026 19.7866 22.3311 19.8792 22.3279H19.9858C20.0378 22.3136 20.0865 22.2891 20.1291 22.2558C20.1717 22.2225 20.2073 22.1811 20.234 22.134C20.2606 22.0868 20.2778 22.0348 20.2845 21.981C20.2912 21.9272 20.2873 21.8725 20.2729 21.8202L20.1458 21.3332C20.142 21.3202 20.1408 21.3065 20.1423 21.2931C20.1438 21.2796 20.1478 21.2666 20.1543 21.2547C20.1608 21.2428 20.1695 21.2323 20.18 21.2238C20.1905 21.2153 20.2026 21.209 20.2155 21.2052L20.7036 21.0773C20.8108 21.0433 20.9001 20.968 20.952 20.8677C21.004 20.7675 21.0142 20.6506 20.9805 20.5428C20.9467 20.4349 20.8718 20.345 20.7722 20.2928C20.6726 20.2405 20.5565 20.2302 20.4493 20.2642L19.6741 20.4747C19.6619 20.4805 19.6486 20.4836 19.6351 20.4836C19.6217 20.4836 19.6083 20.4805 19.5962 20.4747L18.9522 20.1032C18.936 20.0943 18.9224 20.0812 18.9129 20.0653C18.9034 20.0493 18.8984 20.031 18.8984 20.0124C18.8984 19.9938 18.9034 19.9755 18.9129 19.9595C18.9224 19.9435 18.936 19.9304 18.9522 19.9216L19.629 19.5377C19.6412 19.5319 19.6545 19.5288 19.668 19.5288C19.6814 19.5288 19.6948 19.5319 19.7069 19.5377L20.4493 19.7358C20.4847 19.7399 20.5205 19.7399 20.556 19.7358C20.6485 19.739 20.7395 19.7106 20.814 19.6551C20.8884 19.5997 20.9421 19.5205 20.9661 19.4304C20.9804 19.3781 20.9843 19.3235 20.9777 19.2696C20.971 19.2158 20.9538 19.1638 20.9271 19.1167C20.9005 19.0695 20.8648 19.0281 20.8223 18.9948C20.7797 18.9616 20.731 18.9371 20.679 18.9227L20.1909 18.7948C20.1648 18.7871 20.1428 18.7693 20.1297 18.7453C20.1166 18.7213 20.1136 18.6931 20.1212 18.6668L20.2483 18.1798C20.2626 18.1275 20.2666 18.0728 20.2599 18.019C20.2532 17.9652 20.236 17.9132 20.2094 17.866C20.1827 17.8189 20.1471 17.7775 20.1045 17.7442C20.0619 17.7109 20.0132 17.6864 19.9612 17.6721C19.909 17.6578 19.8544 17.654 19.8007 17.661C19.747 17.668 19.6952 17.6856 19.6483 17.7128C19.6014 17.7401 19.5603 17.7764 19.5274 17.8197C19.4946 17.863 19.4705 17.9124 19.4567 17.9651L19.2516 18.7452C19.2437 18.7714 19.2261 18.7936 19.2024 18.8072L18.5544 19.1828C18.5391 19.1927 18.5213 19.198 18.5031 19.198C18.4849 19.198 18.4671 19.1927 18.4518 19.1828C18.4376 19.1747 18.4253 19.1634 18.4161 19.1498C18.4068 19.1362 18.4008 19.1206 18.3985 19.1043V18.3573C18.3994 18.3299 18.4095 18.3037 18.4272 18.283L18.9974 17.7134C19.0746 17.6335 19.1171 17.5259 19.1156 17.4145C19.114 17.303 19.0686 17.1967 18.9891 17.119C18.9097 17.0413 18.8029 16.9985 18.6921 17C18.5814 17.0016 18.4758 17.0474 18.3985 17.1273L18.0458 17.4864C18.0362 17.4963 18.0248 17.5043 18.0121 17.5097C17.9994 17.5151 17.9857 17.5179 17.972 17.5179C17.9582 17.5179 17.9445 17.5151 17.9318 17.5097C17.9192 17.5043 17.9077 17.4963 17.8981 17.4864L17.5782 17.1273C17.54 17.0877 17.4944 17.0561 17.444 17.0343C17.3936 17.0124 17.3394 17.0008 17.2846 17C17.2297 16.9993 17.1753 17.0094 17.1243 17.0298C17.0734 17.0502 17.0269 17.0805 16.9876 17.119C16.9082 17.1967 16.8627 17.303 16.8612 17.4145C16.8604 17.4697 16.8704 17.5245 16.8907 17.5758C16.911 17.627 16.9411 17.6738 16.9794 17.7134L17.5495 18.283C17.5672 18.3037 17.5774 18.3299 17.5782 18.3573V19.1043C17.5783 19.1224 17.5738 19.1402 17.5652 19.1561C17.5566 19.172 17.5441 19.1854 17.529 19.1951C17.5137 19.2051 17.4959 19.2104 17.4777 19.2104C17.4595 19.2104 17.4417 19.2051 17.4264 19.1951L16.7784 18.8195C16.7547 18.806 16.7371 18.7838 16.7292 18.7576L16.5241 17.9775C16.5103 17.9248 16.4863 17.8754 16.4534 17.8321C16.4205 17.7888 16.3794 17.7525 16.3325 17.7252C16.2856 17.698 16.2338 17.6804 16.1801 17.6734C16.1264 17.6664 16.0719 17.6701 16.0196 17.6845C15.9676 17.6988 15.9189 17.7233 15.8763 17.7566C15.8338 17.7899 15.7981 17.8313 15.7715 17.8784C15.7448 17.9256 15.7276 17.9775 15.7209 18.0314C15.7143 18.0852 15.7182 18.1399 15.7325 18.1922L15.8596 18.6792C15.8673 18.7055 15.8642 18.7337 15.8511 18.7577C15.838 18.7817 15.816 18.7995 15.7899 18.8072L15.3018 18.9351C15.2498 18.9494 15.2012 18.9739 15.1586 19.0072C15.116 19.0405 15.0804 19.0819 15.0537 19.129C15.027 19.1762 15.0099 19.2282 15.0032 19.282C14.9965 19.3358 15.0004 19.3905 15.0147 19.4428C15.0381 19.5301 15.0892 19.6072 15.1604 19.6624C15.2315 19.7176 15.3187 19.7477 15.4085 19.7482Z" fill="#0F2640"/>
</svg>
