<svg width="528" height="44" viewBox="0 0 528 44" fill="none" xmlns="http://www.w3.org/2000/svg">
<path d="M20.65 29.11V14.89C20.65 13.54 20.08 13 18.64 13H15.01C13.57 13 13 13.54 13 14.89V29.11C13 30.46 13.57 31 15.01 31H18.64C20.08 31 20.65 30.46 20.65 29.11Z" fill="white"/>
<path d="M31 29.11V14.89C31 13.54 30.43 13 28.99 13H25.36C23.93 13 23.35 13.54 23.35 14.89V29.11C23.35 30.46 23.92 31 25.36 31H28.99C30.43 31 31 30.46 31 29.11Z" fill="white"/>
<rect x="57" y="13" width="18" height="18" rx="3" fill="white"/>
<path d="M102 16.1335V27.8681C102 30.2714 104.383 31.7796 106.286 30.578L110.93 27.6474L115.573 24.7045C117.476 23.5029 117.476 20.4987 115.573 19.2971L110.93 16.3542L106.286 13.4237C104.383 12.222 102 13.7179 102 16.1335Z" fill="white"/>
<path d="M154.5 14.8V10L148.562 16L154.5 22V17.2C158.431 17.2 161.625 20.428 161.625 24.4C161.625 28.372 158.431 31.6 154.5 31.6C150.569 31.6 147.375 28.372 147.375 24.4H145C145 29.704 149.251 34 154.5 34C159.749 34 164 29.704 164 24.4C164 19.096 159.749 14.8 154.5 14.8Z" fill="white"/>
<path d="M187.815 29.5181C187.449 30.1845 187.931 31 188.691 31L207.309 31C208.069 31 208.551 30.1845 208.185 29.5181L198.876 12.5931C198.496 11.9023 197.504 11.9023 197.124 12.5931L187.815 29.5181Z" fill="#D9DDE3"/>
<path d="M252.185 14.4819C252.551 13.8155 252.069 13 251.309 13L232.691 13C231.931 13 231.449 13.8155 231.815 14.4819L241.124 31.4069C241.504 32.0977 242.496 32.0977 242.876 31.4069L252.185 14.4819Z" fill="#D9DDE3"/>
<path d="M293.518 32.1849C294.185 32.5515 295 32.0693 295 31.3087V12.6913C295 11.9307 294.185 11.4485 293.518 11.8151L276.593 21.1238C275.902 21.5037 275.902 22.4963 276.593 22.8762L293.518 32.1849Z" fill="#D9DDE3"/>
<path d="M322.482 11.8151C321.815 11.4485 321 11.9307 321 12.6913V31.3087C321 32.0693 321.815 32.5515 322.482 32.1849L339.407 22.8762C340.098 22.4963 340.098 21.5037 339.407 21.1238L322.482 11.8151Z" fill="#D9DDE3"/>
<path d="M362 10H368V12H362V10Z" fill="#D9D9D9"/>
<path d="M364 10L364 16H362L362 10L364 10Z" fill="#D9D9D9"/>
<path d="M386 34H380V32H386V34Z" fill="#D9D9D9"/>
<path d="M384 34L384 28H386L386 34L384 34Z" fill="#D9D9D9"/>
<path d="M386 10H380V12H386V10Z" fill="#D9D9D9"/>
<path d="M384 10L384 16H386L386 10L384 10Z" fill="#D9D9D9"/>
<path d="M362 34H368V32H362V34Z" fill="#D9D9D9"/>
<path d="M364 34L364 28H362L362 34L364 34Z" fill="#D9D9D9"/>
<rect x="374" y="19" width="4" height="4" transform="rotate(45 374 19)" fill="#D9D9D9"/>
<path d="M406 10H412V12H406V10Z" fill="#D9D9D9"/>
<path d="M408 10L408 16H406L406 10L408 10Z" fill="#D9D9D9"/>
<path d="M430 34H424V32H430V34Z" fill="#D9D9D9"/>
<path d="M428 34L428 28H430L430 34L428 34Z" fill="#D9D9D9"/>
<path d="M430 10H424V12H430V10Z" fill="#D9D9D9"/>
<path d="M428 10L428 16H430L430 10L428 10Z" fill="#D9D9D9"/>
<path d="M406 34H412V32H406V34Z" fill="#D9D9D9"/>
<path d="M408 34L408 28H406L406 34L408 34Z" fill="#D9D9D9"/>
<rect x="418" y="13" width="4" height="4" transform="rotate(45 418 13)" fill="#D9D9D9"/>
<rect x="418" y="25.3398" width="4" height="4" transform="rotate(45 418 25.3398)" fill="#D9D9D9"/>
<rect x="411.828" y="19" width="4" height="4" transform="rotate(45 411.828 19)" fill="#D9D9D9"/>
<rect x="424.17" y="19" width="4" height="4" transform="rotate(45 424.17 19)" fill="#D9D9D9"/>
<rect x="461" y="15" width="2" height="14" rx="1" fill="#D9DDE3"/>
<rect x="469" y="21" width="2" height="14" rx="1" transform="rotate(90 469 21)" fill="#D9DDE3"/>
<path d="M474 22C474 28.6274 468.627 34 462 34C455.373 34 450 28.6274 450 22C450 15.3726 455.373 10 462 10C468.627 10 474 15.3726 474 22ZM452.64 22C452.64 27.1694 456.831 31.36 462 31.36C467.169 31.36 471.36 27.1694 471.36 22C471.36 16.8306 467.169 12.64 462 12.64C456.831 12.64 452.64 16.8306 452.64 22Z" fill="#D9DDE3"/>
<rect x="513" y="21" width="2" height="14" rx="1" transform="rotate(90 513 21)" fill="#D9DDE3"/>
<path d="M518 22C518 28.6274 512.627 34 506 34C499.373 34 494 28.6274 494 22C494 15.3726 499.373 10 506 10C512.627 10 518 15.3726 518 22ZM496.64 22C496.64 27.1694 500.831 31.36 506 31.36C511.169 31.36 515.36 27.1694 515.36 22C515.36 16.8306 511.169 12.64 506 12.64C500.831 12.64 496.64 16.8306 496.64 22Z" fill="#D9DDE3"/>
</svg>
